<mxfile host="app.diagrams.net" modified="2023-05-29T03:45:10.741Z" agent="Mozilla/5.0 (Windows NT 10.0; Win64; x64) AppleWebKit/537.36 (KHTML, like Gecko) Chrome/113.0.0.0 Safari/537.36" etag="-2-15YjwAtup3aeVN5v9" version="21.3.5" type="google">
  <diagram name="PÃ¡gina-1" id="a3jGTiDegCX_clrebcho">
    <mxGraphModel grid="1" page="1" gridSize="10" guides="1" tooltips="1" connect="1" arrows="1" fold="1" pageScale="1" pageWidth="827" pageHeight="1169" math="0" shadow="0">
      <root>
        <mxCell id="0" />
        <mxCell id="1" parent="0" />
        <mxCell id="RVstozmfSCrDpdNtLjxK-2" style="edgeStyle=orthogonalEdgeStyle;rounded=0;orthogonalLoop=1;jettySize=auto;html=1;entryX=-0.024;entryY=0.643;entryDx=0;entryDy=0;entryPerimeter=0;dashed=1;endArrow=none;endFill=0;" edge="1" parent="1" source="RVstozmfSCrDpdNtLjxK-5" target="RVstozmfSCrDpdNtLjxK-23">
          <mxGeometry relative="1" as="geometry">
            <Array as="points">
              <mxPoint x="470" y="1701" />
              <mxPoint x="470" y="1701" />
            </Array>
          </mxGeometry>
        </mxCell>
        <mxCell id="RVstozmfSCrDpdNtLjxK-3" style="edgeStyle=orthogonalEdgeStyle;rounded=0;orthogonalLoop=1;jettySize=auto;html=1;entryX=-0.012;entryY=0.618;entryDx=0;entryDy=0;entryPerimeter=0;dashed=1;endArrow=none;endFill=0;" edge="1" parent="1" source="RVstozmfSCrDpdNtLjxK-5" target="RVstozmfSCrDpdNtLjxK-59">
          <mxGeometry relative="1" as="geometry">
            <Array as="points">
              <mxPoint x="354" y="1429" />
            </Array>
          </mxGeometry>
        </mxCell>
        <mxCell id="RVstozmfSCrDpdNtLjxK-4" value="HTTPS" style="edgeLabel;html=1;align=center;verticalAlign=middle;resizable=0;points=[];" connectable="0" vertex="1" parent="RVstozmfSCrDpdNtLjxK-3">
          <mxGeometry x="0.2759" y="1" relative="1" as="geometry">
            <mxPoint as="offset" />
          </mxGeometry>
        </mxCell>
        <mxCell id="RVstozmfSCrDpdNtLjxK-5" value="" style="shape=image;html=1;verticalAlign=top;verticalLabelPosition=bottom;labelBackgroundColor=#ffffff;imageAspect=0;aspect=fixed;image=https://cdn2.iconfinder.com/data/icons/whcompare-isometric-web-hosting-servers/50/ssl-certificate-128.png" vertex="1" parent="1">
          <mxGeometry x="291" y="1620" width="128" height="128" as="geometry" />
        </mxCell>
        <mxCell id="RVstozmfSCrDpdNtLjxK-6" style="edgeStyle=orthogonalEdgeStyle;rounded=0;orthogonalLoop=1;jettySize=auto;html=1;entryX=-0.006;entryY=0.376;entryDx=0;entryDy=0;strokeColor=#3333FF;dashed=1;endArrow=none;endFill=0;entryPerimeter=0;" edge="1" parent="1" source="RVstozmfSCrDpdNtLjxK-8" target="0VNToS_IOA-vj3WojO3x-8">
          <mxGeometry relative="1" as="geometry">
            <Array as="points">
              <mxPoint x="200" y="1485" />
              <mxPoint x="200" y="2050" />
              <mxPoint x="608" y="2050" />
            </Array>
            <mxPoint x="651.5" y="2050" as="targetPoint" />
          </mxGeometry>
        </mxCell>
        <mxCell id="0VNToS_IOA-vj3WojO3x-2" style="edgeStyle=orthogonalEdgeStyle;rounded=0;orthogonalLoop=1;jettySize=auto;html=1;exitX=1;exitY=0.5;exitDx=0;exitDy=0;exitPerimeter=0;entryX=0;entryY=0.5;entryDx=0;entryDy=0;dashed=1;endArrow=open;endFill=0;" edge="1" parent="1" source="RVstozmfSCrDpdNtLjxK-8" target="RVstozmfSCrDpdNtLjxK-5">
          <mxGeometry relative="1" as="geometry">
            <Array as="points">
              <mxPoint x="160" y="1485" />
              <mxPoint x="160" y="1684" />
            </Array>
          </mxGeometry>
        </mxCell>
        <mxCell id="RVstozmfSCrDpdNtLjxK-8" value="" style="fontColor=#0066CC;verticalAlign=top;verticalLabelPosition=bottom;labelPosition=center;align=center;html=1;outlineConnect=0;fillColor=#CCCCCC;strokeColor=#6881B3;gradientColor=none;gradientDirection=north;strokeWidth=2;shape=mxgraph.networks.pc;" vertex="1" parent="1">
          <mxGeometry x="-86.5" y="1425" width="160" height="120" as="geometry" />
        </mxCell>
        <mxCell id="RVstozmfSCrDpdNtLjxK-9" style="edgeStyle=orthogonalEdgeStyle;rounded=0;orthogonalLoop=1;jettySize=auto;html=1;entryX=0;entryY=0.5;entryDx=0;entryDy=0;strokeColor=#3333FF;dashed=1;endArrow=none;endFill=0;" edge="1" parent="1" source="RVstozmfSCrDpdNtLjxK-11" target="0VNToS_IOA-vj3WojO3x-8">
          <mxGeometry relative="1" as="geometry">
            <Array as="points">
              <mxPoint x="200" y="1890" />
              <mxPoint x="200" y="2050" />
              <mxPoint x="608" y="2050" />
            </Array>
            <mxPoint x="651.5" y="2050" as="targetPoint" />
          </mxGeometry>
        </mxCell>
        <mxCell id="0VNToS_IOA-vj3WojO3x-3" style="edgeStyle=orthogonalEdgeStyle;rounded=0;orthogonalLoop=1;jettySize=auto;html=1;entryX=0;entryY=0.5;entryDx=0;entryDy=0;dashed=1;endArrow=open;endFill=0;" edge="1" parent="1" source="RVstozmfSCrDpdNtLjxK-11" target="RVstozmfSCrDpdNtLjxK-5">
          <mxGeometry relative="1" as="geometry">
            <Array as="points">
              <mxPoint x="160" y="1890" />
              <mxPoint x="160" y="1684" />
            </Array>
          </mxGeometry>
        </mxCell>
        <mxCell id="RVstozmfSCrDpdNtLjxK-11" value="" style="html=1;verticalLabelPosition=bottom;align=center;labelBackgroundColor=#ffffff;verticalAlign=top;strokeWidth=2;strokeColor=#0080F0;shadow=0;dashed=0;shape=mxgraph.ios7.icons.smartphone;" vertex="1" parent="1">
          <mxGeometry x="-56.5" y="1800" width="100" height="180" as="geometry" />
        </mxCell>
        <mxCell id="RVstozmfSCrDpdNtLjxK-12" style="edgeStyle=orthogonalEdgeStyle;rounded=0;orthogonalLoop=1;jettySize=auto;html=1;entryX=0.15;entryY=0.5;entryDx=0;entryDy=0;entryPerimeter=0;" edge="1" parent="1" source="RVstozmfSCrDpdNtLjxK-15" target="RVstozmfSCrDpdNtLjxK-19">
          <mxGeometry relative="1" as="geometry">
            <Array as="points">
              <mxPoint x="-56.5" y="1685" />
            </Array>
          </mxGeometry>
        </mxCell>
        <mxCell id="RVstozmfSCrDpdNtLjxK-13" style="edgeStyle=orthogonalEdgeStyle;rounded=0;orthogonalLoop=1;jettySize=auto;html=1;" edge="1" parent="1" source="RVstozmfSCrDpdNtLjxK-15" target="RVstozmfSCrDpdNtLjxK-8">
          <mxGeometry relative="1" as="geometry">
            <Array as="points">
              <mxPoint x="-196.5" y="1685" />
              <mxPoint x="-196.5" y="1485" />
            </Array>
          </mxGeometry>
        </mxCell>
        <mxCell id="RVstozmfSCrDpdNtLjxK-14" style="edgeStyle=orthogonalEdgeStyle;rounded=0;orthogonalLoop=1;jettySize=auto;html=1;entryX=0;entryY=0.478;entryDx=0;entryDy=0;entryPerimeter=0;" edge="1" parent="1" source="RVstozmfSCrDpdNtLjxK-15" target="RVstozmfSCrDpdNtLjxK-11">
          <mxGeometry relative="1" as="geometry">
            <Array as="points">
              <mxPoint x="-196.5" y="1685" />
              <mxPoint x="-196.5" y="1886" />
            </Array>
          </mxGeometry>
        </mxCell>
        <mxCell id="RVstozmfSCrDpdNtLjxK-15" value="" style="sketch=0;aspect=fixed;pointerEvents=1;shadow=0;dashed=0;html=1;strokeColor=none;labelPosition=center;verticalLabelPosition=bottom;verticalAlign=top;align=center;fillColor=#00188D;shape=mxgraph.azure.user" vertex="1" parent="1">
          <mxGeometry x="-303.5" y="1660" width="47" height="50" as="geometry" />
        </mxCell>
        <mxCell id="RVstozmfSCrDpdNtLjxK-16" value="&amp;lt;&amp;lt;users&amp;gt;&amp;gt;" style="text;html=1;strokeColor=none;fillColor=none;align=center;verticalAlign=middle;whiteSpace=wrap;rounded=0;" vertex="1" parent="1">
          <mxGeometry x="-310" y="1710" width="60" height="30" as="geometry" />
        </mxCell>
        <mxCell id="RVstozmfSCrDpdNtLjxK-17" style="edgeStyle=orthogonalEdgeStyle;rounded=0;orthogonalLoop=1;jettySize=auto;html=1;entryX=0.041;entryY=0.383;entryDx=0;entryDy=0;strokeColor=#3333FF;dashed=1;endArrow=none;endFill=0;entryPerimeter=0;" edge="1" parent="1" source="RVstozmfSCrDpdNtLjxK-19" target="0VNToS_IOA-vj3WojO3x-8">
          <mxGeometry relative="1" as="geometry">
            <Array as="points">
              <mxPoint x="200" y="1685" />
              <mxPoint x="200" y="2051" />
            </Array>
            <mxPoint x="651.5" y="2050" as="targetPoint" />
          </mxGeometry>
        </mxCell>
        <mxCell id="0VNToS_IOA-vj3WojO3x-1" style="edgeStyle=orthogonalEdgeStyle;rounded=0;orthogonalLoop=1;jettySize=auto;html=1;exitX=0.85;exitY=0.5;exitDx=0;exitDy=0;exitPerimeter=0;entryX=0;entryY=0.5;entryDx=0;entryDy=0;dashed=1;endArrow=open;endFill=0;" edge="1" parent="1" source="RVstozmfSCrDpdNtLjxK-19" target="RVstozmfSCrDpdNtLjxK-5">
          <mxGeometry relative="1" as="geometry" />
        </mxCell>
        <mxCell id="RVstozmfSCrDpdNtLjxK-19" value="" style="fontColor=#0066CC;verticalAlign=top;verticalLabelPosition=bottom;labelPosition=center;align=center;html=1;outlineConnect=0;fillColor=#CCCCCC;strokeColor=#6881B3;gradientColor=none;gradientDirection=north;strokeWidth=2;shape=mxgraph.networks.laptop;" vertex="1" parent="1">
          <mxGeometry x="-86.5" y="1620" width="200" height="130" as="geometry" />
        </mxCell>
        <mxCell id="RVstozmfSCrDpdNtLjxK-20" value="&amp;lt;&amp;lt;clients&amp;gt;&amp;gt;" style="text;html=1;strokeColor=none;fillColor=none;align=center;verticalAlign=middle;whiteSpace=wrap;rounded=0;" vertex="1" parent="1">
          <mxGeometry x="-16.5" y="1385" width="60" height="30" as="geometry" />
        </mxCell>
        <mxCell id="RVstozmfSCrDpdNtLjxK-21" style="edgeStyle=orthogonalEdgeStyle;rounded=0;orthogonalLoop=1;jettySize=auto;html=1;entryX=0;entryY=0.5;entryDx=0;entryDy=0;entryPerimeter=0;dashed=1;" edge="1" parent="1" source="RVstozmfSCrDpdNtLjxK-23" target="RVstozmfSCrDpdNtLjxK-33">
          <mxGeometry relative="1" as="geometry">
            <Array as="points">
              <mxPoint x="820" y="1697" />
              <mxPoint x="820" y="1697" />
            </Array>
          </mxGeometry>
        </mxCell>
        <mxCell id="RVstozmfSCrDpdNtLjxK-22" value="HTTPS" style="edgeLabel;html=1;align=center;verticalAlign=middle;resizable=0;points=[];" connectable="0" vertex="1" parent="RVstozmfSCrDpdNtLjxK-21">
          <mxGeometry x="-0.1951" y="-1" relative="1" as="geometry">
            <mxPoint as="offset" />
          </mxGeometry>
        </mxCell>
        <mxCell id="RVstozmfSCrDpdNtLjxK-23" value="" style="image;aspect=fixed;html=1;points=[];align=center;fontSize=12;image=img/lib/azure2/networking/CDN_Profiles.svg;" vertex="1" parent="1">
          <mxGeometry x="612.5" y="1650" width="136" height="80" as="geometry" />
        </mxCell>
        <mxCell id="RVstozmfSCrDpdNtLjxK-24" value="&amp;lt;&amp;lt;storage&amp;gt;&amp;gt;" style="text;html=1;strokeColor=none;fillColor=none;align=center;verticalAlign=middle;whiteSpace=wrap;rounded=0;" vertex="1" parent="1">
          <mxGeometry x="682.5" y="1190" width="60" height="30" as="geometry" />
        </mxCell>
        <mxCell id="RVstozmfSCrDpdNtLjxK-25" style="edgeStyle=orthogonalEdgeStyle;rounded=0;orthogonalLoop=1;jettySize=auto;html=1;entryX=0.593;entryY=-0.013;entryDx=0;entryDy=0;entryPerimeter=0;dashed=1;endArrow=none;endFill=0;" edge="1" parent="1" source="RVstozmfSCrDpdNtLjxK-26" target="RVstozmfSCrDpdNtLjxK-59">
          <mxGeometry relative="1" as="geometry" />
        </mxCell>
        <mxCell id="RVstozmfSCrDpdNtLjxK-26" value="" style="verticalLabelPosition=bottom;html=1;verticalAlign=top;align=center;strokeColor=none;fillColor=#00BEF2;shape=mxgraph.azure.storage_blob;" vertex="1" parent="1">
          <mxGeometry x="673.5" y="1230" width="69" height="65" as="geometry" />
        </mxCell>
        <mxCell id="RVstozmfSCrDpdNtLjxK-27" value="" style="endArrow=classic;dashed=1;html=1;strokeWidth=2;rounded=0;entryX=0;entryY=0.5;entryDx=0;entryDy=0;exitX=1;exitY=0.5;exitDx=0;exitDy=0;exitPerimeter=0;endFill=1;" edge="1" parent="1" source="RVstozmfSCrDpdNtLjxK-26" target="RVstozmfSCrDpdNtLjxK-28">
          <mxGeometry width="50" height="50" relative="1" as="geometry">
            <mxPoint x="920.5" y="1380" as="sourcePoint" />
            <mxPoint x="1120.5" y="1261" as="targetPoint" />
          </mxGeometry>
        </mxCell>
        <mxCell id="RVstozmfSCrDpdNtLjxK-28" value="Angular" style="html=1;dropTarget=0;whiteSpace=wrap;" vertex="1" parent="1">
          <mxGeometry x="842" y="1230" width="165.5" height="65" as="geometry" />
        </mxCell>
        <mxCell id="RVstozmfSCrDpdNtLjxK-29" value="" style="shape=module;jettyWidth=8;jettyHeight=4;" vertex="1" parent="RVstozmfSCrDpdNtLjxK-28">
          <mxGeometry x="1" width="41" height="30" relative="1" as="geometry">
            <mxPoint x="-50" y="18" as="offset" />
          </mxGeometry>
        </mxCell>
        <mxCell id="RVstozmfSCrDpdNtLjxK-30" value="&amp;lt;&amp;lt;WAF&amp;gt;&amp;gt;" style="text;html=1;strokeColor=none;fillColor=none;align=center;verticalAlign=middle;whiteSpace=wrap;rounded=0;" vertex="1" parent="1">
          <mxGeometry x="666" y="1720" width="60" height="30" as="geometry" />
        </mxCell>
        <mxCell id="RVstozmfSCrDpdNtLjxK-31" style="edgeStyle=orthogonalEdgeStyle;rounded=0;orthogonalLoop=1;jettySize=auto;html=1;entryX=0.003;entryY=0.436;entryDx=0;entryDy=0;entryPerimeter=0;dashed=1;" edge="1" parent="1" source="RVstozmfSCrDpdNtLjxK-33" target="RVstozmfSCrDpdNtLjxK-36">
          <mxGeometry relative="1" as="geometry">
            <Array as="points" />
          </mxGeometry>
        </mxCell>
        <mxCell id="RVstozmfSCrDpdNtLjxK-32" value="HTTPS" style="edgeLabel;html=1;align=center;verticalAlign=middle;resizable=0;points=[];" connectable="0" vertex="1" parent="RVstozmfSCrDpdNtLjxK-31">
          <mxGeometry x="-0.1819" relative="1" as="geometry">
            <mxPoint as="offset" />
          </mxGeometry>
        </mxCell>
        <mxCell id="RVstozmfSCrDpdNtLjxK-33" value="" style="sketch=0;points=[[0,0,0],[0.25,0,0],[0.5,0,0],[0.75,0,0],[1,0,0],[0,1,0],[0.25,1,0],[0.5,1,0],[0.75,1,0],[1,1,0],[0,0.25,0],[0,0.5,0],[0,0.75,0],[1,0.25,0],[1,0.5,0],[1,0.75,0]];outlineConnect=0;fontColor=#232F3E;gradientColor=#945DF2;gradientDirection=north;fillColor=#5A30B5;strokeColor=#ffffff;dashed=0;verticalLabelPosition=bottom;verticalAlign=top;align=center;html=1;fontSize=12;fontStyle=0;aspect=fixed;shape=mxgraph.aws4.resourceIcon;resIcon=mxgraph.aws4.api_gateway;" vertex="1" parent="1">
          <mxGeometry x="913.51" y="1658" width="78" height="78" as="geometry" />
        </mxCell>
        <mxCell id="RVstozmfSCrDpdNtLjxK-34" style="edgeStyle=orthogonalEdgeStyle;rounded=0;orthogonalLoop=1;jettySize=auto;html=1;entryX=1;entryY=0.5;entryDx=0;entryDy=0;dashed=1;endArrow=none;endFill=0;" edge="1" parent="1" source="RVstozmfSCrDpdNtLjxK-35" target="0VNToS_IOA-vj3WojO3x-8">
          <mxGeometry relative="1" as="geometry">
            <Array as="points">
              <mxPoint x="944" y="2050" />
              <mxPoint x="666" y="2050" />
            </Array>
            <mxPoint x="711.5" y="2050" as="targetPoint" />
          </mxGeometry>
        </mxCell>
        <mxCell id="RVstozmfSCrDpdNtLjxK-35" value="&amp;lt;&amp;lt;api gateway&amp;gt;" style="text;html=1;strokeColor=none;fillColor=none;align=center;verticalAlign=middle;whiteSpace=wrap;rounded=0;" vertex="1" parent="1">
          <mxGeometry x="904.13" y="1720" width="96.75" height="30" as="geometry" />
        </mxCell>
        <mxCell id="RVstozmfSCrDpdNtLjxK-36" value="" style="rounded=0;whiteSpace=wrap;html=1;" vertex="1" parent="1">
          <mxGeometry x="1143.5" y="1580" width="396.5" height="270" as="geometry" />
        </mxCell>
        <mxCell id="RVstozmfSCrDpdNtLjxK-37" value="&amp;lt;&amp;lt;container management&amp;gt;&amp;gt;" style="text;html=1;align=center;verticalAlign=middle;resizable=0;points=[];autosize=1;strokeColor=none;fillColor=none;" vertex="1" parent="1">
          <mxGeometry x="1218.5" y="1580" width="170" height="30" as="geometry" />
        </mxCell>
        <mxCell id="RVstozmfSCrDpdNtLjxK-38" value="" style="sketch=0;html=1;dashed=0;whitespace=wrap;fillColor=#2875E2;strokeColor=#ffffff;points=[[0.005,0.63,0],[0.1,0.2,0],[0.9,0.2,0],[0.5,0,0],[0.995,0.63,0],[0.72,0.99,0],[0.5,1,0],[0.28,0.99,0]];verticalLabelPosition=bottom;align=center;verticalAlign=top;shape=mxgraph.kubernetes.icon;prIcon=master" vertex="1" parent="1">
          <mxGeometry x="1143.5" y="1580" width="50" height="48" as="geometry" />
        </mxCell>
        <mxCell id="RVstozmfSCrDpdNtLjxK-39" value="" style="rounded=0;whiteSpace=wrap;html=1;" vertex="1" parent="1">
          <mxGeometry x="1183.5" y="1628" width="336.5" height="192" as="geometry" />
        </mxCell>
        <mxCell id="RVstozmfSCrDpdNtLjxK-40" value="" style="shape=image;html=1;verticalAlign=top;verticalLabelPosition=bottom;labelBackgroundColor=#ffffff;imageAspect=0;aspect=fixed;image=https://cdn1.iconfinder.com/data/icons/unicons-line-vol-3/24/docker-128.png" vertex="1" parent="1">
          <mxGeometry x="1218.5" y="1620" width="70" height="70" as="geometry" />
        </mxCell>
        <mxCell id="RVstozmfSCrDpdNtLjxK-41" value="&amp;lt;&amp;lt;container&amp;gt;&amp;gt;" style="text;html=1;align=center;verticalAlign=middle;resizable=0;points=[];autosize=1;strokeColor=none;fillColor=none;" vertex="1" parent="1">
          <mxGeometry x="1300" y="1628" width="100" height="30" as="geometry" />
        </mxCell>
        <mxCell id="RVstozmfSCrDpdNtLjxK-42" style="edgeStyle=orthogonalEdgeStyle;rounded=0;orthogonalLoop=1;jettySize=auto;html=1;exitX=1;exitY=0.5;exitDx=0;exitDy=0;entryX=0;entryY=0;entryDx=0;entryDy=52.5;entryPerimeter=0;dashed=1;" edge="1" parent="1" source="RVstozmfSCrDpdNtLjxK-49" target="RVstozmfSCrDpdNtLjxK-51">
          <mxGeometry relative="1" as="geometry">
            <Array as="points">
              <mxPoint x="1793" y="1750" />
            </Array>
          </mxGeometry>
        </mxCell>
        <mxCell id="RVstozmfSCrDpdNtLjxK-43" value="TCP/IP" style="edgeLabel;html=1;align=center;verticalAlign=middle;resizable=0;points=[];" connectable="0" vertex="1" parent="RVstozmfSCrDpdNtLjxK-42">
          <mxGeometry x="0.15" relative="1" as="geometry">
            <mxPoint y="1" as="offset" />
          </mxGeometry>
        </mxCell>
        <mxCell id="RVstozmfSCrDpdNtLjxK-46" style="edgeStyle=orthogonalEdgeStyle;rounded=0;orthogonalLoop=1;jettySize=auto;html=1;exitX=0.75;exitY=0;exitDx=0;exitDy=0;entryX=-0.016;entryY=0.418;entryDx=0;entryDy=0;entryPerimeter=0;dashed=1;" edge="1" parent="1" source="RVstozmfSCrDpdNtLjxK-49" target="0VNToS_IOA-vj3WojO3x-15">
          <mxGeometry relative="1" as="geometry">
            <mxPoint x="1508.75" y="1397.24" as="targetPoint" />
            <Array as="points">
              <mxPoint x="1430" y="1700" />
              <mxPoint x="1430" y="1349" />
            </Array>
          </mxGeometry>
        </mxCell>
        <mxCell id="RVstozmfSCrDpdNtLjxK-47" value="HTTPS" style="edgeLabel;html=1;align=center;verticalAlign=middle;resizable=0;points=[];" connectable="0" vertex="1" parent="RVstozmfSCrDpdNtLjxK-46">
          <mxGeometry x="0.7072" y="-1" relative="1" as="geometry">
            <mxPoint as="offset" />
          </mxGeometry>
        </mxCell>
        <mxCell id="RVstozmfSCrDpdNtLjxK-48" style="edgeStyle=orthogonalEdgeStyle;rounded=0;orthogonalLoop=1;jettySize=auto;html=1;exitX=0.5;exitY=1;exitDx=0;exitDy=0;entryX=1;entryY=0.5;entryDx=0;entryDy=0;dashed=1;endArrow=none;endFill=0;" edge="1" parent="1" source="RVstozmfSCrDpdNtLjxK-49" target="0VNToS_IOA-vj3WojO3x-8">
          <mxGeometry relative="1" as="geometry">
            <mxPoint x="711.5" y="2050" as="targetPoint" />
            <Array as="points">
              <mxPoint x="1304" y="2050" />
              <mxPoint x="666" y="2050" />
            </Array>
          </mxGeometry>
        </mxCell>
        <mxCell id="RVstozmfSCrDpdNtLjxK-49" value="Â«apiÂ»&lt;br&gt;&lt;b&gt;Back End&lt;/b&gt;" style="html=1;dropTarget=0;whiteSpace=wrap;" vertex="1" parent="1">
          <mxGeometry x="1270" y="1700" width="210" height="100" as="geometry" />
        </mxCell>
        <mxCell id="RVstozmfSCrDpdNtLjxK-50" value="" style="shape=module;jettyWidth=8;jettyHeight=4;" vertex="1" parent="RVstozmfSCrDpdNtLjxK-49">
          <mxGeometry x="1" width="20" height="20" relative="1" as="geometry">
            <mxPoint x="-27" y="7" as="offset" />
          </mxGeometry>
        </mxCell>
        <mxCell id="RVstozmfSCrDpdNtLjxK-51" value="Database" style="shape=cylinder3;whiteSpace=wrap;html=1;boundedLbl=1;backgroundOutline=1;size=15;" vertex="1" parent="1">
          <mxGeometry x="1800" y="1700" width="60" height="80" as="geometry" />
        </mxCell>
        <mxCell id="RVstozmfSCrDpdNtLjxK-55" value="&amp;lt;&amp;lt;notification service&amp;gt;&amp;gt;" style="text;html=1;align=center;verticalAlign=middle;resizable=0;points=[];autosize=1;strokeColor=none;fillColor=none;" vertex="1" parent="1">
          <mxGeometry x="1504" y="1295" width="150" height="30" as="geometry" />
        </mxCell>
        <mxCell id="RVstozmfSCrDpdNtLjxK-57" value="&amp;lt;&amp;lt;identity provider&amp;gt;&amp;gt;" style="text;html=1;strokeColor=none;fillColor=none;align=center;verticalAlign=middle;whiteSpace=wrap;rounded=0;" vertex="1" parent="1">
          <mxGeometry x="580" y="1997" width="118" height="30" as="geometry" />
        </mxCell>
        <mxCell id="RVstozmfSCrDpdNtLjxK-58" value="&amp;lt;&amp;lt;single page application&amp;gt;&amp;gt;" style="text;html=1;strokeColor=none;fillColor=none;align=center;verticalAlign=middle;whiteSpace=wrap;rounded=0;" vertex="1" parent="1">
          <mxGeometry x="280" y="1760" width="156" height="30" as="geometry" />
        </mxCell>
        <mxCell id="RVstozmfSCrDpdNtLjxK-59" value="" style="image;aspect=fixed;html=1;points=[];align=center;fontSize=12;image=img/lib/azure2/networking/CDN_Profiles.svg;" vertex="1" parent="1">
          <mxGeometry x="628" y="1380" width="136" height="80" as="geometry" />
        </mxCell>
        <mxCell id="RVstozmfSCrDpdNtLjxK-60" value="&amp;lt;&amp;lt;CDN&amp;gt;&amp;gt;" style="text;html=1;strokeColor=none;fillColor=none;align=center;verticalAlign=middle;whiteSpace=wrap;rounded=0;" vertex="1" parent="1">
          <mxGeometry x="680" y="1480" width="60" height="30" as="geometry" />
        </mxCell>
        <mxCell id="RVstozmfSCrDpdNtLjxK-61" value="HTTPS" style="text;html=1;align=center;verticalAlign=middle;resizable=0;points=[];autosize=1;strokeColor=none;fillColor=none;" vertex="1" parent="1">
          <mxGeometry x="480" y="1650" width="60" height="30" as="geometry" />
        </mxCell>
        <mxCell id="RVstozmfSCrDpdNtLjxK-62" value="HTTPS" style="text;html=1;align=center;verticalAlign=middle;resizable=0;points=[];autosize=1;strokeColor=none;fillColor=none;" vertex="1" parent="1">
          <mxGeometry x="711.5" y="1320" width="60" height="30" as="geometry" />
        </mxCell>
        <mxCell id="0VNToS_IOA-vj3WojO3x-4" value="&amp;lt;&amp;lt;front end&amp;gt;&amp;gt;" style="text;html=1;align=center;verticalAlign=middle;resizable=0;points=[];autosize=1;strokeColor=none;fillColor=none;" vertex="1" parent="1">
          <mxGeometry x="874.75" y="1200" width="100" height="30" as="geometry" />
        </mxCell>
        <mxCell id="0VNToS_IOA-vj3WojO3x-5" value="" style="shape=image;html=1;verticalAlign=top;verticalLabelPosition=bottom;labelBackgroundColor=#ffffff;imageAspect=0;aspect=fixed;image=https://cdn1.iconfinder.com/data/icons/ionicons-fill-vol-1/512/logo-angular-128.png" vertex="1" parent="1">
          <mxGeometry x="1020" y="1236" width="53" height="53" as="geometry" />
        </mxCell>
        <mxCell id="0VNToS_IOA-vj3WojO3x-8" value="" style="shape=image;verticalLabelPosition=bottom;labelBackgroundColor=default;verticalAlign=top;aspect=fixed;imageAspect=0;image=data:image/png,iVBORw0KGgoAAAANSUhEUgAAANwAAADMCAYAAAAYjM0aAAAAAXNSR0IArs4c6QAAAARnQU1BAACxjwv8YQUAAAAJcEhZcwAADsMAAA7DAcdvqGQAAChYSURBVHhe7Z0JmBTF2cf/PdeeLLssxy7Ltdz3jaLBT/GIKN6AfirBaBQVhCgYSfCKgpEYQfAANGq8xUSMZ9B8QY2Jt8YLEEWQm+Vejj3n6K+rpzo72zvd00d1T09P/55Ht95i5j9V1fVW9dtHFccLIAkHDx4Ex3HUAsjHEm2J4uJimkqNp+lpErJZ00f/tkD+Q8l+WC+eZhOepjkyVVPR4bRARgDWeJps8TTZYlbTlMOxGAHkeJps8TTZYlZT0eHknpzK1oKn2YSn2UQ2aXJCUCfkNQ8OiV1SUkItdaqrq8W/yTQ8zTiepqcpIc5wiR8iyG01iCghlYanqQ1P092apmI4gp6CasXTZIunyRYzmqYdzsPDQzuiw0lTpITcNoKn2YSnaQ43aTKL4SQk29NswtPURjZoMo/h9BRcCU+zCU/THE7T9GI4Dw8bEe/D0fR/IVOk3nsSqWCt+dGzjyDcUI/c3Fyao059fT1NpcZJmm279cS+zT9QqzluqntBcQn6nzmJWupkQv8kJNNs5nDkA9L0qPWJ6FRPWFuhGdv1I2K3XUgtFxMMwX/3q4jcNB5cLEoz3Uv9gr+hsLQdtezpS3ZrKr6eQ7xYTYhAbK2jAoGV5uEls9D479eo5V7yzrsaBZfeiOrbLkHk209prnvZeeW9GHz6udRSx8n9MxG5pmoMl/hDhFS2Fsxq1h2uzgpng88vONxUMcn1Gy7+dTuV276kKW2Y7UvJsFpT0eGIV7KGhebGT9+nKXcT6DkYvoIiMb2ncpT41+3omcWd2j/lyDUVHc6IJ6eChWbXrfpGwUzF328ETQHdho0WMgLUci/Rrd8hunsbtdRxav+UI9fUdVtA7q0sRgS9mvyO5Ffs3MaGom40BQRzchAcdDy13E3DR2/SlH6c0D9Tocvh5N7KYkTQo9lYW4PG77NghhOaoHJkcwfLv+BaMd/t1P/tSYQbG6ilj3T3Ty1ojuGcMFpE3/srUHeUWu4l0HcUSjp2placYL+R8LfrRC33EjuwG7u+/YZayjixfyZDrqE5hkv3aBEJh1H/2mPUcjHCAcqfOI0azQn0O4am3E3Duk9oShmn9U8l5Bq6TinlsBgB5ChpVn2/FtE926nlXri25QgNHkOt5nxXMZSm3E37zV/QlDns7J9aMeVwLEYAOUqa9WtTj3puINhP+RZA5cjjxBnQ7US++wLhujpqGcfO/qkVwzGcEU83o8lq1HM633YcQlMtKe3cDYHew6jlXviaQ4i+/yq1kmOmLylhh2bGLCIUuWUCsHurmHYzVTOWodPgkYrtGX3rGfAvLqG57oUbMBr+6x8Q06z7EiFdmuIMl/ghgtxWg4gSUmmY0Yz+uAbIhvitdSna9R4QTyu0X/j4c4DcPDHtZvhvP0VsY/xqJcu+JJEuTVMxHEFPQbXSQnPVk0ItY9RwL3mnX4qcFM6U26oIXLdB1HIxsShibzxODePY0j91YNrhrIbfsh6xr/9FLffChfIQO+ViaqmzvVMWOJwAv/ZDHN2/h1ruQHQ4aYqUkNtGYKUZe/NJcFH3vwvm7zkAhW3aUqslie3HZcGFEwJ5B3Drl586un8mokWTWQwnIdksNGsO7EPsy3+Kabezq0v8FRwt7dmh32Bwha2p5W567/rGsf1TQo8m8xhOT8GVkDS2f/MfcJGwmHY7gf7xp0i0tKcY5/3PBdRyORvM3Q6ysn9K6NF0dAzXbc8GmnI/HXr0oSlt+EacQlPuht+zDQg3UivzSepw8imTBUY0A9u/pSl3Exx6Aoral1FLI517Izh8LDXcCznDif3jOWrFcUr/TEUyzWYOJ31AzxQpF1Wy9Wry0Qjww1c0x93kT5hOU/raM39i0/fcTGzVk+BjMcN9KRG19tSKGU3HLiJU98aTqHliPs11MX1HIDB7uZg00p6RuecDe93/UEDNzc+h69Cm50zT3T+1ItdUjeESf4iQytaCFk1SwNqXltIcd+M76yqaMtievbNjgaGC71uuZaOlL+nFak1FhyOdnjVaNXes/RL84QPUcjFtykw5DGnPre37U8vdBDc0fyk1nf1TD3JNRYcz4smp0Kq56bMPaMrdkBvYZtqZfLdk2LHUcjfh9Z+KcZxEOvunHuSaqqeUcuTeymJESKY5rM79MQmhtl05TcUx0p6tyyqAVtpjioylvg6R9Z9RIzl29U8z6HI4ubeyGBGSaYbXuX+VYcLhyuazk5H2JN/hzvg5tdxN7cqHaCo5yfqSWVhrao7h7BotYpvXIVa1hVouJrcA5f2VXzbVgtR+vrGTwIVyxLSbCX/9AQ5V7RTT6eqfepFraI7h7BotYq8/SlPuxnfGZfD5/dQyhtR+XCAI9MyO9U6k+D5d/VMvcg1dp5RyWIwAiRw9sBf4yv2v4vCCg/hOvYRaTZhpz2iPfjTlbnpt174uKev+STCracrhWIwAiWz9IjsWCuK6DwaSnAKaac/dXbNjCb1GHfsPsO6fBLOahmM4I56eSqN3VeoFQN0AVzmIeXtWDBgGPqRtM8VMJrZzEyJb1qdsP7PtSbBC01GLCB26YzLCaz6mlnvZccU9GHLG+dRqjpn2PLxoJho/XEUt98KddSVKL5tDLXVY9k8JM5riDJf4IYLcVoOIElJppNKsPXQQYdnTBK7E50fliOOo0RIz7Zl/7lTwKdrZFfxzJWoO7qeGOqz6ZyJmNE3FcAQ9BVXlnT8DDbXUcC/BIWNUX8Ux056BHgMRKK+klnvhjxwEt3oFtdRh1j8TMKNp2uFYUH/ksLhrivvhkHdB8n0DWOHvmx2bN9a99SwaG7Rv7O8URIeTpkgJuW0EPZr8uy8idnAvtdyLr0NnhPoae1hZa3tu7Jwd9+P46r3Yudb4+5J6+qdWtGgyi+EkJFurZrixEbVvPEEtdxNQ2TdAwmx7ivsPOOPExXIaNew3YbY9k2FGk3kMp6fghKrv1oDfv4ta7ub7itSPcpltz+KyCgQHjaaWuynb8h+aUsZseybDjGbah8LdG7+jKfejd6Ego4RGj6MpdxPevpGmMoekDiefMlmgpNl7R3asW8KVlqOsz0BqmUftGPlPOBe+9hXUci/8vp0If/MhtcxhV59v5nDSB/RMkXJRJVtJM6LjUZ1MJn/8zxEMhailjNn2JITy8pE3/gpquRihDWpffJAayWHRnnLMaKZ1EaHYD18j9vsrhVTSIrgGX0k7hG97AaGCQkvbkyDZjbU14OaMB1dfQ//FpQh1rb3zZRSVdbS0PSXMaqrGcIk/REhlayHxO7E3yJ7d7nY2Qu6ZlyGnsJXl7UmQ7FB+Afw9BotpVyN05q1fxa9WWtmeEmY1FR2OeCVrEjWP7tsDrHP/c5PIyQfGXmh5eyZjewW7mNHJ9N21hqbMYccxUnQ4I56cikTNrV8Ko1LM/bviBHsNQn7rEsvbMxm+PtmxhB5+YLMdtR3HSPWUUo7cW82MCH2qs2AZBQFfRQ+aagnL9pRI1Cjt1pOmXM7eHeDrjlrengSzmrocTu6tZkYE/sfsePdtUyflvdxYtqdEokZeUTEw8jRquRiyW+qqpyxvT4JZTc0xHNPRorEB/Kav42mX033U8eJfS9uTkkzTfza5Cux+Yv94FlGTW5vZcYw0x3AsRwuyG0o27PsWHHkyWpW2F9NWtqdEMk2uY3fV01q3wIUbseOb1I96qWHHMdJ1SinHyAgQi5LpPxtexQHyJ15HU9pgMaLKIZqh/tnxyk75Zucvh27K4YyMALvWfQW4/WasgK+sK4I99G1+z2JElUM0f6jIjld2fJuaz3BWtacZDMdwRjydfKf15uxYmSsom1Wsas9ElOzuo34i/nU9G78CT3dLtbI99SD/ju2LCNU8txCNX6hvlB8VTju14te4mKrdmutGnI/B4yeKaSvbUwtEM7rwWvBHD9EcZZzannKUNAsuvwWhAU1LyFvVngQjmqLD0XQziouLaUod4fvNfkQNoll9+6UIjPwpAqdOQm5ePv2X5ujV1IKn6W5NsghV43N/EGKWLSi+81ma67xymorhCFp/mBDdvQ2RdZ+g/qn5aHhgFs1tiR5NrXiabHGS5q7v1qL2upMQefsviHz7ibhupYTT6m7a4fRQt+opmgLCn67GgetPR9X7f6c5Hh76qDlyGEdeWorQH34B1Det+Fa36mmach6iw5FzzUTkthHkGrHGBtSv/jO14sR2bEJgyXTUrLgvvol+Cuwop6dpDrs0yeaMkcUz0fC80HcONV+jsuHdlxClF0+UsKucckSHk0+ReqZMpR+Ra/AfvtFsFPovwsfrVi7Fgeljsf0fL8ezNGpaUU5PUxvp0jxcfRCRvy5F9XUnI/x1y32/RYTBe9ua+KYf6SonIZkm8xhOqeA8WehVBX5/FXIf/hWOLP01YrLZTk9jKKG1nHrwNJuwRVM4S8pfegO4VU8guncHzUzO9rVxh0tLOVWwJYaLCA2FHdoWfGl4ZyXw6iPU8vCIU3NgHyJ3TQF+XEtz1BnCH6ApZ5HU4eRTplmqd2ylKW3wbz6FmHB+vmu9+hsFrMtJ8DTZYlYzGolg3T9eR8591wI7N9Hc1PC79L3+ZVfdmzmc9AE9U6RcNJm9f6v2hhLhY4it/RBtH5wGfs2Hir/BupwET1Mbdmnyf1mM3i/cAVRtprnaiOyKf96uciaipmnLIkIbnn4IJa8uppZOhN8I9B6G8MQb0G54/FWXRFiWU8LTTK8m2TOgRoj5uQ9XIbKOrOrW9DnNhHLBL/w72pWV04zU2FF31Rgu8YcIqWwlyo6qB7iqCL8R2SAEwH+4EvVvv0gzm8OqnIl4mk3YrdmwfC6ij80TnO0zwdL/WyKN9fAbeOdSTzm1kvgdRYcjXsmKKJ3ezUDenzu67DeoXnQDqquaHJhlOSU8TbZo1dzzybs4eNO5aPj3azTHHPya+Ab8WrGj7ooOZ8STlYiluISrh8iHryPyy1Nw4NP4PRiW5ZTwNNmiRTP61jPwLbwG0R/X0Rzz8Dq17Ki76imlHLm3ah0RYrVHaIoRZLWvP92MqMImIEbLqYan2QRrzeg7K8G/uCR+XFlyoIomjMO67rocTu6tWkYEsgIw6ti/cEpmzeqZP0XkkbnYv7n5PT4j5UyFp9kEC03Cxo/eQ/TRWxF74V6aw5gDe+L3gE3Auu6aYzijns3tFJyBj1GLLbwQGOPT/0Px/deC3/5DPM/kCERgPaoRPM0miB372+Po+ths8B+/CU7Dc7TGiOHogX00nRo76q45hjPq2dFtG2jKOsiez5H5l2LT04sRbTA3ohFYj2oETzPOnh/WI/bQjYi9Ys/TROIK3xqxoz11nVLK0TIC2OFwBC4aQ5f3ngVuOR/VO7fR3DgsRio5nqZ++B++Qpv7rwH/1XvgLDrrkXNkP9utrM22pymH0zICRHb9SFM2cWgfCu+fhprVz6P+SHxJARYjlRxPUzsNNUdx9NEFiN5zlSXxvBriNQSGmG1PwzGcVk/Xso4Gc/ZXIWfFIgTmnovdwimMXljVPZFs1Wz46E34556D3I9Xki/TXPuINAhxvkZY150g/47liwhF508Bv+Vbmms//m59UXznChxqiC88q1ROCZZ1l8hWzdjnbyO2fI6YThdrzr4RQ8+5yPa6E5JpijNc4ocIclsNIkpQ0og11Il/00V083rsn3YidqxaIdqp6sqy7hLZprl/dxUiz96D2GO309z0Ic1wdtU9kWSapmI4QqqCcg1J3vK2G+G0tsNLCxFdNB3hOnbl0XOQtJLpmvzhA2j9wHTg3b8AYe2nc1YRSbHUghHMtKdph0sFX5/+Rpfgv/0E3L1XY9PH74lLrnuwg6wxsu2VJxGZex6wW9/7j1aSam0TuxEdTpoiJeS2Ef477TY6YIZLZOt6dHl0NmLzf4ba6gOW1l3C7Zr87m2I3X05yl9/UDijSW8I0QKFKqWrPZnFcBKSLWnwgZD413Fs34Dgwqux/p1V4lvFEizrLuFWTfLY1OYVSxH57UXgN7N76Jgl/mCQpuKkuz2Zx3At7IIimnIeXNVm9HpeCOxX3k9z9KGlgfWSKZriExy3X4ROq//k6K3H/KEcmoqT7va0PIZDbvLlzJ0Ev3oFoq8+0mLk8kgOidfyn5kH7GP32pVV+AMBmnIGSR2Oaccr0LZee1oR6su/9kdE778Be39k/yiaFY6cLs0d77yG6hkng1/3Mc1xNoGQtpDGrvZs5nDSB/RMkXJRuc0VOveUsgVr3kfJ7y7BEfKKv4bTpFR1t6I906XJC/Ha0cfuQM7SWYjucf7MJuELJI/hJOxuT8sXESKdt2H1X6iVQfQajt3jr0XFgPhmhkbqngir9kzELs1d/3gJ7VY9DBx25lqPauyZdj/6jz2DWurY0Z6qMVziDxFS2cnwl2pfNclRbPgPOiy+CtF34wsXGam7HBbtKcdKTfKURvShG9Huhbsz0tkIBSVtaUobVrYnQdHhiFeywF85gKYyk9gLCxF97DYc2G5uISRW7ZmIVZrkvy3/+RBYdC34L9U3z3Q6hW20O5wdx0jR4Yx4cjIClf1pKjPhIhHwH61C0TLl/ey0wKo9E7FK89vVb6Bi2Uxg0xqam7kUlrajqdTYcYxUTynlyL1Vy4jga9MBvE/blrNOhs9vfvGHxWhopD1TwUIzt1UGXehSQ+h3ofwCahiD9THS5XByb9UyIpDP+Ir1nUc7kYaKgTQVh8VoaKQ9U8FCs7z/UPA5udTKYMorTbcp62OkOYYz49n+Yu3TulPZ1XMYTRmD9UhJsEozT5jhfKPH05zMhevSm6a0Yccx0hzDmfFsX6ZeqaRwoRx0GjSCWsZgPVISrNSMjb1YCAWc9ZSGXnwDW+5FoYYdx0jXKaUcrSMAV96FpjKUEacir3XzJ2ZYjH5ynKQZrOgKrlNPamUgQr35AfocTgtmj5Eph9M6AnxXmMEOJwTe3Bk/o0YTLEY/OU7TjFY2j1szitKO8BW0ogY7zB4jwzGcHk9vV9mLpjIPrkwIvMu6UyuOkVGOZXtKWK25pYu5uDWdcO0705R2rG5PguWLCBEO796J/FvOFdOZRuj4M1F0wxJqNUdL3Qms25Ngh+beH38Ad5O2x6KcRs4J56LVzHsdd4zEGS7xQwS5rQYRJahpFLYrA19USq3MYl835VFeS90JrNuTYIdmadfuGfuk0M7WncS/TjtGpmI4gpaC+nw++If+D7Uyi4JBo2mqJXoOklacpEmOW/4F11Ars+C7x+NPpx0j0w6nFe7EicKvZdYTJ/7OvTI6/mRBYOQp4Fpn2IMLQj/r1H8INZyF6HDSFCkht43QQkPovMEBx1IjM8g7d6pw7PQPEna0p12a/kAQob7m7kHaTVAob6pnKNPVnsxiOAnJTqaZd9bl1HI+XGEx/KPVLxjoqbtWnKi5uzKzrlbmnj6ZppzXnsxjOLWCh4afBBS2ppazIaNkMKf5AjRy9NRdK07UzM+gMxOuqA1Cx42jlvPa07YYTiJQ3o2mnA1XUUlTHmIc68+Mx7xCQ05g4lRWkdTh5FMmC/6r2WNw/K/D2dltJE2Zx9L2ZIiSJpnpc5M8beM0eGFQyJlwLbX0YVd7NnM46QN6Rgi5qJItae7pO0b862iEslaOOI4ayuituxacqpl//jVCb7H9hEgXwcr+CFX0oFYcFnWXY0bT8kWEEiGa9bU18N86Adzh/TTXefhOFMp36RzmdbeiPe3UjD53D/h3nLsg1LaxU1B5yQxqObM9VYesxB8ipLK1kJtfAP/4K6jlTLjxl1tS90zX9I3/hWCISUfi79/84g7LukuY1VR0OOKVrJE0Yz85B3Doo145J08EittTix1WtidL1DS51sIx69KPWg6jTRnKTd7stqM9FR3OiCenQtIMkNf3+40S004jf8J0S+uul/D3X9BUS9JSzl7OvCfnmzADQdk+Anqxoz11RcFybzUzIhwtdN5ld19JO/jbxx96lcOy7hJqmuGGBhxeNBOHbr4QdW//meamxupyrsnrSFPOgc8rBDfiFMvrTjCrqcvh5N5qZkTwn3wm+KC5EYk1AVkMkAjLuksoaW767APU3PkzNH64SrRrH70Dhx+ag33bfhRtNawuZ5dhx9CUc/ANOxmc32953QlmNTXHcKxHi1bty4Qg3FkXT9aVx+8RWl13gpJm7etPoOj3lyGScCrJhxvR+O5L8M2fgujubTQ3PeVs01k4M+nSh1rOYOvAk22puxHkGppjOCtGC/60yeActMBQ5cj4Ghh21F1u79+8EZFH5qL2mQU0pyWxA1WovmEc1j95n7iVbjrKSeDGX0lT6Yfr3Budhoyyre56kWvoOqWUY3YEIFsJcaNOo1Z68Xfsjg49tI/cLEY/CX7b9yheci3w6f8BKfYeJ7Nd29eX4tCsMxDTsOsoy3JK+IadKD6z6AR8l9+OoMKWVFbU3aymKYdjMQLsGyI4nAPek8ufdB1NaYNF3au+W4PIkusREU4V+aMHaa42YlVbEbv7Cmx84l6E65T3UWdRTjlEM9jfAbHc4DHiDKeEVXU3g+EYzoinJ9No37MvfKddQnPSREFr5Iw5mxr21D227mOUPjBN3JOOi6nPaooI3+v6/gvgbj4PB7b9aEk5lew1NN5NJ1tGnUdTqcutBa1114P8O7YsIkRQ04zVHsHBGaeCT9OWSFzPwfDPeUxM21H32s/fRe2Cq6jFhkDvoWj922fAJbnyy+IYyfly9d/QafkvqWU/XF4hih7+AMG8PJqTHCvqbkZTnOESP0SQ22oQUUIqDTVNX34r5N6wHAilZz37LR2bRmsr635w317UPHU36hZfL9osiXz/JQ5MG4utq16gOU2wOEZyOvQd3GKDE9vIKUCr2UtTOhvBirqb0TQVwxH0FFSNgoHDkHPs6dSyF97g0xN66h6rOwpuwRWoe+1x8PU1NJctfPVe5D9+i3jDPFZzmOayO0aJ5BUUwn9CepY+9F08G6Ehqd/mIFhRdzOaph2OJQdP+l/h//YWic/JQ7ng7FZxcOcORJ++CweuOQmRLetprrWQG+YHp52ITSsF56ajsRXUnHghuIC2TeuZ0Xs4uOPPokbmIfZu+UFhcZCMaHYZPBJ5Bl8gNIrvuPHIL2xaEptl3cmMU/TAteDfe1kI3A6JeXbB1x5F0Yq7cei2S9BQc5TmNsfIMUqkFVlvVOcONWbZdtIUmjKH2bonQ4smsxhOQrKNauZfOBPow+5tazX4QBCxsc2vkLKoOx+LYuvKRxG5+QLw+3aJeekisv4z+O+dih/efxuxWEzMM3uMCJLGkQq7rlby8I2bgq4jjmNyjFjUXUKPJvMYTk/Bk8H5fNh5qj2re/k69kCwo/416CWS1b3m4H7E5k1GxzcfBtdYT/8lzWzfgG5PzAH/6sOiafYYESSNA3a9PdB9kPhGAFmcVg/JjpFZzGjaGzBppLNwasl17UstC+nI/o2F3OcXADs2UstZxFY9idjqllcxzVDatfmSBlbBDTmRpjKbpA4nnzJZoEeTzHL10xcD7ZK/KsOKnRUt1803UveaI4cRfe0xhG+dBP6Ld2mu8yA32GMr7kXklgnY99FqmtuEkboXkzOEnhavclw5EPVjLqBG+vunVpJpNnM46QN6pki5qJKtV7OgpBS1P7mU5lhDwYCmx5OMlpOPRpGz/FfC6dpycFWb6b84nN1bUfzoHMRWPiDEmzHDdZcQl16wCL5NB/jn/BEFRUWmy0lQsu3StH0RIT2akXAY9c8vRN0bTxh//EmBQM/BaP27F5M2itZy1nz+T+S9uBD8/iqam3kEh4xB7aQbUd4nPtsbOe7EaQ/dciEiG76iOazwIfzLJSgf07Swq4QT+qcW5JqqMVziDxFS2VrQoxkIBlE45ddodfU8msOOvPOuVi2/WrmikTBiT92F3IeFmS2DnY0Q/urfCN5yHmr//SrN0XeMCCQEyLuA/e2c/J/dlNTZJPSWUwtWayo6HPFK1hjVzD15EoInNp3Dm8XfrR+CI06mVkvUyrlz7ZfgF00H/+9XaI47qF16M44svwXbvv6M5ugjOOwkcCXqG2hohQvlIe+63yP/HOVTVSf1TzXkmooOZ8STU2FGM/fyW8EVs9k2iSxq6gsoL92drJzh+jpEF89A+8VXARuUF/bJWML1aFj9AsofuBbRt/VfySS7DAUZLQwVOv1iFKQYYJ3WP5WQa6qeUsqReyuLEUGrZk5BIYpuWiberDYD7/chNEz/JWbuz/eBX/sRtdxNbOWDiH31HrW0HyM/i9ssoVzEfnoZNfShtZx6YK2py+Hk3spiRNCjGew1FLWTbyUfojn6CfYaBi6vgFqpOfj1J4guuAJ47yWa437IDfvYg7MR+dNd4o18rceoqtLcE0L+Tj3B3f0KWpcZWxlMT1/SCmtNzTGcU0aLruMvRuHU+dTSj6936jeVpXLF3n8NhcuuB7/xG9LSYl5W8cHLCN18DnatF+qvgW5kRa+g8YeZj1w+H6VdulNLHaf2TzlyDc0xnJNGi9xTL8S+8cauiu3uMZymlDmytwqNy29G7Ik7wUXCNDc74cKNaPfwLERefxyHqnbQ3OT4BWfLG6//sTy+dSm2X7MEXQZr32nVyf0zEbmGrlNKOSxGADlaNfv+fBZyTyOv8+jA50e34cprT5Lfrn3xIeTfeh58n/+d5nrgaDXwyjIU3HY+aj//QPUY5Z03VWxnPRw590Z0Ha7t/TY9pLN/KmHK4ViMAHL0aBZOnYetVy0C2mo7588dNxnB3ORvCe/ZtAGHfz8VtS8sFs4l40/Ve8gQOlvwibmIvvQgqvfvo5nN8RUUIdBzELXU4fodIx6/Niecmva+pBWzmoZjOCOeboVm5agx2Pfz3wk1STF2CO2Ur3Bztv6Dv8M350yEP3fuc5BOgSNvq7/5FPgFvwBfn3y1MH8/DRdPBo+Bf9ZD6H7MCY7pS3ZoOmIRITlGNBs+ehOH77te+RGw0nIEFrzaQiO2bQP4+6aDP6JvmToPofOUdUXd9UtRWNq02xBp3zVv/hX9Xrqb5iTBH0B0/l/RoWfzN0Kc0pdSYUZTnBYSP0SQ22oQUUIqDas1c0aPQ/1VwkHOUVhYhr63JX0nUl+PTU8vRvSuyZ6zGYSv2oK8RddgzVsviw8GEEj7dhkmxMkKh9vfexi4e95o4WwEp/SlVJjRNBXDEfQUVCtGNTufej5KlrwFX5sONKeJtR0G0pQwq337KXDL+ejy3rPgol68ZgZ+zzb0ffEucW3Mgzu2iHmtyyqAni1fTA30Gor8uY8rXvp3Ul9Sw4ymaYdzGn7h1DEy53GERp4iPlUi0XnoKNQfOYTap+5C7L5pwKHkQb+HQQ4fQKsl09D45rNobKiHj9weoDMBOQ77z5qOonkrxCeGshmxR0pTpITcNkI6Ndt3742iOctRctdKcPmtEOg+EJGGBgR+cw5C/3pZ+CL9oAdbDu6Bb+Vi+J+4A74Bx4EvEc402pSJx6HPZdeLz1saIZ19SQ9aNMWLJjTdjOLiYppSR/h+symW/IjSlJsOzT1rv0Thun+hdtUzwJH0rOyclVT0QO2os5F/6gS07VBGM9Vxel+SMKPJPIZT+mE9sNRsP0CIGybNAEacQnM8LCenAP6Lf4Wi8ZfGt5fWiNP7koQZTdfFcIpMnAluyAnU8LAS7qJZ4Ppof0wrm0jqcGSKZE26NclI679uEfZOmgOulbb7LR46EZxs76zH4D/hHJrhzr6klWSazRxO+oCeKVIuqmQ7RbP8pxPhX/AauBOatjryMA930kT4bngQ5f2ab9vs5r4koUfT0YsIacGM5o53XkXeXxYhtlf9KXgPZQIjT0b4ol+hXbeeNKcl2dCXlJBrqsZwiT9ESGVrwUmaFWPPQcmDbyM4kP2T6u7Hh/yLZ6P1TctVnU3C6DFSIxM1FR2OeCVrnKhJVpwKzHoQORfdCK61M/atdjpcp16I3LgM+Rdco6kDZktfSoZcU9HhjHhyKpyqWdCqCK0mXo362X9UfhbTI87I0+C//TmUHau86pmcbOpLcuSaqqeUcuTeymJEcJJmhRDwl9zzCtClD83xSITr1h/hi29y3XFXg7WmLoeTeyuLEcFpmmTlKd/cJ7HrzGngddy0dTXd+mHb1MXw/eZPyCsqduVxV4K1puYYzomjBcEKTRLXdT7/cgR+J8x27a3dUMTxDPoJMPthVI76idguRsiU426HpuYYzomjBcFKTa6oDaqvewgcWZQ0lCPmZQtcYQn2TLwJgZmLEVBYlkIrmXbcJazQNDZkUViMAHKcptm2vCP8k38D32W305wsoEtf+H//KjqePolmNCcbjrsSZjVNORyLEUCOUzV9x5yG6rnPAeOmgM/VvpBsJuEjizGdfhlqr1siroCsRDYddzlmNQ3HcEY8PdM121b2QmDCDDROmU9aXsxzC8GBx4oPAfgnTEdRSdP9SCvbUyKbNF2ziFAqWGuG132CQ3dPBcgqVplOmw6onfUIWrUv9467BsxoijNc4ocIclsNIkpIpeE2zWD/Y7BvxlJg0BjwBq/epRve58e2k6YA815CUYeOaW1PQjZomu4pegqqlUzRLOvdH4GZ98F31pU0J3Pgi9rCf8cKVF46A4GQ/v0Asvm4m9HMzKHZYRCH23LFH8Adczp4v/K+c06AJxdDjhmHw9c/BF9ZN5rrYReiw0lTpITcNkI2aZIRr8dxJ8F/1XwELppFcx1Iu04I/O5lBK6ah9LO3R3bnnLcpMkshpOQ7GzV5MZOQtWMZeB7DKW56YcnW0idOAHVMx4C17o0o9qT4CZN5jGcnoIrkemanQaPhG+20LmPVd4Q3k78U25FYPKvxZv4hExrTzM4TdOL4SyC7JXmv3IeMPJUmmM/nFCGwpkL4RvtDMf3UHA4+ZTJgmzV5C//LcKTbkCw73AiTnMtRhhwA/1GIvbrx5GbsKBPKrzjzpZkms0cTvqAnilSLqpkZ6tmMJSDvJ9egtbzXkDOuMn0X6yDyytE0W1Po/jO59FucHzzSS3lJHjHXRtmNLN6ESElrNIMNzZiwz/fQu9/Pgnsjm98wQpeKBs34HjsHXclyvs0bVzilLp7mnEN1Rgu8YcIqWwtZLNmMBRC/9PORv2sZUB5Jc1lg2/8lQj8cnEzZyM4pe6eZhxFhyNeyRpPM05hm3bw3fYcdp5+FTiz79l17o3Nl98D7mw2T7t4x4gtck1FhzPiyanwNJvwBQLoMnEqfPNW/nezSL1wvYcjOvth9Dx+LHyMnuf0jhFbWhx3+lcTcm9lMSJkuybXpgP8Ny4H11fPWvw+5P/vDfDNXtZiv7VMqnsi2aKpy+Hk3spiRPA0hb/C7NRw9R8QO2e6uKyDGv4uvRARHC1/wrSka4xkWt0lskVT0eEyYbQguEUzv7AVQmf/HPU3Kq+NGRo9DiUL/4ay0fE1IdNRTiN4mk0oOlwmjBYEt2mStTHzHnwXgRMnkKMl5vlKy5Az+TfImX6PaEuks5x68DSb0HVKKYfFCCDH0wQKitug+LoFKLr5ceEUsg/4m59Cq3OvQI6B1bO89mSLWU1TDsdiBJDjaTYRGvY/wink6yjtbPyendeebDGraTiGM+LpnmYTnmYT2aTpLSLkaVLL07RDU5zhEj9EkNtqEFFCKg1PUxueprs1TcVwBD0F1YqnyRZPky1mNE07nIeHh3ZEh5OmSAm5bQRPswlP0xxu0mQWw0lItqfZhKepjWzQZB7D6Sm4Ep5mE56mOZym6cVwHh42ktTh5FMmCzxNtniabLFLs5nDSR/QM0XKRZVsT1MbnmYT7tME/h80Rbo/37J4NwAAAABJRU5ErkJggg==;" vertex="1" parent="1">
          <mxGeometry x="608" y="2027" width="58" height="53.78" as="geometry" />
        </mxCell>
        <mxCell id="0VNToS_IOA-vj3WojO3x-10" value="Auth0" style="text;html=1;align=center;verticalAlign=middle;resizable=0;points=[];autosize=1;strokeColor=none;fillColor=none;" vertex="1" parent="1">
          <mxGeometry x="608" y="2080.78" width="50" height="30" as="geometry" />
        </mxCell>
        <mxCell id="0VNToS_IOA-vj3WojO3x-12" value="" style="shape=image;verticalLabelPosition=bottom;labelBackgroundColor=default;verticalAlign=top;aspect=fixed;imageAspect=0;image=data:image/png,iVBORw0KGgoAAAANSUhEUgAAAngAAAKQCAYAAAAMgAfVAAAAAXNSR0IArs4c6QAAAARnQU1BAACxjwv8YQUAAAAJcEhZcwAADsMAAA7DAcdvqGQAAP+lSURBVHhe7J0FeFTXEseHuBEnAgkkQCCQBHd3d5dCS4G6O3Wh+upAFSht0eLu7u4E10DcjWjfzu3ZNkQ2u3vnrs7vffvlzAXOo2Sz93/nzPynyt8qoBSpqalQpUoVEWnG09NTrDTDe/KelcF7Vg7vyXtWhiXtmZOTA6dPn4a7d+9CQkIC3Lt3r8zXxMREyM/PF3/CfHB0dIQaNWpIr5o1az6wrl69OgQHB4ODgwPY2tqKP6EZfi9VjrXtWa7AS0tLE6vK0fYvzHtqB+9ZObyndvCelcN7aodSexYXF8Pt27fh8uXLcOPGDbh58+a/X/EVHx8vfrd1ggIvNDQU6tWrB3Xq1JG+hoWFQd26dct8T6z9vaQN1rYnC7xS8J7awXtWDu+pHbxn5Zj7nnl5eRAdHQ1Xr16FS5cuwbVr1+D69euSsMvNzRW/i9GFatWq/Sv48Gv79u2hadOmULVqVfE7yoffn9phCXvqJPDwt5ZMG2Ls5eUlIs3wnmXhPXlPhPfkPSvDnPbMzMyE8+fPw6lTpyQxh8IO1yjyGOUJDAyE5s2b//vq0KHDA98/fs+XxVL31KoGr/SmJdFWkfKevCfCe/KepeE9K8dU97xz5w6cPHlSEnD4On78uHTkypgOWMMXHh4OLVq0kF7NmjWDBg0a/Pu95ve85e5pI74+QOmNKtpYF3jP/+A95cF7/gfvKQ/e8z8q2zM7Oxt27NgBH374IfTp0wd8fX2lhoDBgwfDe++9BytXrmRxZ4IUFRVJGdXff/8dnn32WekoF490J02aBHPmzIErV66I36k/pvD+1AZr25Nr8ErBe2oH71k5vKd2UO+J3ZXYVZmUlCS9sMsSvyYnJ0sv7MzMyMiA+/fvQ1ZWlnSkWFBQIF3TBH7Ienh4gJ2dnfQVC+BdXV3BxcVF6ojE2if8NYwxa+Lm5gZOTk7SC8WQj4+P9PL29pZixJT/PfHf8fDhw3Do0CE4duwYnDhxAgoLC8WvMpaEv7+/dJSLr44dO0oNHYi1foYglrCnLIGHf1TumXJpeE/T2xM73Ure/HDPkl9tbGykGx6CNzy88anhf8/K4T112xPFGhbnY5clHhHGxMQ88ELhZuqgAESh5+fnJxXLq7+i8MOv+MKbLlpl4AuzZ9og53t069Yt2Lt3Lxw8eBCOHDkiNUQw1gnatPTq1QtGjx4NXbt2lR5gNMGfS5VjjD31qsErGWurSHlP4+6JN73Y2FjJN0rtHYV7pKSk/PsVn9jxRqLObqgzHPo8teMNzN3dXfp7YEZD7eeEWQ5nZ2fp5oZvTHzhGjMbQUFB/2Y41F/L+2Cx1O+RNljTnvh+xbquCxcuwMWLF+HcuXOSsMP3qjWBWUG84daqVevfFx6Non0GrlEc6vM9Qm+5ffv2wfbt26WjV+xsZZjS4Gd23759paP4fv36lfv+4s8609yziurD8u/Sf1BblYmg0tT0f47wnsrvicdMausB9Vf0k8KMBgo6fMOYI5gRxJub2gQURSDWj6gzG3iDQ8FYEfxeMo898YEDDW3VBfv4FQUeUzn4/kexh6/atWtLPxdYRB8VFfVvZh2/JwiKZLWgw+NXczQIZoyHvb29VMOHQg9FH34em8pnCO9Zds8qqht/mQyetioTwc21gffUjsr2xF/HjAYep5w9e1YqnkUbArxBWit4rKUWfCEhIZIArF+/vvQVnz5LvvErgt+f2kG1Jx6v7tmzB3bt2iW98GGEoQdvwBEREdLPCAq7uLg48SsMI5/GjRvD0KFDYerUqdKDuDbw52flUO0pW+CVTiVWBO+pHSX3xIJwLGxG6wH8ik/fnNXQDcxuoOs7moGqneDxK8ZYBK+G35/aoe+eKCw2btwoibndu3dLDygMw1gGWH7Ts2dPmDhxIgwZMkTjqQp/fhpuT87glcJYe2IjAx5Nbd68WRJ0+MIsB6McaAgaGRkpZTjatm0LTZo0kcQgNo1ogt/zlYP1l/geXr9+vfTCNR4bMAxj2WBZwKhRo+Dhhx+Gdu3alREf/PlZOVR7ktTglaa882De80HwOmbkdu7cKb0wq4FKnDEuWPOHtUso9tQvjLFRRA2/5x9EvSdajeCx66pVq2Dr1q1WP0eUYawdPCmZMGGClNnDemmEPz8fRMk9OYNXCiX3xN+PGbo1a9ZIN0BrrpszJ/D4AWv6WrduDW3atJEyfugMj9c1YQ3veTRRRWsNFHVr1661ug5XhmEqB09FunfvDi+88IL0GVrZKQliDZ+fFUG1J3kNXmk1qsZa98RuVszOrVu3TroRYpaDMX8w04eDvdXjf1q2bCnZVZTEkt/zWE4wf/586WGFH1QYhtEWLIN58sknYcyYMdLJiDnf3xFT3pMzeKWg2BNr55YtWwbLly+X/LsY6wC7eDHLh3UnaCXQqlUr8SuVYw7vefwgmT17Nvz5559SBzfDmAuYbcf3OXpr4lfsrkfwK1p/YEZJ/XPgrBIdzk5O0lpTRhp/HnAqCnqH4s8a+oeqfURzc3PF72IqAv+9H3nkEZgyZYpkgVUabT+XEHP4/EQMvWcZgYfqT+75b2msYU80CcZZjCjqjh49Kq4y1gxOIujUqZP06tKli3S0W97TGmLK73msq/v5559hxYoVZjElgrFs8GcIbV/QAgYbpfDnDC061NNAAgICpEJ/fF+7q756uLtLZtGGBn9WUATivQG7yPErZrvRCQHXWKOKZtPoVarNz6qlggJ70KBB8MQTT0inIYg1aIaKoNyTM3il0GVP/GHdsGGDlNFA+wesR2KYisDpHDjnEcVejx49JMGnxtTe82iAu2TJEvj2228lix6GMRSYTVPbGqGvZcnpHRijgKvoQclcwcwfekGqDerRrB5fOLkFr6HLgjWApS5PPfWUJPgw26ot1qxDNO35gMBD5Yg/OLpsjk8oJX/Y1HuoscQ98akL649mzJghrRlGHzDj0LlzZ0ns4ZFuyWMKY73n09PTYd68efDll19KmQWGUQqcvIETN/CFgk79wsxcyfeptYM/pziNCF0Xzpw58+/EFzS4x1+zRLCp7c0334Rx48ZplX21Rh2iRtOe5c6iVSvCiv7P1WCsbSrR3PfEeaxbtmyRbn7oCG8tT1SMYcD3WqNGjSSzUHxhpq88s1Cl3vN4bITZOsxGc/0QQwlm3HDiAVoOoe8kvlDUVTbAntEMZtmxxhvrYVH4Yab90KFD0vxwSwEF/0svvQQjR47817VA7mcdQv35iZjinuUKvNKKUBPaKk1z3TMvLw8WLlwoZet4nBJjKLC7DG0F+vfvL70wq4FQv+fv3LkDH374oSTs8L3OMHLAm02HDh2kZiNsMsKaKm1vaox88HaOx7r79++XXBvQwcES7lt4XI8ZPRyLVt7nn6XrEE1o2lNjBk8btP0Lm9ueeFQ1Z84cqbgcC2IZxphg9gMHfGP9XrNmzSr14EM0vedR2H366acwd+5cFnaMXuDRGdZMtVKJuRbNm0Nz1Qszc4xpgbXiR44cgX379kmCD7N85dz2zQLMBL/77rvQrVs3ceUfLFWHaIOmPVnglQKffmbOnAm//fabRaW6GcsBmzX69u0rFSJjDZ+Dg4P4lQcp7z2PPzOfffYZfP/991Z3FItPxNh9idlRzCrhVzwGV6+dhDVGRWBXJNpioJdlZmamVKaB/57474hzo/Gp25IbrTCL3KtXL6krHLNzWCeljWEtY1rgexibAnGE4OrVq82yjhzfg++99570sItYmg6h2lMngYe/tWTaEGNt0++mvieKuVmzZsH06dNZ2DFmAwoU/LAbPHiwJPjQgBkp/Z5HUYIPLe+8845FZqTRJqNk5yXGaJmhfqGVhtr7TEnw3xk/l9QvzJ6o7TDUX7HeETOoWDiP3ydTBd8/WCaAog7rQvHflbE88Ah327Ztkmk5ij5Tfk+WBO/x+Ln3/vvvS5k9bTB1HaKGas9yBV7p89/Sm5ZEW0Vqqnvi0zfW133++edWM2YJ3xBoyovFz5jRwHZ09Vd8oUjAmyF+xawGekqhkChZFI3/zvhvilkMPM5G8OaG7f4IPiWqj/7Q+BMzG1gUjP/G+MLvHWY9cJ2k+pqclARJ4oXZEUZ38PuFN2MUevgVRQ7y119/wbRp0yS7BXMG33/4xI7NKPjCcXG1a9eWMkvG8DmTC/5MoOBDY3S8yeILv0eXLl2SCucNnWF1d3eHAQMGSMdfXbt2lf5tGesCP3uxiRCFHvpemsM9Ee9Nb7zxBrz66qvlNqaVxJq0DWK1R7TYFYv1R1hgbmlWJ3jDw+MTzGjgWBi0I0BDUBR1mMlAY0lTB9/g6kwHfn/w661bt+D27dvSV7wZsu9gxeAHXZ8+fSTxvWPHDnHVfMAHDDx+btu2rVSoj56B5bndWzKY8btw4YIk+NAiA9eHDx+WHp6owM+K4SNGwECVsMN/b3MUyowy4MM71uv9tXQpzJ0zx+QfvNEn8YsvvoDRo0eLK2WxBm1TEqsUeFh/8PTTT0sfmOYMHkfhPFRMT6vtB9AQ1BwEHAUoAvGYCwXflStXpBsh2gbg9xVvjoz5gMX5eByIg8jxhe9tpnzwIQctMfB1/Phx6SasbaYFswB43IrdiNidjQ99DFMZeBqzefNmyf8VpzWZsk0YZqB/+OEHKclRGkvXNqWRJfDwj8o9Uy6NknviuJhXXnlFsj0p5z/bpMEbHprh4s0PC5wxo1FZUbg1g1kOFH34wsYZFH5oDIp+UXhUzBgX/FBCg2c8SsaGEbUNDKMf+NmGYq+iTkm86aFp7NBhw8Bby89XhikPzORhcwZaK6E3rCmC5Ryvv/66VJpS8j5pqdqmIvSqwSsZa6tIjbknPm2sW7dOMkzEui9TB//OKOTw5oeiDq0ItP03YTSD7wmseUI3eBR76Ah/7NgxntpgAPB9jIalWCNY3tM1QwfWwuL7Gj/v8DMESzMYhhpsIlqwYIHkPIGj1UwNTIzg3w3LVRBL0zaIpj2rpKSk/F36D2qrMhFUmpr+zxFj7omD/x977DE4deqUuGKaoM9Z7969peJmNApVd0MyhgEbQbDOCYUfvlfwfYNf8X3G6Af+vOL7GUUddrthHSjDMJbJnj17JN/YRYsWmdznJmavP/74Y506wU1d26jRtOcDs2jV6JItws21wdB7YkfnRx99JJm5YkOFqYH+UWhaO2TIEBg+fPi/HY+M6YDvoatXr0rHXvjCAnes82M0g9m5Rx99FCZNmiRZlDAMYz1g1nj27NnSPGt0RTAV8AHz119/lWpPtcFUtU1pNO0pW+CVTiVWhCH3xCL7iRMnSjUppgQa0o4ZM0YSdFh/hOaqjHmBH1joCo9i78CBA1K9EwpBawePACdPniz93PHxK8Mw+LmIDRko9EzpXownCj/++KNkGK8JU9Q25aFpT4vK4GGt3VdffSWNMkHXeVMBC5wxm4HZOjc3N3GVsQTQqgWbODDDhwXHmzZtsiqjbHxvP/nkk1JXpjbj0xiGsT4OHjwonaatXbtWXDEueGKGxu9Y514RFpHBo6jBKw3FmXJpKtsTrTIeeugh6UZrCmBN3RNPPAEjR43irjUrAh8yMIOMmT18oUM8PmFZEpiJfvKpp+Bp1Qu9FhmGYbTh/PnzklfdH3/8Ia4YD9QTL7zwgiQ8S5r4qzEVbVMZmva0iAwe+vOMHz/e6B2yWFc3bNgwSdihpxfDIOpRQJjhw3FA5mrTgsewb731lpSN5kw0Y2rkFxRBalYOJKbnQGpmLmRk34es3HzVKw+y7ouvqjg955/rfxf/Ddl5BVBYVCzdEDNVv47k5hdCnmovxEZ133V3KXvzx896NycHcHWyB2cHe3BytAN3Z0dwUq2dVWtX1a95uTmDt7sLeKq++nq4gperE3hWdQY7W57fi5+JOBMba+Lw396YoI8sWqc1bNhQXPkHU9A22qBpT/IavNJqVI0Se+JoHZwd+8EHHxjVeBEnRbz44oswYcIEnf47GesDxR3W76Hg27hxo9Sta+pg5xnOsMUMOWbvGMbQZObkQXxaFsQmZ6peGRCbkgnxqldiejYkq8Qcfs1UiTZzwMvNCXyquoCflysE+XhADV93qFENv3pAdZ+q4KESgtYCWlbhLNnff/9dXDEOOPkHawWfeuopccW42oZqT7PN4OF/1DPPPAMbNmwQVwwPTpHAjAbWH+ETHcPoCr7XUeypZz+iXYupgM0S+PA0YsQIrq9jFCctKxfuJKbDrfg0uJOQBrdVr5vxqXA3KQMyzES8UeDu7ADBKsEXpBJ8dap7Q1iQr+rloxJ/HmBTjhiwBLCOGWvnlyxZIq4YB2zAmDNnjjQq0VjaBqHas4zAQ/Un9/y3NNR7olfZww8/LNXdGQOcj4nCrl+/fuWqb4bRF5y2gYXIq1atkgqTjQEexeLxCWakWdgx1ODR6bV7KXAtNhmuxCTB1XvJqnUKpGX/c0TKlI+Loz3Uq+Gjev0j+OriV9XLTSUILQW8t+Np2M6dO8UVw4MPtkuXLtVqjJ+p6yWzy+BhpmPq1KmQm5srrhgO9K37/PPPpVFhDKM0CQkJktjDDxus38MffCXBYwo8Lnn22WelNcPIJV0l5i7cSoDzN+OlV/SdRIhLtZ4uc6WxrVJFJfS8oVnd6tCodiA0qRsIgd7u4lfNFzyZwwYIHDVpDHC8Gd7r0fapMswmg4c3EMxI6bI5HpVWdP6LUO75yy+/wJtvvilZUxiS8PBwyTQZj6oYxhjgbF18qv3rr7+kgmBq8+7nVR+m7737rk5PjgyjCWx0WLLrNCzdew6SMwz/QG6tBHi5QfMSgg+zfDbYLWJm4GccHpe++uqr0vxbY4AnhSj0sMtWSW2jhnrPcmfRqhVhRf/najDW9oYgZ0+8hrVA+DIk6HyN/59o4Mo1doypgNnrHTt2SGJv8eLFsrpyO3bsCD/88ANERkaKKwxDC3a3rj0YDfO2Hoc7iaZTY2otYFNH+4Y1oX1kCLRVfcWuXnMCBQyWRKE5sTFo166dZNgcEBAgrjyIqemlkpQr8EorQk1oqzT13TMvL0+yZcD5doYCxdx7770Hr7/+ern+OAxjKuBTLk7W+GvpUvh93jyN6fqSoIv7jBkzpMkq2v5cmhMoKmJTMiAlM1fKJCVn5EhF/PjCGG0z7hcUQu79AsjKy5d+f7bqmibQAsPBzlZ6OTvYSXYXzk72kj2Gu4sTVHVxADfVuqrLP7Gvh4tkk4Edk3jN2ikqLoYtx67A3E3H4Mq9FHGVMSR4pBsV6g8dVGIPBV/9YF+zadw4efIkPP7440ZxHqhRowasXLkSWrZsKa78hynppdJozOBpg7Z/YX32TElJkYaUG9K8eNCgQdKNr2bNmuKK9YDeUJk59yE95x+/qHy8AeYVSDe+PGn937FgfmER3M//Z0QX3tTwQwLfj7hG8OaHRcGIo+pm6GhnB67ODuDuqno5O6m+Wo8VgKFAsYfHuH/++af0QFTRMS5+SKLZKNoMmTMoyrDL8tq9ZLil+novKQPuJmdAjOprfFq2+F2mgaO9Lfh5uEI1T1eo7l1VWGK4Q3W0yPCtCn6eVa3GH61YdcvZc+YGzN5wFM7dShBXGWOADyGdImpBj+Zh0Co82OTfg2iHNk/1IIsOGoauw8fRojj9YtSoUeLKP5iKXioPkxV4aFrcs2dPSbUbAlToP//8s9aDiM2JHJVAQ6sBvPnFp2RBUkY2JKRmQUJa1j+moNmY2bivesIu81ZQDMlAFI0/XZzAw9VR8n7CF2Y+vKs6Q6CP6qbnVRX8VTdEPy831Q3STvxJRhuwZg87cdExHo3AERzPg+IPx4uZG+iDdk4U6mPn5eV7SXA7Id2g71klsbOxgWA/dwgL9IGQAC8IDfRWffWGWv6e/z4oWRp459l1+jr8uPYQXL5rXJN6BqTP3T4qode7ZT2pfs+UE3vx8fGSZx1aSxkSzKqhJyg2o6kzbBYj8PC3lkwbYqzrmXJpytsTwRlxx44dk9ZKg12DaAth7sP/41MzJfuBq6oPy+uxKXA78R8vqSQLKHD2cXcGP083CFSJvUBvzHi4SdmPmn6eqhuj5d4EKcBuXLRfweMFc3mP301Kh6OXYuDs9Tg4rXpdj0sBC9FyOoFHaijyGgRXg/CafhCu+orHapaUAceM3rbjV+GndYdV32fLGutnrgSpHrD7tqoPfVrWl7z4TBU8Np0yZYp02mdI0EJq9uzZkvG7sfWS7Bq80puWRFtFqu2e+B+GZoOGEHfo97VgwQKzHCuGbu5nb2BGI06yIbh8LxnSrdhHCjvHQlQ3wloqsVfL30t61fT/5xjMlhtkTB6sjTt2+S4cib4DBy/e5mL8Sqjl5wFNagdC4zr4qg6hgV5mb4JbrFLw6w5Fw6w1h0zuiN2aQe+9Aa3DYUCbcKmm1NRAbYHeeYaehoEnIZhBxGNjY+klhCyDVx6UKUf8PTgV4tSpU+KKcqAC//7777X++xsTfMK9HJMExy7FwHHVTfCMStSx7YB22NvaSEde4UG+UE9yhFe9qvuAj4er+B2MscAmiF2nbsDOU9fg+NV7FnPcagyqOjtIgq9l/SBoGR4M9VXvc3O0xkCw7nfh9lMwd/NxaVYsYxrgZ2mPpnVgWIdIaKF6n5na8wRm89C3LivLcD6LERERkpNBUFCQuKIZSr2kxiwEHtbcYUPF+fPnxRVlwJQqFqAPGzZMXDFNMEO379xNOHIxBo5ejmGXd2J83Z1VN8Fq0o0QRV891TpUJQTN9aZoLsSlZsLGw5dg+8lrXGCvIJ6ujtBaiL02DYMhyNf0H2RLg53Pv6w7DMv3XYBCI84aZ8oS4ucJY7o2goFtG4Crk+lM0sDaPPSuU9cdGwK0U1u2bBk0bNhQXKkYsxJ4+Eflnikj2A2D4k7p9mf8BqxevRrq1q0rrpgOmKXDo9Y9p6/DrjM3uOjYCLg62kNEiB9EhQRAZKjqVcsPqnm5iV9l9AW7sHeoBN3aQ9Fw/PI9KCr7kcMoTG3Vw0vnRqGSPQYe65pTxy6OMvtiyW44cumuuMKYCpg5Hta+IYxWiT2clWsKoC7Bhsmnn35aOj41BCiy0Je0PBsVNVR6qSSV7alXDV7JWFtFWtGeOJUC06o4mkRJHnroIembbmpF5tEqUbfp6CXYeOwKJHDdicmBtX2NQvwlwRelejVUCUDu6NWOi3cS4a+dp2HD0SuS5xxjGuAw+44qode9WV1oF1ELnBzM4/289fgV+Gr5PohL4VFnpgY2A/VqXhcm9WkhlcKYAufOnYMhQ4bAtWvXxBVlQW0xf/58aaSpUnpJjbZ7VklJSfm79B/UVmUiqDQ1/Z8jFe2J17EDZu7cueIKPfj3mDlzptRSbSrg8eu6QxdVN75LcCNO+1QsY3zQ5LZRqD80D6sBTepWh8a1A8DFhI4ojE1BYZGUrVusEnYnr8eJq4ypgobNXRqFQg8h9pxNvBsd6/PmbT4Ov205IXlxMqZHi7Dq8Ejv5lK22Njg6eBzzz0ndbwaAhyMgKMkKyoBk6OXKkLTng/MolWjrcpEtE0llrfnu+++K814VQpU1DikvX379uKK8cAOMaypW7bnLOw/f5uPqSwE9C9rWKuaNOy7eT2V6KtT3SqnFuSobrwr9p6DP7ad5Ey0mYJWQz2b1oH+bcKhRb0gk65HRYPrj+fvgKNX7okrjKnRSvV5+OSgNtBU9dlobDCJNHXqVIMc2drZ2UmGyHhqWBo5eqkiNO0pW+CVTiVWROk9f/31V3jsscdERA8aF2/fvh3q168vrhgHtH9YvuccLN13jo8WrABb1U0xKsQfWmNxe4OaEBnqD/Z2tuJXLY+M7PuwZNcZWLDztGSWzVgGWJrQv1V9yRoDTZdNEXxGXn3gPHy7Yj83oZkwOAf3KZXQi1B9LhqTs2fPQr9+/SAmJkZcUQ7URDg7F6cGlURfvaQJTXsaJYO3fv16qakC6++UoGnTprBx40bJ585YoOnw/G0nYdne85Cbz/VH1gpmRVrUqw5twmtCqwbBULe6j/gV8wYzdgtU7+95qld2ruYZrox507xuIIzoFAXdm9YFB3vTe1hJyciBL//aAxuOXRFXGFOkW+Pa8NywdhDir/3xIzXJKSkwauRI2LFjh7iiHDjTfs6cOfDII4+IK0bI4FHU4JVG05ny1atXpU4Tbf9DdaVP376w9K+/wM3NON2PtxNSYe7G47D+yCUoKOLWfuZBArzdoLMY9I2eZaZe81QarLFbtf88/Lz+iEVMSGG0x9PNCQa3aQDDO0VATT/j3aQrApswPl60izPJJgw2YwxsEw7PDm0HPkYyTcbE0ttvvy1Nr1IaFHl4XIuNpIiuekkbNO1p0AxednY2tG3bVkqVKsH48eOlQcR4Bm5oElOz4JcNR2Dl/mj2bGK0wtHOViXyakjFyB2iapm8V9nu09fh6+X74FZCurjCWCNYmtchohaM795UGlBf4t5kdJLSsuHD+dthz7lb4gpjiqC9yuQ+LWBctyZGywrjFCsUXkrX5dna2koiD4cr6KKXtEXTnuQ1eKXVqBrcEwUYdpgowahRo6RvmKHFHdYg/bH1BMzffpqtIBhZ1Kzm8U9HY/MwyZLFVG6cdxLT4H9L9vBNkylDWA0fGN+tsTS31FTsg1S3IFi57xx8uWyfVErAmC44cu+1UZ2hfWQtccWwHDlyBHr27AkZGcqORkSR98cff0Dfvn211kvaokmDGSyDh/9xzz//vIhowW4VzNzhP6KhQGPi1fsvwHerDvCRAEMOOsV3b1pH8iprUNPPKGIvT/XAMnfjMZi35QTksSUFowGcDPNQ96YwsnOUyUw2iElKg3d/2wYnrsWKK4yp0q1xKLw6qhME+riLK4bjxo0bkshT2i/P3t4e/vzzT+jdu7e4UjGKZfAozn9Lc/DgQampoqCA/mnKGOLu0p1E+HTRLjjFPl+MAXikZzN4fli7cp/0lOKM6r393h9b2aeR0QkPV0cY07kRjOnaGLyqOourxgPtqfCE5Ye1h9k3z8RBT8anB7WRjm0NbdGTkpoKAwcMgAMHDogryuDs7CyNNWvXrp24UhZKDaZ4Bi8xMRE6duwozYijZty4cVJm0FDiDk02Z60+CIt2neHB6IxBGNwmHN57uAfYGEjc3c8vhB/XHJRKDtirkdEXvFmP7dIIJqgeTkxB6F2JSYI3f9sCV3gEpMnTKMQP3p3Yw+COA3l5edIc2yVLlogryuDu7g5r166FRo0aiStlUSSDpz67pTr/RTDDhrYo1HTv3l2yQsG0pyE4ez0O3p63hQvMGYPRv2U9+GhSL4M9zUbfToQ352yCG/GctWNowPnOD3VvAuN7NAV3IxuA48PLpwt3wupDF8UVxlSxt7WBKX1bSKPPcHqQocCGC5x8MWvWLHFFGapVqyaNZ61Tp065+olKg5U7i1atCEuLtfJiTalEPDqdNGmSiOiIioqC/fv3Q9WqVcUV5cC0/i/rDkujcThrxxiK3s3qwidTeoOtjWGGwqOn3XerDvIxFqMIeHT7cI9mMLZbY6NbA+HElc+X7OG6UjMAm3g+UT3khhl4vu0XX3wBr7/+uoiUoVatWtKRcPXqZSd9UGmwcgVeaUWoiYqU5q1bt6Bx48aQnk6b8cJ/jOPHj0NAQIC4ohx3EtLgtV83QvSdJHGFYZSnQ0RN+PapgWCneopVmqzcfJg2exPsPc8dsozy+Hu6SnVWA9o0MOooNMxWv/rzeohJzhRXGFMF7aTwPfNQz6YGK1VBMIv3zDPPiEgZmjVrBrt37y7j20uhwRCNGTxtKG9zTHP26NEDdu7cKa7Q4OrqKok7Q4wfQ8+vd+ZthQx26WcMCNaf/PTiMGkChtLgTe7Fn9bxCD3G4NQP8oEXhnWAtg1riiuGBy2u8DN+99mb4gpjyrQJD4IPH+4Bfl7Kn9ypwRp/rMtTkv79+8Pq1asf6CWQq8HU2L6vQqz/5f597W0/nJycxOo/vvvuO/jpp59ERAOqWZwti4pXSbDr6oc1h+DTxbvhfgGn8BnDgZ5QPz0/FNxdy/5MUbPxyCV48cf1kKa6yTGMoUnOyIX1hy/BmWux0DDEH7zcDN+I4ehgB31a1pfqBI9cioGyqQ7GlIhJyoB1hy9CWHVfqOmnfY2aHPAUMiIiApYuXSqu0HPlyhVISkqShJ4auRpMjU4CD5N9pc9/se23JNHR0TB69GgoLKQ1/f3+++9h5MiRIlKGzJw8eOmndbD64EXgn3XGkFTzcIHZLw9T/Om0qLgYvlyyB75deYAnrjBG547qpr1y33nIyy+AyNAAsDdgQT2Ct7PGdQKhWZ3qcODCLcjNY7N6UwYbZTYdvSTNv24ZHmyQY34UeEqLvKNHj0o9BWr7FDkarCRa1eCV3rQkJdOD+Ps6d+4Me/fuFVdoGDNmDCxatEhEyoAjbp79Ya10bMUwhsTJ3g7mqMRdRIi/uKIM2ffz4Y1fud6OMU0CvNzg5REdoGfzMHHFsMSnZsLzs9bBxRiuuTYHmtcNhM8m94FqqveNIUANgtZsSoFza9Ejb+jQoXprsNKQ1uChS7N6qC4VDRo0kNQt1t8pxbV7KfDMzDUQm8IFt4xhwQfQTx7tDX1a1hNXlAEfYJ5XPcCc5wcYxsTpFFULpo3tAoHehp9qgKPN3p67GXacviGuMKaMr4cLfPVYPykLawgWL14MY8eOFRE92GyBgyGCgoLElcoxiMDDWW4oxu7duyfFFDg6OsL58+clrxilOHoxBl76eT1kcjMFYwSeGtAKHhvQWkTKcPVeMjwzYw3EpXIzBWMeYJPR0wNbw5hujQ1mFaQGyxi++msvLNx1RlxhTBk71fvjuSFtYWIvZevz1cyfPx8mTJggInpCQkJg27Zt4OOjndGzJoEnq8kCtaH6/Bc9Y/AvRcny5cuhbdu2IqLnUPRteO6HtaqnNq67YAxP3xZh8NroLlBB5p2E8zfj4YnvVkFSRo64wjCmT0FRMRy4cBsOnb8FTerWMGgTBlpxtI8MAQ8XJ+keUTYFwpgSOBf+YPQdSEnPgTYNayr+QIATKLy9vWHTpk3iCi2YYDt79iwMHz5cOrbVREkNVh7lCrzc3FyN57/qGF/YwXHmzBmYMmWKZI9CxeTJk+G1114TET2HVW+IF35YD3ncKcsYgdoBXvDdUwPAwV65ovKTV+/B0zPWQEZOnrjCMOZFfFo2rNp/XvJCi6od8MB9SGmiQgOgkeq158wNNgA3A87fToDjl2OgU1So4mbarVu3lsTXrl27xBVabt68CdnZ2dLELqQyDVYRVVJSUv4u/Qd1GXSLxYDY3ovnxlSgmTF24+LMNiVAcff8D+vgfgFn7hjD4+rsAIumjYKaftr/nOnKwfO34cWf1vN7nLEY0Aft/Yd7QIABfdCQS3cSpfsFlziYByF+njDjmYEQbAArlVdffRW+/PJLEdGDfQ047lUTmPGrSADalLyIlI4rA7s+KMUdsnDhQsXE3Ykrd6VjWb7xMcYAmyqmq25SSoo7KTv9Ez/AMJbFoYsxMPLDhbD2YLS4YhjqB1eDP18bCQ2CDTsui9GPmwlp8MiXy+DczXhxRTlwpJmS9XhPPvkkXL58WUQVU5GOq5KamlqmwkBT0V5J8vPzoV69etJYMipefvllxRTxjdgUmKT6xqdl85EVYxwm9WoGzw9rLyJ6jl2+KzVUsLhjLJkeTWrDm+O7gXdVw9Xm4Vi/F35YC8eu0DUSMsqB9lOfT+kNnRvXFleUAXVQ7969FTuubd68uTSz1sHBQVx5EE1jzWRVI/7666+k4q5u3bowffp0EdGSmJoFT85YzeKOMRqNQv3h6cHKNQ2duhYLz83i7DRj+Ww7dR1GfbQA9p41nJ2Jm7MDzHhmkDQrmjF98HPwpZ83wJoDF8QVZUDhhaPGGjZsKK7QguNZ33rrLRGVRdOpq941eDk5OZIgi42NFVfkgwoYjZKpQYPXKV8th+g7bGDJGAcch7T4rTGK1YVcj02BRzk7zVgZWPLwULcm8Nyw9mBnaxg7lYLCInjnty2w6fhVcYUxZfA98tLwDvBQj6biijKgRVyTJk0gMZHeaxQbOvbs2QPt25c9/SnP1k52Dd7MmTNJxR0WEioh7nC27Gu/bGRxxxiVt8d3VUzcYXYau2VZ3DHWhurjHf7Yfgqe+m4VJKdni6vKguPUPpncB4a3VyZjw9CC75Evl+2DmasOiCvKgM2hmzdvBjs7O3GFDnQowXq8goICcUUzah1n+8Ybb5SxSdHUdoukp6fDqFGjJDsVCjDFuX79emkWGzU/rjkEqwxclMswJRnUur5iZsbp2fdh6jcr4HZiurjCMNbH3eRM2HTsMkSG+EOgt/JdtngD7dgoFLJy7sNZAxTzM/I5cTUW8vILoU0D5Y7YAwMDoWnTpoqMVk1ISJAmXZTO4mmytdNL4H3yySeSUqXi66+/hh49eoiIDqzP+GTRLmCfSsZY+Hu6wrdPDwRHe/qnusKiYnjpx3WqG0yCuMIw1kv2/QJYf+gS4K2taVh1rU+j9AX3R0NkFwd7yWiXMX2wTjlX9T5p21A5kVe/fn0pi7dz505xhQ50LMHTTg8PD3EFIC/vwZObku/7MgIP1Z8mZ2Q8X8aBu9g5QgH+Y8ydOxdsbWkNX+8kpsHT32M3IRtUMsbjy6n9oG4N7UbO6Mr0+dth68nrImIYBqcaHL18F27cS4a2EbUUNRJXg3NQnVUPcIcussgzB05fj1Nc5HXs2BEuXLggvSjBI1rsmh0yZIi4onnyWJmq1Mqeen744QfIzKQbyv/LL7+AvT2t6zS6jr/y8wbI4PmyjBHBGp22CnXc/bn1BKw4wKUHDFMeW05egwmfLYEbcaniirI83Ls5PD9EuQ55hpbft52Eb5fvExE9qKMwcYXz+anBWbg4o18bHhB4mL3TBJ71osCjAidgdOrUSUR0/LTmEFyKSRYRwxgerAN6cURHEdGy/9wt+HaFsgXDDGPu3IhPg0f+txSOXowRV5RlUp8W8OSAViJiTJ15W0/CL+sOi4gerJfDebXUvQVFRUXwzjvviKisbisZV1EFZVSduu0Wf6lkRm/evHnw4osvikg+J0+elNqKKTlzPU4yMy7C1hmGMRLfPzUAOjUKFREdcamZMPbjxZCaVXFanmGY/7CzsYE3xnSCEZ2ixBVlmbX6IPy68ZiIGFPntZEdYVx3Wh1SEuxX6NOnj4hoQF22Y8cOaNy4sUZbu3KNg9Sar6S4w2s//vijiOQzevRocnGXm1cA787byuKOMSqdImspIu7yC4rg1Z82sLhjGB0oLC6G6Qt3wddL90o1ekqDZuaP9momIsbU+XLZXli1X7sjT33AKRcvvfSSiGhAPYZWdZWV1JUr8Mr7Q6hCtZmJpi0ffvihWNHxteobhXPoGMZY4HicN8bS+zkiny/eBWdvcccsw+gD+uW9OXsT5Blg0suzQ9vDqI6RImJMGcwHfbRgJ+w8dU1coQedR6jr8VatWgU3b94UUflobf09a9YssZLP5MmTpRm2lJy+FgvL9ymnwhlGG6b2bQHVff5rYadi24mrsHy/siN3GMbSwekTj329ApIzcsQVZcAcybRxXWFkxwhxhTFl8NTv9dmb4fjlu+IKLY6OjlKJGyVYi4fjYjWhlcA7deoU7NtH03GC2cH33ntPRDQUFRfDp4t2SUqcYYxFqL8nTFDgaOZuUjp88Od2ETEMI4fTN+LhkS+Wws14ZTtsJZE3tiv0axEmrjCmjOS+8csGuKPQKWCrVq1gypQpIqIBO2o1DZzQWIOnBq1MqJg0aRIEBweLiIalu8/CxRgeRcYYl1dHdQIHO1rfLXx4eee3rZDJlj8MQ8adpAx45H/L4ILCJQ82NlXgw0m9oL2CnmsMHVjf/MzMNZCaSTOlqzQff/wx6SizjIwMWLdunYjKUmkNHnrerV69WkTyeeGFF8SKhpSMHPhRwVZnhtGGPs3rQruIWiKi45d1R+DENbqZzwzD/EOa6mb+xLcrJecFJbGztYHPp/aF8CBfcYUxZW4lpMPzP6yVmjap8fPzgzfeeENENGAWryIqPaJdsWIF5OTQ1Cv07NkToqJoW9VnrDoA6TxknTEizg528MKIDiKi49KdRJi7+biIGIahBs3wH1eJvEPRt8UVZXBzdoCZzwyCIB/l5+Qy8jlzIx6mz98BSjRdv/LKK1JNHhXotZecXL7vb6UCb8GCBWIln9dff12saLgemwJrDl4UEcMYh8f7t4IAL9oPbqwHeXveVigoKhZXGIZRgtz8Qnh+1jrYeUrZsX++nq4wQyXyPFzpbu6Mcqw/ehl+30L/gI1zZCn9hHFs7NKlS0X0IBpr8C5dugRHjx6V1nLBFuFu3bqJiIaZqw5CkQF8jRimIvxUH9qjuzQSER3osH7lLk9jYRhDkKd6oHr1l42w4bCyCYPQQG/49okB4Ehcq8sowwyVxth3TrMViT4899xz5drR6UtFx7Q2OLgWJ1eoXxijM7Knp2eFqlAfpk2bRvofFH0rAXad4UHrjHF5rF9LcHaknaV89V4yzNtyUkQMwxgCNETGrDk27SlJ07DqMH1ST7AlvB8yyoAJpDfnbIZbxB3XgYGB0rAHKg4cOACnT59+QMfhV5vSoksdFxQUwJ9//imt5eLu7k76H4N8v3I/26IwRqVmNQ8Y0p7W5woT0p8u3CndbBiGMSx4T/l08S7FRV7P5mHwsgJ1uww9WKf54o/rIYe46WLixIliJR88dV2+fLmI/tNxFdbgYettQgJNC/nUqVPBwcFBRPI5eikGDhpogDTDVMRTg9pIHXKUrDsUDcevctcswxgLtchbqbBxPs4/Hd2Jp12YA9fjUuGrv/aIiAZsOsXkFxXbtm0Tq/+o8O5E2Vzx8MMPixUNczbS1AUyjL7UD/KBXsQGphk5efDtyv0iYhjGWKDIm75gJ2w8cklcUYZXR3eGVvVriIgxZXCSECaXqEA/PMos3vHjx8s4ntiUNjXGGH8Ttt5S0KJFC1JrFKxPOkL4j8ww+vDskHZY3yAiGmatOgDJGcoYbDIMoxtYf4U1eVuPXxFX6METgP891g+Cq9Flchjl+N9fe6CYsDZswoQJYiUf7KY9ePCgtFbrunJr8FDcZWdniyvyeOyxx8SKhj+3nODaO8aoNA71h/YRISKiIfp2Iizby7OUGcaUwBmlb87dAnvP3hBX6PFwdYKvH+8PLsTNWgw9l+8mw+Zjl0UkHxxfFhJCdy9Rj5TVWIOH5sYU2NjYwMiRI0Ukn8S0LNh4TLmnKYbRhheGdVD9AImAAHwi/GTBDrb8YRgTBL0oX/l5o6JmyGFBvvDBxO5gQ3sowCjAb5uPS81wVIwaNUqs5LN79+5/s3dIGYGHaT5Ns8104aGHHpLsVqhYvPOMZADLMMaiZVh1yeaAktUHLsBZhWdiMgyjP+iT98IP6+G0gmMDsbN2Sp8WImJMFcziHbtMVyZG6Q985swZSE9PF1E5Am/Xrl0P/AY5UJ4v5xUUwvJ950TEMMbhkd60H8D4vv55wxERMQxjqtxX/aw+O3MNXLuXIq7Q88SgNtCtcaiIGFOF0hC7Y8eO/x6pyqWoqAj27/+vUa+MwFu/fr1YycPV1RW6dOkiIvnsOHkN0njmLGNEwmr4QLuIWiKiYcnOMxCXkiUihmFMGfREe37WGkhOp6lRLw02bn34SC+o5echrjCmyBaVHrmfXygiebi4uECbNm1EJB80PVbzgMArLCyEDRs2iEgeeK6MbcBU4DEWwxiTSb2akdbeZaluFnMVmHXIMIxyxCRnwlMzVkNmjjIJBzdnB/jqif7gZE93/2RoyVZ9dlM23vTq1Uus5HP27H8m3TZYI6d+Xbx4EZKSksQvyWP48OFiJZ/Y5Aw4eumuiBjG8AR4u0k1MpT8ufUEpGXdFxHDMObCpZhkePWXDYrVhNet7sOTLkyczUfpumkp6/Cio6P/1XQPZPDKc0LWB3t7e+jevbuI5IPZO+4wZIzJxO5NwZ5wQHhKZi7M33laRAzDmBuHLsbAh39sI+2oLMnIzlEwqHV9ETGmxuFLMVBENFKydevWZHV4mKSLjf2nGUgRgYfZOycnJxHJo1j107P2EF1BI8PoioerIwxp31BENMzdeFRK8zMMY76sO3IZflp7SET0vD62C4T40TlRMHRkqj6/L92hOfF0dHSE8PBwEclHfUz7r8DLyMiAw4cPi0gelMezxy/dhbvJmSJiGMMzpnMjcHGim6Ucm5IBS/dwRzjDWAI/bzgKaw9Gi4gWV9XnzpdP9ON6PBPl6MU7YiWfpk2bipV8ygg8tEfBJgu5YJqxT58+IpLP9pNXxYphDI+jnS2M6tJIRDT8tvG45KvFMIxlMH3hTrigkJcl1uO9NqqjiBhT4iihH16jRnT3mTICj+p4tlOnTuDm5iYieeDx7I7T10XEMIanR9M64OPuIiL5JGfkwOpDyjztMwxjHPIKiuCln9YrZp8yrGMk9GleV0SMqXDiaqykUyignNmvmMDr3bu3WMnnzPU4SEhT5geGYbRhRCe6Hzpk8c7T0s2AYRjLIi41C174YZ1kXq4Eb47vJnXzM6ZDTl4B3EumGQxBKfCwkxZHlkkC7+7du9IFCnr06CFW8tnJx7OMEakd4AVN6tKNJcu5nw9/7fnPo4hhGMsCRw5+smCniGhxd3GEDyf24Hm1JsaVGJrJJkFBQVKzBQW5ubmQkJDwj8Cjyt7hX65Zs2YikgdmPbefvCYihjE8IztFkhobr9h3HtJ5GgvDWDSrD12ERTuUsUBqFR4MozvTniow8rh6l6aTFvsXIiMjRSSfmJiYfwReydllcujXrx/Y2tJ4hV2KSZQcwxnGGDja20L/1nRt6wWFRTB/xykRMQxjyXy1bB8cu6yMOf9zQ9tDaABbp5gKV+8mi5V8atasKVbyuXPnDtikpqbCwYMHxSV5UI7bOHj+llgxjOHp0zwM3F1pvByRTUcv88xZhrESCouL4Y3ZGxVpunB2tIdPJ/cBe9t/S+gZI3LlHp3ACw4OFiv5XLlyBWzwrBZHlFFAWX93KJrOX4ZhdGU4YXMFlhv8se2kiBiGsQaSMnLhrd+2QHEx/aiL8OBqMLVvCxExxuRuUgbZNBNKgXfv3j2wOXnyJIn/nbe3N9StS9PGfT+/EE5d+2fUBsMYmno1fKBR7QARyefY5Ri4QpjGZxjGPMBxZrM3HBERLZP7tYTIWn4iYowFepqmZuWKSB6UAg+bZ22OHTsmQnmg/x0VJ6/eYyNYxmgM6xAhVjSs2MtTKxjGWvl5/VE4qhJ61Nja2MB7E7qDneorY1wS02jKb7CTlgpJ4J04cUKE8mjTpo1Yyedw9G2xYhjDYmtTBXo2DxORfFIycmAbd4MzjNVS9PffMG3uJkhSwNM1LMgXHulFN+KK0Y8EExR4sbGxYHP8+HERyqN169ZiJR+uv2OMRbsGNUknV6w5GA0FRcUiYhjGGsF6vDd/26xIPd5jA1pD3UBvETHGID6VRuAFBNCVBmEDrQ2m8Sig8r9Ly8qFy0S+MgyjK31a1hMr+eAIm+X7+HiWYRiAI5fuwrzNNAmVkjjY2cJb47qyAbIRSSASeOglbEN05J6VlfXfqDI5hIeHg7u7u4jkcf5mgurGKAKGMSDofde5cW0Ryedw9B24k5ghIoZhrJ0f1h6GC7cSRERH07DqMLIjnUkuoxsZOXQG9q6urmIlD2yeJRF47dq1Eyv5nLsZJ1YMY1i6q8Sdm7ODiOTDzRUMw5QE/fHembdFcoqg5rlh7XlWrZHIvp8vVvLx8vISK/mQCDzKBouzN1jgMcahT6v6YiUfLKjeefqGiBiGYf7hWmwqzFx1QER0uDo5wOujOouIMSRZuXQCz8PDQ6zkQyLwmjRpIlbyQLPAcwqkrxmmMjxdHaFNQ7oxMRuPXpKe1hmGYUqzcOdpOHie3i2ia5Pa0CmqlogYQ0GZwfP0pBtDR1aDR0FMYhqkZd0XEcMYjt7Nw6RiZSo2HLkkVgzDMA+Cdebv/7kN0rPp73evje4EjoSfZUzlUAo8qn4GRLbAq169OlStWlVE8jh3M16sGMaw9GhG5313IzYFou9wJzjDMBUTn5YNXyzeLSI6gnw9YWJP9sYzJFmEAs+kjmgbNW4sVvK5cIsFHmN43J0doEndQBHJZ9PRy2LFMAxTMetVnxW7T18XER2T+7aEIB+axAtTOdl5BWIlH7RKoUK+wIuiG8rO8zoZY9C5USjYEx1pYB3phqN8PMswjHZ8vGgXZBLabCBODnbwwvAOImKUhtLAukoVOkND2QKvYcOGYiWfq7EpYsUwhoPS+w67wNn7jmEYbUlIy4ZZqw+KiI4ezepCxwhuuDAEaGpPBZXRMSJ7p4gImsHsWGyalJ4jIoYxDNhY0aYBXffsZs7eMQyjI3/tOQsnr94TER0vjeggzddmlOVvSxV49evTeIdd5+wdYwRa1a9BZm5cWFQMm45fERHDMIx24Anfh/O3Q35BkbhCQ2igNwxvT5OEYSrmb0s8ovX39yfroMXOQ4YxNF0Ij2fxCTw5I1dEDMMw2nMjLg3mbDwqIjqeGNQGXAkn9DBloZTlJpPBCwujs5bgDB5jaPDkolNUiIjks+cMfTccwzDWw9zNx8mTHd5VneGRHmyboiSUGTyTEXghIXQ3x2v3uIOWMSwNa/qBnxedlcAuHk3GMIwMCoqK4fMl9N54D6kEnp8nzRB7piyUXbQWKfBuJqSLFcMYhvaEHWZXYpLgThJ3zzIMI49DF2NgK3Etr7OjPTw1sLWIGGqcHOgmh+Tn05kmyxJ4tWrR3CCxOD0hLUtEDGMYWoUHi5V8dp/h7B3DMDR8tXwf5BCa5yKD2jaEsBo+ImIocbS3Eyv55ObS1XHLEng1a9LYSySmZ0ERYYqTYSrD2cEOomoHiEg+O09dEyuGYRh5xKVkwVzihgsbmyrw1MA2ImIocXawFyv55OTQ2cWZRAYvLpmzd4xhaVmvhuSBR0FiWhZE30kUEcMwjHz+2HYKbsWniogGdA1oFOovIoYKR8IjWpMReEFBQWIlj9gUrl1iDEtrwuNZbK7gBDTDMJTkFxbBV0v3iogGtFh7vD/X4lHjRHhEaxICD/3vXF1punJikzPFimEMQ5uGdA0WB87fEiuGYRg69py7BYej74iIhvaRtaApYXkKg00WFnZES9lBG5fKAo8xHL4eLlA70FtE8igqLoZjV+6KiGEYhpZvlu8jteFAnuBaPFIs7ogWp1hQcY8zeIwBaRceLB1VUHD2Rjxk5tK1tTMMw5TkYkwSbDhCO+O6dYNgaUwjQ4OrI92kEJMQeL6+vmIln4T0bLFiGOVpSVh/dyT6tlgxDMMow8w1B+F+fqGIaJjar5VYMXJxd3EUK/lkZND1JOifwQugO8NPzaRTrAxTGU3qBIqVfA4R18cwDMOUBm1TFu04JSIaWtYPgmaEn4XWjKebs1jJJyWFblSd/hk8HxrDxL//BkjLyhMRwyiLj7szBFXzFJE8snLz4cyNeBExDMMox+zNxyE1k84EF5nYq5lYMXLwdHMSK3lkZ2dDcXGxiORj9CPazJz7UEj4H8QwmmhWpzpZ/d3xyzH83mUYxiBkqx4o5287ISIaOjeqzdMtCPBwpRF4lNk7Ozs7/QVetWrVxEoe6dn3xYphlKdRbbojiSMXY8SKYRhGeRbuPAPJGXQlTfiwO4mzeLLxcKU5oqUUeF5eXsbP4KVlscBjDEeTunQC79gVFngMwxiO3PxCmLf5mIho6NWiHgT5VBURow/urjRNFsnJyWIlHx8fHxMQeNm0NQUMUxGO9rZQP5gm84z1d1fv0j1tMQzDaMNfe85BYirdeE87WxsY372piBh98CQ6oqUUeN7e3voLPPzDFHAGjzEUjUL8yebPnr0eB0XYIcQwDGNA8gqKYM4m2ize4HYNwN2ZzsvN2jDFGjxZGTwXFxexkgfX4DGGgrL+7vT1e2LFMAxjWFbsvwDxhBOgXJwcYEi7hiJidAHn0LoTCbykpCSxkg+eshpd4OXmFYgVwyhLRAjd9JWTV2PFimEYxrDkFxbB/G0nRUTD2G6NwdaGyGLAigj0dhMr+cTH09lu6X1EW6VKFbC3pxmuez+fBR5jGBrUpKm/KywqhjM34kTEMAxjeJbtPU/qixfo4w6do0JFxGiLvxedwLtzh844X2+BRyXuEOrxKwxTHmhEGeDtLiJ5XI5JkrrZGIZhjAV+Bi3eeVpENIzr3kSsGG3x9zRNgaf3Ea2bG91/EAs8xhA0rFmNzOD4zHU+nmUYxvgs3n0Gsu/ni0g+zcNqQO0ALxEx2uBHmMG7efOmWMmnevXqLPAY66BhTT+xkk/0rQSxYhiGMR7p2XmwYu85EckHH4KHdYgQEaMNfp6uYiWPoqIiUpsUDw8P/QQeVYMFkss1eIwBaFiLrsHi3C2eP8swjGkwf/spqS6YigFtwsGRyE7KGvAjOqKNjaU9GQoICNBP4Lm60ihWhDN4jCFoUIumwSInrwBuxqWJiGEYxrjEp2XDzlPXRCQfTzdn6N6ktoiYyqhGJPDu3aOz3nJ0dNS/Bo8FHmNOeLo6QoAXXYMFGxwzDGNKLNx+SqxoGNoxUqyYygj0phnzRtlgERgYKLmd6CXwHBzoHK/zCljgMcoSVt2HrMGC6+8YhjE1Tl6Pg/M36UpHWtQL4vm0WlDV2QG8qjqLSB4xMXSzzVHgIXoJPFSGVBRzNoRRmDoqgUfFxdss8BiGMT0W7aDL4uEtvn/rcBExFVGzmodYyYcyg4cdtIheAo8S1neM0lAKvPOcwWMYxgTZcuIapBAaH/dpVV+smIqo6ecpVvK5cuWKWMmnRo0a0lejZ/AYRmnqVPcWK3nkFxTBjfhUETEMw5gOOL5s/aFoEcknNMALImvR2UtZIsGEGbxLly6JlXxkHdEyjDkRGkAj8G6pxF1RMaecGYYxTVbsO096Kta/NWfxNBFEJPD+Vn3Trl69KiL5mM4Rrep/DKMUvh4uZEWwV+/RmVAyDMNQcyM+DU5cuSsi+fRoVhds+MCuQqgEHnrgodExFbVr/2Nzw0e0jEUTFkiTvUOux6aIFcMwjGmych/dZAv0eIsMoTOJtzSCfWkEHmX2DgkJCZG+cpMFY9HUJhR41ziDxzCMibPt5HXS+bTdmtQRK6Ykjva24EM0puzaNTqjan9/fwgKCgJPT089M3g2XLrHmAfBlF1OLPAYhjFx7hcUws5T10Ukn+5NWeCVR+0AL7AhOs2kFHh169YVK26yYCyc4Go0Ai83rwDuJWWKiGEYxnTZcPiiWMkHH5JD/ekelC0FNNCn4vLly2Ilnzp1/hPkKD91PiTt2bMnbNmyRUTyGP/JYjh/O1FEDEPL2g8nkGTxLt1JhNEfLxYRwzCMZmyrVAEfDxfw93CFap6u0lB6X9Xax90FXBztwcXJHpwdHcDN2QFcVWtbDd0MOXmFUFhUDJk5eVBUXAzZufmQm18I6Vm5kIqvzFxIz74PaaoXxolp2bDivYfAl+gI8YvFu2HhrjMiYpDnh7SFSX1aiEgeTZs2hVOnaIyqP/jgA3j33XeltV4Cr2PHjrBnzx4RyePR/y2DE9diRcQwdNjZ2MChGU+Cna38RPXW41fg1V83iYhhGOYfUJfV8veE+jV8ITTQW6r7DfH3Ul3zAgd7W/G7DA/Wt1P1Q+45cwOe+2GdiBhkxtMDoGNUqIj0p1gl2HH8K1UX7fz582H8+PHSWq87X24unVs2FioyjBIE+bqTiDskJjFdrBiGsWac7O2gbXgQPN6vJcx6ZhDs/HIqrHx/Anw2tS88PqA19GweBmFBvkYVdwil2UXzejWkB2bmP6ga+G7dukVqkVKyBk+vDF7Dhg3h/PnzIpLHCz+shV1nboqIYejoFFULvn96kIjk8f7v22DVQTqXeEPgaGcL1X2rgm9VF+l4CI+G8IjIw9VJOhaysakCbk6OUAW/qmKsMywsLIbsvHzVB04xZObmSUdCscmZEJuSCXeTM6Svmbl0HXoMYw74ujtDh4gQ6BgVAm0b1gQXJwfxK9bDhE+XwFke1Sjh7GAH+797gqTJYt26dTBw4EARyScpKQl8fP6pD9RL4KHHyo0bN0Qkj9d/2QibT9B6wDAMMr5rY3h1dCcRyePRL5fBiaumWUqA9TwNa1aDOqonSjwWwskdNf09INDbXRJx1OC8ywu34uHcjTg4dzMezqpe6dl54lcZxjLwruoMA1rVh/5twqF+cDVx1Xr5fPEuWLTrrIism6hafvDntNEiksfnn38Ob7zxhojk4eXlBSkp//m16iXw0GclLi5ORPJ4b95WWH2IruOHYdS8PLwDTOjZVETy6P7abEjOoCtN0BcsxA4P8oVGtQOgYS1/6YUzI5UQctqCtT4341Jg1+nrsP3kNTjHT/mMmYKNEZ2iQmBQu4bQIbIW2NtxCZGatQej4Z3ft4nIuhnStgG8/3APEcljwoQJUt0cBR06dIC9e/eKSE+B5+bmBpmZNJYRnyzYCX/tpXPeZhg1/5vaR6qHkQseU3Z86RcRGRa84dQL9oVW9WpAi/rB0KROIFR1cRS/aprEJmdIQg8bU07fiBdXGcZ0sbe1gYGt68PDvZtLWXCmLFdikmDk9EUism5eHt4eJvRsJiJ5NGrUCM6epcmMPv744/DTTz+JSM8mi/v374uVfIxdiMpYLgHeVcVKHnEphvW/83R1hP4t68Hnk3vDji+nwKI3x8CLIzpK9T+mLu6QQB93eKhHU/j99VGw4I1R0Kd5XY0WEAxjLBzsbOGhbo1h3fSJ8O7EHizuNED1eWoJ1K3uK1bywOYKqn4GBGfQpqWlQWpqqvRVL4FXWFgoVvJxtLcTK4ahJdCLSOClKi/wgnyqwiM9m8Lcl4fB9v9NgY9V4q63SuRhQ4Q5ExHiL3UXrvlwAozv2kgqTmYYU6Bdw2BY8vZYeGVUJ/An+qywZPDh0t3Z+ppLyqN+MI3Aw14GtEmhIjw8XPpaRTR/6N33nJ9P00nnxB/4jALgk7m3h4uI5KFUBi/A2w0e7tEE5r8xCtZOfwReGN4BmoXVAFsLtCOo4esBr47uDOunPwyD24RL3mEMYwxCAzzhx2cHww/PDZHqVxntwS58awc/t73dae4tlNk7RC3w1Oh9J6HywjOHIyfG/AjwciObExiXkiVW8nFVPQEPb98Q5r06AjZ8/Ih09BoZ4k/qWWXK4AfjB4/0hF9fHCbNcmQYQ4EPFWO7RMGiN8dC24ia4iqjC2idZO00CKLrqD53jq7/AK1R/Pz8RPQPegs8PN+lwNyPoBjTxJ9oRA9CkcHDtvr3HuoGWz97FN6Z0F1qlqASoOYIGqf+9c44mDa6s2TzwjBKgj523z89EF4f04VPjWSQlkVXf2+uNFR9llNx7NgxsZJP/fr1xQqdDf7pndVb4CUnJ4uVPDzdnMWKYehAU18q0NxXH1C4YMZg9QcPSZ5JQztEsJgpAU4ZGd21kXREXSeQs3mMMjSpHQBL3h4HHSJDxBVGH4qK/4aCIrp6MXMlvCZdBu/w4cNiJZ+Sx7Oya/DQLZkCT87gMQrgXZVO4MWn6XZEW8OnqtRGv+nTSVLGgDvzNIMjf/58Y7TUOcwwlGAH988vDiV94LNWCgnHaZkz4URHtCmpqRAbS2ee36BBA+mrOnuHGF/gVWWBx9DjVZUuM5yUkSNWmsFj2E8f7QVrPpooeSS5c32p1mBmc/qjveHpga3FFYaRx+TezeGTKX3YqYGI+/l07hnmCk43qeblJiJ5nDh+XKxoUAs8dfYOMfoRra+7q2TmyjCUUD2xZ+XmQ15BxU+uaoPURdNGS8ewfVvVt8guWEOAHwNT+7eCDyZ0Z988RhZPDWgFzw5tZ9V1rtTkF7DAi6hJV3934sQJsZIPirrIyEgR/Yfed6KEBJpxRDgKxpfIzoJh1HgRHdGmZpWfvcOHkr4twmDlB+Pho0m9oAFh4a21M7h9Q/hscm+wY6HM6MGkXs3gsQGcCaamijT4yrqhrL+jFHihoaHg4eEhov/Q+xP09u3bYiWf6uyQzRBDlcFLzXywawyFHdaKrXh/PHw6pQ8E+XqKX2EowRFzHz7cnf3yGJ0Y0zkKnhvaXkQMJX/rPtXU4ogKDRAr+VA2WDRu3FisHqzBw49Pvb5rnTt3hl27dolIHtNmb4KNx66IiGHks/ajCRBcTb74wgH6L/y4Xlqj8/0LwzpAvSAaF3Omcv7YcgK+XrFfRAxTMfjzOfOZwWBj4k8F2ffzISEtG3LzCiA7Nx+y7udBzv0CyC+suBTEzdlBKv2o6uwodZ9XdXUEDxfVy81ZMnU3BIlpWdDzjd9EZJ1s/2IySfIgIyOj3Iybvnz66afwxhtviOg/9BZ4NWvWhFu3bolIHt+pPsB/U32QMwwV+755XPpQlMuKvedg15nr8OTAttCAMD3PaM/ni3fBol00w7gZyyTY1x3mTxttMr6qON7wRmwqXL+XDDfjU+FWQhokpmdLpum5xM0Kro72UvE/vlB8BHhVBT8vN/BXvXBdN8hHEoZySUxVCbxp1ivwgqu5w9qPHhaRPPbs2SMlyajYtGkT9O7dW0T/obfAw6I+nElrQ1Ans3jnafhsyR4RMYw8HO1t4fCMp0Qkj5ikdAjypXvSYnSnqLgYnvhmJRy9ck9cYZj/cLK3gz9fHwlhRsqsFxf/DeduxsPJK3fh9PU4OHMjFpIyaCY9UfDOuK4wvFPZAnxdSVCJ1l7T5onI+hjQqp7U6U/Bd999By+88IKI5IM9EdWqlU1A6K3O8Jw3MTFRRPKooXr6YhgqfAk9ryxN3BWrfm6TM3Lg6r1kOK+6KR29GAMHz9+G7Seuwt6zN6X47I04uHI3GdKyTOMmhUdTn6g+WH3c2RSdKctzQ9oaXNzlFRTC1uNX4N3ftkD312bDxC+WwjcrD8CO09dNStwhLk405uo5Vm6T0qh2oFjJZ/9+urITPE0tT9whemfwkCNHjkDLli1FpD834lJh6PvzRcQw8mgU4gd/vDFaRNZHfkGR6mcqBW4npMFN1c8Wvu4kpkF8WrZK3OVCYbH2bvTODnYqkesu1TPizNwI1QtH9RhjhvS+czfhmZlrRcQwAI1D/eG3V0carO4OH4pW778Am45dhozcfHHVtJnx9ADoGBUqIv25cCsBxn26RETWx6I3x5CV6QQEBEB8fLyI5DFkyBBYuXKliB5ElsBbunQpjBgxQkT6g8WlbZ/9EYpKdH8wjL50iKgJM58dLCLLBn9kbqrEHB4R4c0Hv16KSVJ0pBB2EjerGwjdmtZVvWqDv5fhuuDf/30brDoYLSLGmsHmgsVvjZEmoSjNmetxMG/zMdhx+oa4Yj7MeWmYNPtZLkcvxcDUb8oXEpYOlgHs/eYxydZNLji9onr16iKSz/vvvw/vvfeeiB5EVgHd1atXxUoe+IMa4E3jDs0wWHRsyWDR9rI9Z6Xu856vz4ahHyyAd1TCZ/Hus3BO9ZSt9LxIfBDDerjP/9oDfd+cB8/NXCN9+BuCl0Z2hGrsm8momNC9seLi7tKdRJj61XLpCNYcxR3i4iS/2QzJuW8eGUsliArxIxF3yMGDB8WKhubNm4tVWUxC4CG1/NhPjKGB6gPNVMAM96Ho2/C/JXtg4Nu/w5D35sP0hbskayFj1/sU/w2w59wt6cl+/CeLFRd6OP7tefY5s3rcnR3g4V4V39jkghYmXyzeDeM+WWL2zT1uVDV4qn8Ta4Wy/s5sBN7ly5fFSj7B1bhTkaEB55qaO1jEvfPUNXhz9ibo+vKv8MR3q2HBztNwJylD/A7T4/ztREnovfPbFqmRQyn6ta4v1Vky1suk3s3BXSFLFMzajf90CSzcdcYiyoaoPg9xbKO1EklocEzZYBEcHAyBgRWLT1k1eL6+vmSdtH9uPQlfLd8nIobRn6l9W8DTg9uKyHxAO5CDF27D5qOXYcep65Btxk/Mnm5OMP2RntAhMkRcoeXk1Xsw6cvlImKsCeymXvfRw+CswIPcTtXP3ZtzN8v2qsPxm/Vq+ECgV1XJjw5HJ6JBMWagsZM9MycP0rPvQ3xqFly7lyzVzSrVtHHguydIRJ61mo5j/862L6ZIPoNyKSgoACcnJyjWodFNE8OHD4dly5aJqCyyBB6SnZ0NLi7ya2L2nLkBz/2wTkQMoz/PD2kLk/q0EJHpczshVSXqrsCqAxfgbnKmuGr+4AfjkwNaw9T+rcQVWp74diUcumiY2j/GdHhM9QD3lAIPcGhq/vHCXXpl7cKDfKFNg2BoFR4MDWr6qQSdbmIAH+5OXY2VrFdW7r8AeRqmWuiCq7MD7P/mcRHJ48c1h+DnDUdFZD2EVfeGpe+OF5E8jh49Cq1a0X0eop/exIkTJds69CZWo45luxRfv35drOQREsA1eAwNLo6mX4OHH+joPTflq+Uw6N35MGvtYYsSdwjW5+F/F06qUYLH+/NAeWvDVvXUQGHaW5r1hy7qLO5wssHTA1vDuukTYPHbY+GF4R2gXUQtncUdgl6P2On6xtgusPqjCdBRtQ8FAZ6uYiWfjJwH53JbCy0IOpDVUNfftW37z4NOSXGHqGPZAo+q0aKGrwc4GmimHmPZUBl7KkFGTp5UjjDonT/g5V82wjErmM6AYwh/WntIRHQ0Dasu2bUw1kP3xvS2PGiB8sH8HVqLuzqBXvDpo71g1QcTpOx0kC9tcgLHi339ZH/opvpvlQseD1OBx8nWSLMw0xR4eNTbuHFjKVtXEbIF3pUrV8RKHvgEU9Ofs3iMfEyxyQKPYXGmap9pv0m1pqaYrUO7Intb2R8J5fLT+qOwVgH/ujFdGosVYw0Mat9QrGjAAfov/bRO46B/NZiAeHZQG1jy9jjo26q+dM9SCrTkeGVUB8lzUg7+nizw5NK0Dp1n3a5du8RKPtg96+DgUCZ7VxLZ79DoaLoP7ToBXmLFMPrj6GAnVsbn5JV78NysNZK1CQ7MNwWrAT9PVxiuulG+Pa4L/PbKcNjy6SNSIfaRmU/B0VlPw6mfnoWTPz4L27+YDEvfHguznhkEr43sCMPaNYDIWn5gp+eNDY/AcAQaJV2b1GZfPCsBrVGwxo2ST1TvSW2shqqq/r9/fnEoTO7XUmqWMATVfTygcW153Zt+lAJPJYatjdAAT/AlOua+ceMGxMXFiUg+6uPZ8lBn9WS/U8+ePStW8gk1gCM5Y/kY6gNYEzjP9anvVsGkr5bDnrO3pHo0Y9NDJYZwKPumTyfBOxO6w4hOUdC0bnXw86paJuuJD4U+7i7SjM/2kbVgXPcm8O7EHjB/2mjY8/VUmPnMQHioW2MI0OEI6H5BIbw1d7NW2RJtwUzHkHa0WR3GNOnauLaUZaYCa2B3nqncvBizaDNVDzlN6hi+HKBA5s8KlcDDv0dqpvXV4LUMCxIr+ezevVusaGjTpo1YlYWsBu/MmTMaz4B1ITSABR4jHyWPTioDPbRe+GEtTPh8KRyIviOuGhe0bPj91RHw5RP9ISo0AGxkHvugkTTan7wyqhNs+OQR+PWFodC/ZT2pAL4yLt9Nht83HxcRDXhcxlg+PZrXFSv5FBYVw4xV2tVDDevQEBobQdwVq54K76bIK+Xw86LJPiVlZFuEJ6CuYJ0vFZTHs4ha4JXWXyVj2XfC/Px8abYaBaF8RMsQoO8RohxuxKbA679shLGfLIZdZ26Kq8bH39NVmkWp1A0KxWLL8CD4eHJvWPXBQzC0XQPJHkUTczYdh/hUuhpEHFfVINhXRIwlgj/TzQmL3bFr9mZCmog006t5PbEyLPvP34KUTHmTagK83cVKHolpyhmXmzLNCAXe1q1bxUo+aHBco8Y/Pw8VddAiJHdCqjq8Wv5eWmUBGEYTTgaswUOz0k8W7IQRHy6EzSeumsRRbEneHNtF+rkyBMHVPOG9iT3g1xeHQU0Nk2nwqPaXdUdEREOfFsa5CTOGITLEj3QE4aKdp8WqcqhqsHRl0Y5TYqU/NXxoOo4TrLD+Dm1wqDq279y5A/fu0TkmdOjQQaw0QyLwLly4IFbycLC3hSBfmicOxnpxc1beBw/d6FfuOw+D3/sT/tp7ziSPL7D5oL1CkyQ0gX5eC6aNhmYasoZrDl2Ee8npIpJPx0ahYsVYIs0JMymnr8XCxZgkEVUOTpowNGh4LLfEA5upqERxvMyjYnOkDWFDD3X9XefOncVKMyaVwUPCqvuIFcPoh6O9shk8rLOb/L9lkndWWpbpFh73aFrHaA0nVV0cYeazgyCqVvkzYwuKimHRDu2zKJWBx7T4xM1YJk3q0h3Pbjmm2wz1DYcvipVhwGPZ/y3dKyL9qUU43z0mie5hzFxo3aCmWMlHSYGnaA0ecu7cObGSD3btMYwc7OyUETXZ9/Ph04U7YdwnS+Dkdbp2d6XIL6DrVtUHzB68Oa5rhV5eqw5Ek9rGdDJCtpIxDPWCaB78MfO+5YRu5vw7Tt+AvWcNU1eLHeav/rweEtKyxRX9qelH5yt7O8G6BB5+ZlFOsNi2bZtYyadatWrg7+8PaWlpkJqaCl5eXuDp6fnvq2RMcic8dUp+rYCaOpzBY2TiYEefwTtx5S6Mmb4IluwxzePY8kg1gexig1p+0KdFmIgeJDM3H3aevCYi+TSvR2dpwJgOHq6O4OdJUwt19W4yJKbr3jDw4fztEJuSISJlwK7Zj+fvgONXaZoWgwgzeLcTtWtIsRQiQvzA0033kXPlgd53N2/SPSC0b9/+30YKTSbHCInAy8zMhISEBBHJI6wGCzxGHvmFhWIlH9Ryf2w5AVO/WQl3kpT9gKfmzM04yQ7C2KDIq4gNRy6JlXya1K1eaQcvY35g2U4l9zGtOX75rljpBorCJ75dBUkEmbXywMzdm3M2wepDdMfBwUQZPPTAu2dhc7Irg7L+jtoeBQWetpCdZVEZHmMnnpPCNVSMZZOZkydW8sAP3edmroGvV+yHIlNrj9WCJNVNae/Zyo1clUbTPMzDF2MgI5sm0+hd1ZmtliwQyu/p6Wv6dzLeSkiHSV8uk2pwKcGau+dVnzObjtPMdVcTTJTBw8ylOX7+yaFNQ7r6O0p7FEQngefrS1PzRiXwbFSP4DjMmWH0JZboafN2fBrsPX9LRObJn9tOSllIY6Ipi1hYXAwHL9wWkXya1Da8IS2jLFRWFQgabcsBs/gTv1gKy/eck+r55LLnzA0Y9dECOKh60KEEM9lUGTxrq7/DqT6RofJGxJVk/fr1YiUfb29vqF//P2P3yoZM2DRsSDPmBydaUBFWgxstGP1JzZJnDqpGqWYNQ3LiaiysPUhjY6QvWyvJTBwgFNGajoMZ8wTtPijApqNbWpobayJPtc9HC3fChE+XSLW5+nAlJgmmzd4Ez/2wTqtZuLqCorj0+EF9uWNlAq9lvRpkI/EuXboE8fHxIpIPzp+1KWHkX2kNXmRkpFjKg7LRoi7X4TEyuJ9PU4Pn5qi8n54h+GbFfsVqhyoD/3/RkV8TR/SsiyqPhrX8xYqxFKoRzVONS6U9ajx/OxEe/WqFNL1myc4zkFrJ1AkUmPvO3ZTKPkZ/vAg2HrsifoWeUH+6DtoYK2uwaENoj7JlyxaxokGX41nEJioqSizlcfr0aSgqorFl4AweI4esXJoaPFcDGCYbAuymfemndZBXQNd8oi2fLNoJeYWaPxdiUzLJTI/x4ZByID1jfHzcXcRKHvGpyjzkRKuE3qdLdkPXV2fDwHd+h1d+Wg8zVu6XmrN+XX8EPlu0C6Z8tRw6v/wLPDNzLew5d0vxiTeUdYs34lLFyjqgrL/bvHmzWNFgNIFXXFwMN27QFHTXre4tVgyjO1m5+WIlD2dHe6PMtVWCMzcT4P3ft5HUDWkLTvpADzFtOHud5hgDxV19PgGwKFydaI4ak9KVz2LfScyAbaeuw5zNJ6TmrFlrD8Pi3Wfh2JV7kEt0sqANlOMJr8dbj8AL8HaDEKJ/u4KCAtIMHtbflT5xrbQGD/9AZee42kLVaOHj4SqNWWIYfUBDYircXCwji4fgkdA7c7dItgdKs+3EVZi+cKeIKufCLRqbJaQh1+FZFM5EpRJU3fXmAJXAy80rgIRU65lD2zkyhMyS59ChQ5LIowKnV6jr79TCrtIaPMy81ahB49hMJfCQBsHVxIphdIMqg4dUtZBjWjXrj16Gl35cTzpBojTrDl2EaXM261TvdOEWXSEy1+FZFm5E81QpH/xMnZAAqg7aNMWPk02JDlF0M62p7VH69etX7rQK9UQL/Kp+qWMbVIARERFiC3lgHR4V4SzwGD2hqsFD3JwdxcpyQOsXnMpx6hqNY76aItXD4sxVB+DteVulWbO6cO5WgvTnKeAMnmVhT1RTqeRDjSnhaG9L1phyK956GiwcVe+z5oTjyTZu3ChWNHTv3l2sylI6k6eOpXwflVXKsWPHxEo+9VngMXqCI7CosLQMnprbiekw5asV8OOaQyRdx+hlN/qjRTB703FxRTewPonqZhIa6C19WDNMSSqrV7IUcAatDdE54824FLGyfFo3CCKzlsHsGaUeqlevHoSGlp9d1PS+lgQeVQbv9u3bkJ5O0w1XL5g7aRn9oDyKcbUQq5TyQJPhnzcchX5vzYM5qq+6TpTAho0jF+/Ac7PWwJPfr4arsfJuBlR1eHa2NjzykLFagn3pZtBaUwavQ0SIWMln+/btYkVDz549xaosmurwbFD9NWjQQITyoTI8DvL1tNjsCaMspAKPqIPPlMFRSTPWHIK+b86TOm23n7gKiRUUVqOv3aHo21Lmb+Dbv8Nj366CPWdpjIqjCevw6gfxA6KlQJV5s7WQjvjKqEXogUdhDG0utI+sJVbyWbt2rVjRoEnglYf6Z0aqwQsLCwMHBxoxdfLkSbGSB4pS/pBm9CGTVOBZz0NGdl4BrDoYDS//shF6TvsNur7yK4z8cIHk2I+vbq/Ohh5vzIUnvlstZf7uEg8gP3eTTuCF8WeHxVBA5K/q5GAdM86DCDN42GRhDYRV94YaRP9u2Li6evVqEcnHzs4OunTpIiLteKAGz97eXjrjpeDEiRNiJR9utGD0IZuwBs+aBF5p0CD5yr0UOHsrQXphpk9JLsUkqz4cabI19VjgWQw592maI1wsuNyiJMF+NEIFJ3NkEH6WmjKdouiOZ48fPy7V4FHRunVr8PCo+HtaOsNdMv43Z92oUSOxksfRo0fFSj7caMHoAxbsU3VkulixwDM09wsK4Q7RWCSchoMD1xnzJzefRmRYymSaygiuRiPwYpKsZwZth0g6e5T169eLFQ2VHc9W1EGLkAu8CxcuwP37uhVrVwRn8Bh9ySZ66reGGjxT4nJMkljJo6qLozRwnTF/su/TTIDwruosVpYLTnKhet/HJFqHwHNXCf+o2gEikg/l8SzSq1cvsdKdfwUe1cgyBEUeBSEBXmx3wOhFbh7NU7+1HOuYCleIBB7SgDvxLYJ0Hbu7K8KbaKatKRPo7QY2RKlraxF4nRuFSp33FMTFxcGpU6dEJB80Mm7ZsqWIdOcBgacegyEXqkYLNLiszx/SjB6QZfC4k9ugXCIUeHWrs1WKJZBMNEPWxwoyeAGEWes7VtJg0bVJHbGSz4YNG8SKhj59+khNFprQWIOnHncRHBwMtWvXFpflQdloEcGu9IweUFmlODvwEa0hoRR4aHjMmD/JGTliJQ+ccY5THiwZP09XsZJPTFKGWFkueELYpkGwiORDbY+C3bPq8WP4Km8kWcmxZfgqGT+QsmvatKlYyYPSwZnnSjL6QDGdAXG0EmsFUyEuNYusWzeEaOA6Y1yoBB5Od6jlR+cRZ4r4e9GMKEPupdDaIJki7SNqkjXS5efnkzZY4Ilqt27dRPQPmhoqykMRgYdtwoWFNDfYBpzBY/SATOBZ+BO/KXJD5kQMNbUCvLiT1gKITabLJIVauOj3I5pBi3ZFiURH46YM5fHs3r17oaCAbt5x8+bNoVo1eY2migi8oqIiuHjxoojkUTvAm2w+HGM95BfQCDwne87gGZqbcaliJQ/83OBOWvPnRjzN+wHBxj1Lxo8og4d1j0VEnpSmiq3q6a9DJJ3/3dp168SKht69e4uV/jwg8Jo0aSJW8qE6psWOIO6GY3Qlj0jgOTpwBs/Q3CAccF4nkI9pzZ0bcWnS3GMKKMd4mSJUGbx4K8jetQirAV6EjTfLli4VKxrK87/T1FBRHg8IvICAAAgMDBSRPCgNjyO4Do/RkbwCmvFGDpzBMzjXiY5oETwBYMwbNMBOTCt/NrKu1LL0I1oPmiaLhApmUVsS3QiPZ9E55O7duyKSD2qxktZ1aiEnqwYPoTqmPXz4sFjJh+vwGF2hqsFzqKRFnaHnGqHA405ay+BWPI1lR00/T4uty8QjRyqvvwQiQW3KdGpEdzy7cuVKsaIBj2dLirfKhFxFlBF4LVq0ECt5oFUKdpVQ0JAFHqMjVEe0TtxkYXDi07Ihi2gGZhDR2CbGuFAJPJxwYqmdtF5uTmQmx1QZU1MlSqUpAn3cRSSfxYsXixUNlY0n0xbFBB6mFM+fPy8iedT085LGiTCMtlA1WbBNinG4RVRYH1SN7kOcMR5U7wekUSjdWCpTws3JUazkk6h6yLJkKLtnr169CleuXBGRfBwdHSX/O23QqQYPoRJ4CFUdHmYnG9TkLB6jPVRHtLY2NmBPNMaG0R6qTlp/z6rSfE7GvLlJKPCiCOeOmhLuLnRJkLQcmvFwpkq3ZnQCb8WKFWJFQ+fOncHF5cGj9oqaKyqtwSvtjOzk5AQ1atQQvywPykaLyBAWeIz2UB3RIk6cxTM4MUk0czDxyKqGL1ulmDuUE06iLDWD50yXwaMqkTBFGtSsRmqCvpS4exbr7zRNpygdqydalNRx6timvK4MOcNtS0LZaBEZStPdy1gH+YU0XbQI1SBqRnsoB50Hcx2e2ZOYngOxKTSGx3Vr+Fikt2pVwjKmTAsWeH2ah4mVfGJjY0knd+H0in79+olIe8rTcUi5dy50UKbg3LlzkJtLM3YoKoStUhjtQSd2KipLgzP03KEUeL4s8CyBs9fjxUoeWHYRaYGNe5zB047uzemOZ1etWiVWNKD2QosUXdBUh1euwKPK4OH/8ZkzZ0QkD19PVwj05qMWRjsqKz7VBarONEZ7bhMKvKBqlm1uay2cuxEnVvJpZIF1eG6EGbys3DyxsiwahfhBkC/d58GyZcvEioYBAwaIlfZoSkDYlFe8R5XBQ44cOSJW8mliocWxDD108k71AyS+MoYjJTOXLIsQ6MMPhpbAGUKB16J+kFhZDlQZPJwaknOfbqaqKdGzeT2xkg/Wue3cuVNENPTv358kOaHeo9waPF9fXwgNDRVX5HHo0CGxkk8kH9MyWkJ5RKv6IRErxpDcIxoy7080vokxLhduJ0I+0YSaZnVrWNycaaoMHoq7IgKRYWrgQUwPwuNZNDemPClq2LAh1KlTh6QkSL1HhdXjVHYpe/bsESv5RFpo9xNDD9XsSgQLXxnDczeJRuBRDWBnjAs2Tl2KSRSRPBzsbaFFveoisgxcHGkEXvZ9yzyebVI7EAK96XwxFy1aJFY06HM8i5R3CqtGcYEXExMDCQkJIpIHeuGxpxWjDZRPVlyCZxziUzPFSh7eVV3AkT83LALKOry2DWqKlWVAVStM5SFqavRqQdc9m5ycDNu2bRMRDfoKvPJOYdWUEXjqGyNVowVCVYeHT131a/iIiGEqhlDf8RGtkaAaeI7fPj8vmiHsjHE5dfWeWMmnbUQtsbIMKI72EMKPTpPBVvVv070p3fHs8uXLxYqGmjVrQlRUlLQmTU6Ir/+ifpNgBs/Wluapl9IPzxK7nxh6KI9oqT44Gd2IJxJ4SADX4VkEhy7FQFFxsYjkUTvQm50ZyoHy4dhUaFY3EKoRfgZQH89ic4UayvvNAwKvpHKsWrWqVPRHwf79+8VKPlyHx2gDN1mYP3FER7RIAN/ILYL07Dy4cJOm5Adp1yBYrMwf/pSqmL6t6ouVfOLj42HXrl0iomHgwIHSV32yd6X/TMnYprzxF+pxF02aNBG/TR779u2DoiKa7qfIUO6kZbSBTuBV4R4LoxBHmMHz9eAjWkvh4IVbYiWfDlE0bhEWhYWl8LBuv3uzuiKSD7X3nb+/P/Tq1atcDVbRCLKSsaYxZuXeutQKkKoOr6CgAKKjo0UkDzQp9HJzEhHDlE8RZ/DMnoS0bLKjdi83Z7FizJ2DF26LlXzaNqxpMWPLqD6mLEveAXSJCgEPVzrNsHDhQrGiYcSIEWXK4dQarPRxbWVxacoVeOo/RNloQeWHh3+1pnV4Li1jOKrw4YdRKCgqhvSs+yKSh7e7i1gx5s6Zm/GQkU3zvnBysINOkZbVbCEXyhowU6Bfm3Cxkk9cXBwcOHBARDSMHj1arP6D6nug8fCpXr164O5O4xtDaXjcpI5l+Rcx9FDa6aD/FmMcUrNoZll7V+UMnqWA2fmjl2JEJB/K4ztjUqh6IKLA2dFyDKA9XR2hHWG39JIlS8SKhsDAQGjfvr2I6NEo8NDgtVmzZiKSB2WjRWPO4DGVYE8p8IjqRxndwZFlFHhV5QyeJUF5TNs+MsQiplpkE40Xc3GwjCNrpE+LeqQP+9THs6NGjdLJSF9TQ0V5aKzBQ6gMjy9evAgZGTTO9Gh4zMaljCYoBV4BZ/CMRkpGjljJw7sq1+1aEvsu3FLdp0QgE6zB6xBh/qbHOfdpZje7ONFMxDAF+rWmO569ffs26Wx9pLzjWaQiIUdag4dQCTyEyg8PDY8javmJiGHKYm+n/VNRZRQQzb9kdCclk0bgeXKThUURl5IFF27Fi0g+lnBMm5NHI/DsbG3AUXWPNXeCfd0hitBW7Y8//hArGoKDg6FNmzYiehBdhVxFVHoXxEYLfTcvDeUxbRM+pmU0YE9k0o3kF9LUtjC6k0p0ROtob2cRNy3mP3acvCpW8ukQGWL2p0JUR7SIm7P5Z/EGtglXaRcREPDbb7+JFQ2YvaPSVhVRqcDz9vaGkJAQEcljz549YiUfrsNjNIFZXir4iNZ4pBN1SyJVXRzFirEEthy/SnZMi++NLo1o7nPGIpvoiBZxdTR/gdenVT2xkg8ezV6/fl1ENFR0PKsLsmvwEKpjWhR4hYU0g4xR4PEQeKYiqGrwsDOtiOouwuhMZk6eWMmnqgVkJZj/uJOUAZdjEkUknwFtG4iVeUIp8DzM/GGoae0AqOnnJSL5/Pnnn2JFQ+3ataF58+YiKktFNXhqKqrJK42NNs7InTp1Er9dHjjN4uzZsyKSB9bU1PL3FBHDPAjVES1n74xL5n1KgccZPEtjx8lrYiUftNPw9TDfbuusXDqB5+Vu3jWrAwnFOial5s+fLyIaBg0aBOnp6f9qrso0mKa4oj3wq402xXzt2rUTK/lQ1uE1Yz88pgKoMngs8IwL5U3LEuqKmAfZcuKKWMnH1sYG+rYIE5H5QWUphPiasa0QWt70bE73fdy0aZMkligZOnSoWNE0VFS0h1atho0bN4aqVWmGde/du1es5MN1eExFUHXR4jQFxnhkEgo8d87gWRw34tLgemyKiOTTv435HtMmE3WcI+bsG9m7eV3Setvff/9drGioX78+NGrUSETy0VSHp9VdEOektWrVSkTy2LFjh1jJhwUeUxFkR7RscmxUMnPpjmidLWTmKPMg20/QddOGB1eDejV8RGReYEMS1TQLc578Mrh9Q7GSD3r3rlixQkQ0oLkxJZoyfjaVFfOpoRqnkZSUJBkGUoBFlDyCiCkPqi5a9sAzLvfz6KwfKB3tGdNh/eFLqvuWCAgYaKZZvGLVv0Ea0TGtuc5uDq7mDk3r1hCRfJYuXQrFxXSnOCjGhg8fLqJ/0FaD6YJ6D61q8BDKeWlUw3rxr9q8LtfhMWUhq8HjI1qjcj+fTmDjYHnG8riZkAZnb8SJSD79WtUDe1uaEg9Dk0I2u9k8Bd6w9hGSLqBi3rx5YkUD9jPUqvXgbFxtNZguqPfQ+l3ctm1b6aiWgn379omVfJqFscBjyuLqRHMcl8cZPKOSX1hIlp1Bs2PGMll/KFqs5OPj4Qrdm9QWkXlBNfnFV/VvYG7Y2lSBAYSjyW7dukWqVZDS3neU2To1JWOtBR42WURFRYlIHrt37xYr+TQNo0vHMpaDmxNNkW0WYQ0Yozt47ETVyUw5n5gxLTYevax6GKPxWEWGd6S51xkaqtnN1TzNT+B1iKgF1bzcRCQf6uydk5OTZI9SEspsnZqScRmBp0lRUh3Tnjt3TipepKBeDV9wZ/sDphSuRO8JSvNQRj+obtx8RGu5ZOTmw76zN0Uknxb1gyA0wPx8VhPTssVKHu4ujuBqZk1JQwibK7Du7ueffxYRDSjuPDw8RFQxFFk9NWUEniZFSVmHd+jQIbGSh41NFWjKdXhMKaiOaHNY4BmdfKIMnh3hfGLG9Fh36KJYyQdvgyM6RIrIfEggEnhIgDddNkxpvNycoH0k3ag5dPuIjY0VEQ0TJkwQK81QZPXUPCDwKlOOlAKPci5tcz6mZUrh6kSTwaM02mX0hPCJlrFc9p67BclER5QIji5zJJxpbQjiUzPFSj4BXjTet4ZgsOp7RdklP3v2bLGioVq1atC7d+8yGquyWBs07WFT3viL0uMu1C+sw6tRg0ZMbd++Xazk05QbLZhSUAk8PqI1Pnp85pUL4YMxY4IUFhfDlmOXRSQfD1cn6EM4EcEQxKdmiZV8Agjr2ZRmcPsIsZJPikr3oD0KJTi5IisrS+sRZBVpsPJiTXuW22ShVoDlFe+1bt1aRPI4fPgw5OTQPG01qOkHLmxiyghwVA1VQT0LPOPzt+p/FNiwwrN4Vuw7L1Y0jOhkXs0WsYQZPH8zEXit6tWA0AAvEcln4YIFpN53CHbP6nL0qkmDlaSyPcsVeJr+EJXAw/8AFHkU2NnaQJM6ASJirB1PNyexkg8f0ZoAnMFjtOTKvRQ4dY2udiqqdgA0DvUXkemD82ipalb9zETgUYvwX375RaxoCAsLg2bNmolIO3QRg5ooV+Bpok2bNmIlH9I6PEL3asa8wYJbKjKy74sVYyyoMniqj03xlbFklu85K1Y0jOnaWKxMH7QVSkqnOaYN8Db9GjycZNWF0LPw5MmTcPYs7ftn7NixYmV4dBJ4mHWLjIzUqtVXG3bu3ClW8mnGjRaMwMuNbnxdKpEzPKM/VAbrRcTHLoxpsvn4VSmTRUXP5mFm1VEan0LTSWsOAm94hwjS5oo5c+aIFQ12dnb/CrySzQ/6UnqPyvbUWIOnRh1j2tDGxoYsi7d37164f58mQxIR6m92HU+MMni60mXwUrM4g2dsqMZGFRSywLMG8IiScrIFlgCNNqNavDiiOjxT76K1qYLNFXRzg1GLzJ07V0Q0dO/eHQIC/ikf0+XYVZMGK0lle2pVg1c6xrFlFGAh4/Hjx0UkD1TxjUO5Do/BGjzO4FkSVA0zhUU8ds5aWLrnHBRXkt3QheEdI8HZTIyy41JoBB4ag1OWu1DTIbIWBPnSmVGvWrUKcnNpP+8feughsdINXYVcRej1aEzph0c5tqxFPT6mZQA8CD+U0rgGz+hQCTyqkWeM6XM7MR2OXLwjIvm4uzrBQMI5p0pCJfCQ6iZ8TDuCeJwc9eQKtfedMdFL4DVp0gTc3GhqEijr8HC8DMOgfxUFOXkFkFfAosCY4DEMHpFRUFDER7TWxPI958SKhrHdGkvvR1OH0iol0EQFHtZEdiCcXHH58mXYtWuXiGgYM2YM2Nv/Z99WWb2cPlS2Z7mfnBWd/6rBoueWLVuKSB74j1pQUCAieUSFBrAfHgM+7i5iJY+MHM7eGRtnB7qf53wW61bFjtPXITaFZuY5EhroLQ20N3ViUwjNjk1U4I3sECmNKaXixx9/FCs6xo8fL32tqH5OE5VpMG33tNHVGVkdY/EgBYWFhXDq1CkRyQOPcprWCRQRY61U86TJLqdmssAzNm7ONBNJkJw89jS0JoqK/4a/dtFaXjzSu7lYmS73kuhErb8JNlrY2djAoHZ0zRVYd0ftfYd9CugZXFo/qTVWac1VOtZGg6nXFe2BX230Lebr1KmTWMmHMjXaio9prZ5qHjQZvMQ0uidhRj8oBV42m1ZbHcv2niOdRoN2XM1MPImQnVcAGTl5IpKHKdrDdG9Sm+whHvnrr7/IpmqpefTRR8WqLJVpLm01WEkq2kPv4pZWrVqBszNNtyLlXFquw2N83F3FSh5J6TR+Uoz+uBHNFEayeOyc1ZGpEvXrD10UEQ0Te+k2lcAYUM2kNcUj2jHdaI2nZ8yYIVY0uLq6wqhRo0T0IKWPWinQtKfeAs/R0ZFsbNm2bdsgP5/mwxfn0nq4OoqIsTbwe4/t/RSwwDM+roQZPBZ41snCHadJLVM6N6oNYdW9RWSaUHXSBpjYuLJ6NXygad3qIpLPmTNnyKza1IwcORLc3d1F9CD6ZOcqQ9OeNpUV82mC6pi2qKgIjh07JiJ5YOFlc8I3AGNe+BGm7hNZ4Bkdb0JPQ54rbJ3cTEiD/eduikg+eD+d2NO0s3hUAs/Hw5V0UoRcJvRoKlY0zJw5U6zo0HQ8Wx5yNFhFqPfQuwYPoazDozymbcnHtFYLVf0dkpDGAs/YeFWlE3jsaWi9LNxO08inpm+r+lDDx3Q94uKJrFJUAgH8vWhKXuSCc2d7t6gnIvlkZmbCvHnzRERDgwYNoEOHDiLSDjkarCLUe8gymMJOEQcHmiMUPKalomV4sFgx1oY/YQYvOYO28JbRHS83GsGOD7RpPHbOajl4MQau3E0WkXzQm3F8tyYiMj0ozY5NxQtvZMdIcCAcR/rHH3+QWbSpeeKJJzQKNCWzdWpKxrIEnouLCzRrRpOqxrm0VJ0sdQJ9wJcwk8OYD9V9yq990Ic47qI1OlQZvMyc+9KMUsZ6mb/1hFjRMLxTpOqB0jSyW6W5RyjwAggfmvUFrVFGqAQeJbNmzRIrGlAPTZw4UUTlo2S2Tk3JuIzA01VRUh3T4v/vwYMHRSQP/O9rFcZjy6yRQCKBh2OtUjN4Dq2xoTKtTufjWatn/ZHLpMbHjvZ2MJG4JowKSrNjrMMzNr2b14VqhA0f+/fvh+joaBHRMHbsWMmXTi4UWT01ZQSeroqyY8eOYiUfHlvGyKUGkcCLT8uEIsIfNEY/avh6iJU8kjNZrFs7hcXFsGAbbS3eyM6NTDKLl5CWBcXFNJ9fvkQPWXKgtkb59ttvxYoOPJ6lgCKrp+YBgaePcsSRZVR+eJs3bxYr+bQMZ4FnjQT40DzlxSbx8awpEEhUyM6WNwyyfN95SCUU+1gT9rAJdtTiFI/ULJr/Tl8jZ/Aia/lJY0ipuHfvHixfvlxENDRt2hRatGghoooprbEqi7VB0x426nEX+FKPvyg97kJT7O/vD+3btxfbyQOtUnBfCoKreapedPVYjOmDdRpUNil3k9PFijEWvu7OZLOl7yby95MByM0vhKW7z4iIhhGdokwyi0fVJGZsgTe+O20zC1qj6COkNDFp0iSt9JK2I8g07VE61rRnuU0W6v94TcV7iDru1q2b9JWCffv2iZV82obXFCvGGgj0cQNblcijIDaZrkiZ0Y9gouNZ5F4yXe0VY94s3HUGcghNrzGL94gJTregylobs2ERH/K6N6srIvng3Nnvv/9eRDSgqfHw4cO11kvaoKsGq4hy74a6/EUQSoFHWYfXugHbpVgT1b3pMraxLAiMTg1fuu9nDOEAdsa8Qbuc1QcuiIiG4R1NL4tHJfCoRj/qw7iuTUiNlhcuXAjZ2bTlGthcgR20lOiqwSqCJN2BZ8+YDqSAtg4vGGxtaP6hGNOHcqzOXRZ4RoeqwQKJSeIjWuY/ft92UuqUp+KfLF5zEZkGSek0R7Ruzg7gTDT+URfw/3NYxwgR0fD111+LFR2PPPKIWJkeOgm8ior5bG1tybppz58/D0lJSSKSh7uLIzQK8RcRY+lQDsa+y0e0Rocqg4fdhPf4+8mUIC4lC9YepLXJGN4x0qRmt1I2FnkSjgzUluEdIkj/f3ft2gUXLtBmbjt37gzh4eEiepCK9JIcdN1TYw2eGnWs6fy3e/fuYiUfyqkWbRtyHZ614E/04YpP9ok8pszoUGXw0PKmoKhYRAzzD79uPEZqfm1qHbWUk3g8XR3FyjDgydtYM7FG0UcvVQbVnlrV4GnzF+vatatYyWfLli1iJZ/WDVjgWQtUGTx88mUPPOMTGuAlVvK4m8TZO6YssSmZsPaA5Wbx0nPozL3dXZzEyjD0aR5GWqJx+/ZtWL16tYhoqF69OgwbNkwvvVQZVHuS1OAhUVFRkmUKBWvXri2jYPUlMtQf3J1p5uUypo2/F43Aw+MbxrgEeLuBN5HB6j2uv2MqYPYm+iyeqXTUUk5vMXQGbxyxNcqMGTPEio4nn3ySbBa/UsgSeCVFGCpMPI+mAGvwqMaIoG1Gm3DuprUGvInmlsbzDFqj0zC4mljJ5y530DIVgFm8NcQdtcM6mEYWLyMnT6zkU9WAGbw24UEQQVg7jzPuf/jhBxHR4OjoCFOnThWRdlAlrUpS2Z461eCpUcel04aUdimU3bR8TGsdYLcXBQmpLPCMTTihwLt2L1msGKYsSmTxHu1t/I5atIOhwsOAGbwJPWgzoH/88Yck8igZM2bMvyeW+uolTVDtaSPHbRlf6j+DX3FsGRWbNm0SK/m0i2CBZ+k4qj5U7Yn8ktKIRvww+hNe00+s5HP+dqJYMUxZsCSDOos3tEME1PKjqyHTh+y8AjIrGENl8OoGeqvu17VEJJ/i4mL4/PPPRUQHTq6Qq5fUL0oNVnIP/GpTWgHqojLVqP9M7dq1ISQkRFrLBTtp0XWagkAfd6P/sDHKUtWF7gkzm9DlntGP8GBfsZIHinU8hmMYTfyy4SjkFRSKSD74sPnEgNYiMh6ZuTSfZWg5Zggm9W6u0hMiIGDVqlVw8+ZNEdHQtm1baNz4nw5fOXpJDaUGU6OOZTdZlE4dUh3TovI+cOCAiOTTju1SLJqqhI00WUQfiox+eLk5gR9Rw8ylOzSemoxlk5CWDWuIO2p7t6wHETXpSg30ISuX5pjWyQBGx1i32KtFmIhoUCJ79/jjj4uV7pTWSxRo2lO2wCutHLt06SJW8qG0S2nbkC7ty5gebo6EAo8zeEYlohbd8eylO3w8y2jHrxtps3g2qnvj04Pbisg45BXQ+D9Slb9oYny3JqT/P/v374cjR46IiIagoCDo37+/iHRHn+xcZWja06ai4j19QYFnb28vInmsX79erOTTon4QOBrgTcoYBztbMscfyM0vECvGGDSrW0Os5MMCj9GWf7J4tLV4WE+GXaHGgqoGz85W2Xunp5sTDCceS/bZZ5+JFR2TJ08GO7v/spkUGTlqDYao9yCpwStJ1apVoWnTpiKSB44ti4uLE5E8XBztoXlYdRExlgblkxGOtmKMR0vVwxgV528liBXDVA5Ot6DM4iHPDW2vutGKwMBQCTzKgf/lMb5rY3BxojuFuXz5Mqxbt05ENDg7O8PEiRNF9A8U9x1qDYao9yCvwcOYcqoF5diyDpE0DSCMCWKkD1CGFldnB2hAdESLzTJ3EtnkmNEezOKt3k+bxWuoej/3aFJHRIaFyv5FSYGHyZeRnaNERMP//vc/saJj1KhR4O3tLSL9UDJbp6ZkTF6DhzHlXFrKOrz2kVyHxzCmTIu61cmO2y/HJPHIOUZn0BePOov3zNC2YGdDV0aiLVQZPHt75QTe2C6NwNONxqQeSUxMhLlz54qIBtQ1jz32mIj0pzy9JBdNe5Z5x1EoymbNmkk+LRRQji2r5e/FdilMpVC93xjdaUV4PHvq6j2xYhjtwSzeir3nRERDTT8vGNKugYgMB5nAI6xxLgn6l47r9o/lCBXfffed5MJBCZ5KNmzYUET/ocS9gnLPMt81CkVpa2sLHTt2FJE80Kzv1KlTIpJPRz6mtUgo6+YcDWAJwJRPS8Kxgkcu3hErhtENrMWjtktCXzxnA3+2mPoR7YgOkeDj4Soi+WRnZ8O3334rIjqeffZZsXoQCr1UGso9HxB4+ijH0n9GHVPapWzYsEGs5NOeBZ5FQmlOXJWw2JfRHvS/q1vDR0TyyC8oghPXYkXEMLqRkpkL87edEBENvp6uMK5rIxEZBpzFToESpQ6YFZzQi6YhU82cOXMkkUdJRESENGe/Iq2jC5XtQb1nFVVQZkfMmiH4SyXVZHlxRUex6B4dGhoqInm0atUKDh8+LCJ54BNN15d/lca4MJZDoHdV2PjJIyKSx4d/bIMVxKanTOUMadsA3n+4h4jkcfRSDEz9ZqWIGEZ3sPh/7UcTwcfdRVyRT2ZOHgx89w/SObGamPH0QOgYJT+pcfZ6HEz4YqmIaBjeviG8M4GuXr+goECapHXvHm1pxoIFC2DcuHEiKguFXioN1Z7lynv8Q0jJjZDK4pLgP3RYGI0rNZoVYuEkBZhqpqzzYUyD7Nw8sZIPdnIyhqdrk9piJZ9jKoHHMHLIySuAORuOiogGHKn4aK/mIlIeqqNVqqNeNbY2VeCR3rT/DgsXLiQXd2hsPHLkSBGVD4VeKg3VnuUKPF3+Ipro1auXWMmHspuW7VIsj+z7BVAsfijk4m6gwdrMf2BtUusGdOMEMYPHMHJZuvccxCT9k02hYkzXxhDkQzOKrzJMVeD1aR4GwX6eIpIPNlV8+OGHIqLjpZdeqnRwA5VeKgnVnjQH9BXQu3dvsZIPZR1exyi2S7E0sEYkl+jY3c/TTawYQ9EhohbZvMuc+/lw5ka8iBhGfwqKiuHH1TTlQWoc7G3hmSHtRKQsVPYmVN24CJo+T+rbQkQ0LF++HK5fvy4iGjw9PWHKlCkiMk90EnjqtKGa0nFpunXrBo6OjiKSx6pVq6CwkMabCAeZ1yMq5mZMh+QMmuJaFniGh/J49uTVWCgktklgrJeNxy7DReKRd71b1INGof4iUg5TzOD1bFoX6lanvf9Onz5drOh48sknpclc+qKrXtIGXffUWIOnRh3rev7r6uoKnTp1EpE8cnJySAcHs12K5ZGQliNW8vDzYoFnSLCbjrJsYt+5G2LFMPJBB6aZqw6IiAa8db44vIOIlINqeD9VBg+zd1P6txIRDTiS7MyZMyKiARNTFVmjlIZKL5WEak+tavB0+YuVpl+/fmIlH8pjWq7DszwS07LESh7VPOl8mZjKaR0eBO6uNHWP+Dm48zQLPIaWfedvk9d1Nq1bHXoQZq7Lg8ryCW2HKMDauzDi0zMlsnc4liwwMFBEmqHUS2qo9lS0Bg/p37+/WMln9erVYiWfxnUCwbsq3XgUxvgkpNIIPHcXR/D1oLNGYDQzoA2dw//5W/EQR/Q+YJiSzFi5X3qAoOS5Ye0UmxKB2TJPonschc+orUqkTO5Hm73bsWMHmYWaGhRTTz/9tIjMG1nvrNJpxPJAqxQqu5Rz587B3bt3RSQPG9W7vxNn8SwKHDFERd1AeUOlGe1wdbSHTo1o/DKRnSeviRXD0HLmZgLsPEX7/sIRZqM6RYqIFi+VuKOa65yULv+ztV+relCnOu3nqhKds9gcWq9ePRHRoY1e0pXK9iz3u1/R+a8adaxt2pDymHbjxo1iJZ/OjZVNjzOGJSYpXazkU4cFnkHo0yJMMpSlYudp2k46hinJjNUHoLCItoFnSr9W4K6A96YvoUFzcoa8+mb0vZvSr6WIaMCa/N27d4uIjueff16nI1FqvYRQ7WmTmpoquSarXxijMzK2CKtfmmL1nym9R8mYai4tsn79erGST5sGwdKwY8YyuHYvWazkE8oCzyBQHs/eiE2B63GpImIYem7EpcGaAxdERANm2h7tQ2sbgvi609USJ8p0KBjYOhxq+Ws3xUFbPvjgA7GiA0eS9enTR2tto4ReotzTprQC1EVlqqlsjw4dOoCbG01nInbM5OXRTC1wdrSHdoTmqoxxuZeSKbnPU9CwlvIWBtZOsK87NKlbXUTy2cHHs4wB+GHtIdLZ18i4bk3IzY8pM3hJ6fpn8DB792hf2qkV2DVL2XSp5q233hKrf6hM2yihlyj3lH1AXzp1WB7YcoyeeBSgF96ePXtEJJ8ufExrMaCdwa14Gtd57PTi7K6yDGrbQPVBJAICdhDXRzFMeSRl5MIfW06IiAY0P356cFsR0UDZKJYk44gWZ0xjrSEl77//vljRgTPve/bsKSLttI2uGHpP2QJPW7VJWYeHpsdUdGwUKnX3MJbBjViaY1r0j4qo5Scihho7GxsY0q6hiOSDx7Pnb9Oa0TJMRfy+9STEp2aKiIbeLetBFOFnjr8XTUYQaw7Ts+6LSDewQ3hyP9rj51OnTsHKlStFRMebb74pVv+gTyatMgy9p01p9UehMMvbE+1SqP7j/vrrLzIljFYpjWsHiIgxd67cpavDaxTK7wul6NY4FKoRGkqvPRgtVgyjPPcLCuHntbT2HDaq++OLI+jMj6lq3lIzcqRRkPowVPUQV93HQ0Q0vPvuu2JFR8OGDWHgwIEiqhhD6SW5qPcgqcErTXl7BgUFQWQkTTt4UlISnDhBlyLnY1rL4cz1WLGST4v6QWLFUDOic5RYyaeouBjWHbkkIoYxDKsPXiQfYdYsrAZ0IpqVXtOfRljpezzraGcLjxJn744fPw5r164VER3vvPMO2NhUfqBpKL0kF/Ue5DV4mtSnqZoed23KAs9SOHcrgWysTnPVhy1+SDG01PLzIBXPh6PvkHogMow2YFbr2+X7RETHSyM6SiUMcnCytyM7or2doF9d89iujSCA6O+g5m2VEKMGfXpHjhwpov9QMrOmRuk9yWvwNKnPvn37ipV8li1bJlbyCa7mCbUDaItAGeOQV1AEV4mOabHLulld7cbVMNozunMj6TiKivWHLooVwxiWQxdj4MD5WyKiIcTfC4a0k2cfVD/Ih+xn7Fa87tZDrs4OMLEXbecsZu82EfrgqnnjjTfA1rbsg7ySmTU1Su9ZRuBRKMrSqPds164deHvT+ItFR0fDjRt0Mye78jGtxXD2RpxYyaddBE87ocTZwQ4GtAkXkXwyc/JgG3fPMkbk62X7pDIBSp4Y0FqWAXh4cDWxko8+zgSP9mxGPgp02rRpYkVHzZo14aGHHhKR7iiplygoI/AoFGVp1Hva2dmRdtOuWbNGrOTDdXiWw+lrdHV4nRuzwKNkcNsG4O7qJCL5bD1+RcraMoyxuBqbAmsO0Db5+Hq6wsQeTUSkO/WC6ATeTR0zeD7uzjC2W2MR0XDw4EHYunWriOh49dVXwcFB/ykiSuolCh4QePoox9J/prJ48ODBYiWfFStWiJV8IkL9ecC8hXAg+jYUEz0FoX9Tg2BfETFywOHn1B/8y/eeEyuGMR6z1hwkNz/GI85qet6TGobQGLVjZhIFrC480b8VuDjRjl4rbUBMgb+/P0yePFlEZdFV22iDofesogrK7IgjLhD8pZJqsrwYR2Zog3rPrKwsqajx/n39fHVKgx21Pj4+IpLHZ4t2weLdZ0XEmDMLp42GhkSeUr9tOgbfrTooIkZf0Brl6ycHiEg+Z67HwcQvloqIYYzLUwNawWMDWouIhkU7TsPnf+lm7O/qaA97vnkMbGU2aiBX7yXDiA8XiqhycDrN8vcfAgfC5rQDBw5A+/btRUTHRx99BM8884y0ptA2SugluXuW+w7AP4SU3AipLNaEek8cWUY5m5ZyXEn3ZnXFijF3DhIWPvdozu8LCsZ3bypWNCzfww9jjOkwd/MJSEzNEhENwztGgp+nbjNlm9QJJBF3yCUdzcNxGgeluEOUqL0rnb2j0DZK6CW5e5b7LtDlL6ItJfekrMOjdLRGWwxfd9rCUMY4HLhAJ/Cwy5q7aeURHuQreXxRkZaVC5uOXxERwxgfND/+ZcMREdGAI8wm6PhghPcxKi7HaC/w8Ge8V4swEdGwc+dO0tGkap5//nlwdqa51yutl+RAI/N1BAWeNqaC2oCNFjk5+s/JK4mNTRXo1riOiBhz5vT1eEjPpikDQIZ3oDHptlYm9myq+tASAQE4uYKbKxhTY8X+C3Bdx5q1yhjRKVKnxEPbhjXFSj5nb8SLVeU8N7Qdqf0RghYm1GD2btKkSSKybHRSWeq0oZrSsbb4+flB8+Y0HjlFRUWSyqeCj+Msg8LiYth16rqI5IPH9x6ujiJidMHf0xV6Nqd7sscGmqV7uLmCMT2Kiv+G71bsFxEN6MepbRYPrUnq16TpoM0rKJSM47WhRVh1aBdBM4FDDZ7OHTlCmxFFXn75ZXByerCTn0rblMQU9ixX4FW0Sem0oS5pxNJ7Upoekx7T1qsBXm50Ng6M8dhCeITnhP5trej826yJMV0agT1hXc7eMzfgdmK6iBjGtNh99iYcuXhHRDSMUv0Mof1IZXRUiSyqLNr5m/GQr8VUIOyOf34obRMEJm5ef/11EdEREBAAEyZMEJEy2saU9tSqBk+Xv1hFlN6DcmzZ4sWLobCwUETywOLU7k34mNYSOHwxBlIyc0Ukn/E9GqveH/J/FqwJNDYe1pH2eHv+tpNixTCmCWbxqKyaEMzije9auS9ehyg6385TV7XzE+3TPAyiageIiIbff/8drlyhr7FF37uS2TsltI0p7WmUGjykXr16ULcuzXFodnY27Nq1S0Ty4W5aywCPaXefpjumre7jAT1Y/OvE0HYNwYPQ2BiHux+9ck9EDGOanL+dCJuPXhYRDViLp2m6BT5MdYikE3jHLseIVcVgx+xTQ9qIiAa0UFPC9w6nVowfP15E1oEsgVc6jagrlN20S5fS+WG1rB8EnnxMaxFsPHpJrGiY2KuZWDGVgcnOMd0aiYiGBZy9Y8yEmasPQj5hIxBOgBnYur6IytKlUaiU6aMgN68AjmvxIDWhexMI8vUUEQ2zZs2CuDi6cZNq3n77bXB01K6OWq62KQ9j7KlTDZ4adaxL2rC8PSgF3sKFC8mOae1sbaA7jy6zCI5dvgt3EnSfpVgRESH+0CY8SESMJjpGhkiTQKhAj7FNx9gahTEP7iZnwqr950VEw/geTaQHp/LoQXjyhJ+beZXU32FN4KQ+LUREQ3p6Orz33nsioqNWrVrw8MMPG0zblMSYe1ZJSUn5u+Rvwj+ordsygo7L+GdK76HNnsXFxVCjRg0ytb59+3bo1q2biORx4PwteGoG3axbxnhM7t0MniUsAr5wKwEe+mwJFD/4M8eU4pcXhkCr8GARyWfGyv0wZ/MJETGM6RPg5QZrPpwo+dlR8dysNbDn7IM+n3jitOXTR8n+fz5fvAsW7dJsJP72uC4wolOUiGh45513YPr06SKiY+bMmTBu3DiDaZuKMPSeNiUvIqVjbahsj4r2RC88Uz2mxRuTJ9tiWAQrD0Rr1Q2mLTgCrXNUqIiY8gir7g0t69OJOzwyWr7/gogYxjyIS80iz+JN7ddKrP5jQKv6pCJyXyWTgOoEesGQ9hEioiExMRE+//xzEdFRu3ZtGD16tEG1jSYMuafsJgtUinIYNmyYWMlnwYIFpMe0XRrxMa0lgJ20e87cEBENzwxpB7Z6/CBaC+O6NVF9yIiAgDUqkZ6WRWdczTCGYvamY5KnHBVRoQHQvpSZ8eB2DcVKPtG3E+FOYoaIyuflER2leyQl77//PhQUFIiIDrRbsbOzE5H2yNU25WHoPWV/h/RRmyXp1auXTulITWRmZsK+fftEJB82PbYcFu88LVY01KnuDUPaNRARUxI8LurbquJicF1Bu4mFO0+JiGHMi4S0bNUDCm32+fEBrcUKoFmdQAgL8hWRfLaf0Fzn2jY8iNzU+ObNm/Djjz+KiI6GDRvCiBEjRKQbcrVNeRh6T5vS6o9CYeqyp729PQwcOFBE8qE8pm3ToCabHlsIx67cg7PXaTuznh7SjqdblMOQtg0kY2gqdp++AbcS2NiYMV/mbz9F6ovXqHaAZGqMTOip26zayth64qpYlQV9QF8e1UlEdEybNk2R7BZmBdVjUQ2tbbRFyT1JavBKo+ue+irs8sBuWnTBpgBT0L3YE89i+GMrbYE+jgV6ZhCtB5QlMKQDbW3Owu1sjcKYN/iAghNYKHlpZEcI9feEzoSlRHg8q+lhanj7CKhb3UdENOA4MhxWQE3btm2hZ8+eIjKOttEGJfckr8HTR33iMa2Hh4eI5IEdJfv3080C7Nuax1NZCjtOXYfbCakiomF4xyiIIJr9aAngTMoQf5qSC4SNjRlLYcEO2jKD0AAveHNcV7AhnK6z4XC0WJXF1dkBHh/439EwBagXnnvuORHRgtk7OVBom9IYek/yGjx91CeaD5rqMW3j2oEQ7OsuIsacKVK98f/YQpsNwg/X9x/uKTm6Myh4aceSLdrOtXeMZXDk0l24pHpgoaRFPTpPzoLCIlh/pOLpG0/0awk+7i4iogHv1YcPHxYRHejO0apV2W5jXVAys6ZG6T3LCDwKRVkabfakPKbFblqqY1r8t+rTsp6IGHNn1YFo8ixeWA0feFz14WftYD1iV8JRbsnp2bCRjY0ZC4J6EguBPviXXaevVzi7O8TPE0Z3bSwiGvLz86XZsNTY2tpKfnqlMZa20RXKPcsIPApFWRpt9uzduzdUrVpVRPJITU2FgwcPikg+lB2BjHHB+bS/rDsiIjoe6dMcomr5icg6GdAqnLS5Yvnec6T+hQxjbNYfvUz+gEnFSg1+fa+P7kx+SvHtt9/C7du3RUTHqFGjIDy8bGmVsbSNrlDu+YDA00c5lv4zlcUV4eTkBAMGDBCRfLDZgoragd4QTtiGzhiXDaoP2csxSSKiwdbGBj6dqnpIcXYQV6yPgYS2MSjs/lIJPIaxJIqK/4a5G4+LyHSISUqDw9ExInqQnk3rQNuIB3335JKUlFRulk0uDg4Oku+dvjqkJFTapiSG3rOKKiizIzYqIPhLJdVkebG2Hnba7Llu3TqYMGGCtJaLi4uLlMnDbzgFf249AV8tp2veYIxLl0Yh8O1TdHWfaraduAqv/LJRRNYDTq5Y+u54Ecln45FLMG3uFhExjOWAViOrPngIgqvRDumXw/+W7IYFO8+I6D8c7W1h1fsPQaAPbR36008/DT/88IOI6HjhhRfgm2++EVFZjKVtEGPsWW6TBf4hpORGSGWxJrTZE1ua3dzcRCSPnJwc2Lp1q4jkg3V4PLnActh15qY0UJsaHPg9pjPtfEZzYGAbWtPnlftoxzsxjKnwTxbvmIiMT0ZOnlSbXB5T+rQgF3eXLl1SxNQYtQP66WnCWNoGMcae5Qo8Xf4i2qLNnthNi5YpVPz5559iJZ9qnm7QvF51ETGWAA7ULiwqFhEdL43oKLnLWwuYkejbiq4R6VZ8Khy7Qi++GcZUWHPoIlyPTRGRcVm59xxk55UdERboXRUe6kFrooy88OKL/woYSl577TXw89NcB20sbaMrVHuWK/CMyaBBg8RKPsuWLZPGl1HRtyU3W1gSV+6lwBLiEWYIDv3++sn+ULMajbejqdO2QbD0AEQFZu+K6T//GcZkwCzetyvoxmrqC9a6LqzgM/C1UZ3A2dFeRDTs3LkTNm2kL2EJDAyEF1XCkXkQnQReadVNocJL74HHtK6uriKSB1qlrF69WkTy6d6sLjiy35lF8cP6I5CUli0iOjzdnOGrJ/qDK/EHpCkygPB4Fm84mN1gGEtnz9lbcDj6joiMw+r9FyC+nM+/dqqHtq5N6CZkIHg/xto7Jfjwww9llXcZQtsYY0+NNXhq1HHptKEuaURt98TmiP79+4tIPpTHtO4ujtAxknbIMmNcsnPz4ZvlyjxJoz/el4/1s2gTZOwa7tKY7kaw7+zNCr24GMbSwM+eYiOlq/Fhas7msrWAdjY28IoC82Z//fVXiI6ueFKGvkRERMCkSZNEpBljahtj7KlVDZ4uf7GK0GXPcePGiZV8tmzZAgkJCSKSz4C2tMXkjPFBb6odJ6+JiBa0F/hiah/pQ9MSwVnNlN536w7R3wAYxlS5GJMEqw9cEJFhWbXvPMSlZInoPyb0aCJZg1GSnJICr7zyiohomT59umRurA3G1jbaQrWnSd51+vbtCz4+dAON//rrL7GST8eoEKjmQTuuhTE+0xfuVCxzhBmuDyZ2B8KRkSYD5QMP/vvvPXdLRAxjHXy36gCkGjhrnV9QBHM2lc3e+Xu6wuS+9FN53n7rLcjOpi+F6dOnD3Tp0kVETGlkCbzSaUQKcE/0rhs+fLi4Ip/ff/9drOSDhrb9ebKFxYHi4sslu0VET/824fDW2K4WJfJwRnOTOnSd5ZuPXoYCBbqaGcaUScu6DzNVIs+QLNpxqtzauzfHdgE3YrP2U6dOwU8//SQiOuzs7OCDDz5QTIdQY4w9darBU6OOdUkb6ron5THtsWPH4OrVqyKSz+B2DcWKsSQ2HLsCW48rN/t0eKdI+GBiD8lWxBIYoBKtBKcR/8LHs4y1svLABThhIGsgfJidXU72rnNUCHQmrKdF8L7+7LPPioiWRx55BOrVq6eoDtEGU96zSkpKyt8lfxP+QW3dlhF0XMY/U3oPuXtix03jxo3h7l2aN/1HH30Eb7/9tojkM/Hzv+DMjXgRMZaCu+rpddFbY6CGr3IWJygi35y7xayzVahR13w0AYJ8adz4r91LgeEfLhARw1gfdQK9YOGbY8DRnq6mtTw+XrADlu590Ejc2cEOVrw/HgK9aU2N58+fTzadqiSenp5w5coV8PX9Z4SoUjrE3Pe0KXkRKR1rQ2V76LMnFk2OGDFCRPKZM2eOWNEwuC1n8SyRjNx8eOPXTYoOue/ZPAx+eG4weLg6iivmR9M6gWTiDuHsHWPtXItNhVmrDopIGa7EJMGK/WWbOp4d3JZc3KEHLY4OU4K33nrrX3GnRgkdYu57ym6yQKVIjXpPSoF38+ZN6aiWil4twsBJ4SctxjicvZUA3yk8d7hl/SBYMG0UhPqbzjxKXehLWIdaVFwM649cEhHDWC/zd5yCQ9G3RUTP6v3nJZPlkoQH+cKoLo1ERAd60yUnJ4uIjtq1a5c59lVSh1Bi6D1lCzx91GZlqPeMjIyEBg3ouvR+++03sZJPVRdH6NWsjogYS2PBztOK1uMhmAGb88oIaK0Se+YEWr50a1pXRPI5Eh0DCQqYTTOMuYHa6/0/t0vzYZVgUt+WEOD1nyEwzld/a3xXsLOlNdS4ePEifPXVVyKi5bPPPpPGmpZESR1CiaH3tCmt/igUJuWeI0eOFCv5zJ49G3JyckQkn4HcbGHRvDNvG1y4ReehWB7eVZ3hx+eHwNMDW0sftuYAjibDvzcVfDzLMP+B3nTfLtsrIlp83F3gf4/1/Xci05gujSAqNEBaU/L8888rkq1q27at1id7pq5t1Ci5J0kNXmko98RvJsXfCcnPz4c1a9aISD4t6gVZzbxRa+R+QSG8+OM6SEwrawZKiY1NFZjavxV8+1R/8HRzEldNFyxPoCIzJw+2n7ouIoZhkBUHohUzX0dBh3Nm0c/1CdWDJTUrV66UBgxQY2NjA99//73WeoBSh6jRZ8/09HQoLq64oU7Jv2eV1NTUMnIRO1S0RfXnH/gLoXIs7y8oZ080Pj506JCI5NG9e3fYtm2biOTz6/ojMGvtYRExlkhEzWow++Xh5IO3yyMlIwemL9gJO06bpujBsWvbPn8U3F1phOjKfefhg/k7RMQwjBpfd2f4653xpNnykuDpRMNafiKiAU/IwsLC4N69e+IKHVOmTJHGnZWHIXSIes/79+/D5cuXpS5ePIrG+v64uDhISkqSag7xa+ksHIrTatWqSd2x2BwSGBgojVhDp5CmTZuCh8eDiSIqDSZb4GGLrjbI2RNr51566SURyefWrVtQs2ZNEckjLjUT+r/5OxSV+oYylkXPpnXg86l9pWyb0uBbadX+8/Dl8n3SrFxTolvj2vD1k3Szoid/uQyOX40VEcMwJcGh/zOfHWyQzx0Kpk2bJtXIUYPC6NKlS5JIKg8ldEhiYqIk4M6ePSv9f+Mahd3t27c1ZuT0ITQ0FFq3bi0NeMDJHKU7hDWh6b+9jMBD9aerB0tlyN0zJSUFwsPDoaCgQFyRB7pfv/vuuyKSz1Pfr4IDF+6IiLFUhrdvCG8/1F31dCQuKAweDX+zbJ9kwGwqfPpoL7IO2tjkDOj/9u9SYTnDMOWD9blYwmHqnD9/HqKiospkryiYMWMGPPPMMyIqi1wdkpWVJf39T5w4ASdPnpS+njt3DvLylGl20QSKWBz08NBDD0GLFi3E1YrRSeAhppbBQ8aOHQubNm0SkTyqV68Od+7ckdKmFGw/cRVe/mWjiBhL5uEeTeDFER1FZBiOXoyBTxfvgutxqeKKccDu2R3/m0x2PPv75uPwzUrDjmhiGHMDm69mPTcI2jSgOXVSAsxotWvXDg4fpi9XatSoERw/flwaTVYR2uoQe3t7KQsXHR0tZeZQ1KGQw2NWJYSpXDCxhQ0reDxd0X+/1gIP/wPx7FYXMabp/Beh2nPdunUwceJEcUU+27dvh27duolIHoVFxdDvrXls9WAlGOOJGr3ithy7Aj+sOQR3kjLEVcOCdi4/vzhURPIZ+/EiiL6TJCKGYSrCx90ZFk8bA9VKWJyYEj///DM88cQTIqIDdcCuXbugU6dO4kr5lNQMWAeHx6gxMTGScLt+/Tpcu3ZNeilRG2gI6tevLx19DxkyRFz5D00arIoqKCNb1Yqw5G9Eyou1PXqVuyd2wAYFBUnn4hSMHz9eGqNCxS/rDsMP646IiLF0nhvcFh7tW3n6nJq8gkJYuvsszNt6ApLS6Sx/tOG1kR1hXPcmIpLHrfhUGPwe3c8fw1g6TWoHwK8vDQN7YXFiKiQkJEBISAjk5uaKK3Rgg+U333wj7Y3HqKgj8IWdqSjk4uPjJU2AZVyxsbFSfX12tuUmWtq3bw9ff/21NIMXqUyDlSvwSitCTWibmaPYExst8JtNAR7P4htEl8yiJrBequ+bv0MhcfElY7pM6dMcnhnSTkSGpaCwCLaduApzNx2DK/dSxFVlWfvRBAiuRvPzwt3nDKM7xigRqQwsn1q8eLGIGKVxcnKC999/Hx577DFJU2nSMOUWoWkrxHSBYs9JkyaJlXywZmDJkiUikk81Tzfo3qS2iBhrYPam4/D10r2qpyhxwYDgUzw2Oyx5ZxzMfGag1OVrT+xGXxIchE4l7pBNxy6LFcMw2vL7tlOw+ajp/Oxs3bqVxZ2BQZuWN954A55++ulKG0+VuyMoAHbotGzZUkTyqchTR19GKjDPjzFt/th+Cj5esEOqkTMGNqoHpw6RIfC/x/vB5k8nwcvDO0AksbcV0qVRqFjJ53psijRYnWEY3cFRZldijF+7isemWPzPGIdFixbB0KFDNZat6STwSp/mlnO6qzO67kmZxcPOHOyioaJ5WA0p08FYF8v2nYcXZq2D7PvG9azzdneBCT2bwvxpo2HjJw9LNXOt6tUgyey1DA8WK/nsOXNDrBiG0ZXc/EJ46af1kJ59X1wxDh9//LHUzMAYj/3790vdyxV9H8r95K9IdJU+ZtXl2JVqTzzvd3amc/bG7h8q8K8+qhNn8ayRvedvwb6zN0VkfAK93aWGiF9eGgZ7vn4Mfnp+sFQz2LxuILjqOJED7VEa1Q4UkXxY4DGMPLCTftqcTVBsJBNJtBr55JNPRMQYk6tXr0pdxjdulP1c1dhFqw3aNilQ7okdsAsXLhSRPBwcHKRmCzc3mvbzrNx86PXGXMjJozFlZswDY3XV6kOx6kc+JjENLt1JgptxqXBXdbO4l5wBd1Wv5IxcaQZvSbB7b95rI0Ukj5TMXOj52hye/MIwBEzu3QyeHdpeRIYBJUOHDh3gwAH2sDQl6tatK31PSk77MEuBh7Nke/bsKSL5YBYPO1Ko+HThTliy55yIGEtnYvcm8NJI0+psk0N+YRFk5eRBZm6edBzk4eooZQQpWHswGt75nW4WNMNYMzjB7LunBkDHKLoa2cr46aef4MknnxQRY0qgLsKBEOohDrKKc8rRhrLRZk80KEbfHSq+++47saJhRKcosWIsncFtwk3OtkAuDna2Uj1fLX8vCA+uRibukL18PMswZOAJ7dvztkpj/wwBToB67rnnRMSYGtjVPHfuXBHpWIOnRh1T1OCp0WVPVKcPP/ywiORz4cIFqViRirAgX2hWl65miTFNujYKhXcmGG42rbmDR8NHLseIiGEYCtKz8+D12ZukzLvSYNcs1Ux4RhmeffZZOHPmjLSukpKS8ndJUYVCS9vpFAgeveKfKb2H0nuiY3WzZs0kPzsKxowZI7UdU4FeRa/P2SwixtJoGVYdZj43GBztK56PyDwIWjuMnP7fz5i7s4PqYe2fn+n8wmKuW2UYPfF0c4IPJ/aAToR2RqX5/fff4ZFHHhERY8o0adJEKmV7YBatGm3r6hBta+uU2HPEiBHSTFkKUDzGxcWBnx+NhxjOpx387h9wNzlTXGEshQbBvvDLi8OgqoujuMJow+GLdyA5PRvqVPeBoGoe4OrkIH7lPzKy78Plu8kqMZgIl1WC8MTVe3ArIV38KsMwanzdnaFPi3rQpUkdaFo3EGxF3ZUS4L2xdu3aiowjY5QBZ9fKFnjajiBTYs8NGzZIHbVUoK/Pm2++KSL5LNx+Cr5YuldEjCVQy88D5r4yAnzcXcQVRmmu3kuGnSevwdYTVyXxxzDWCia82zQIhmEdIqFzo1CDzaWdMGEC6ex2SwK1Sp06daT5sNjBii9fX1/pOp48JiUlSWbEOCv36NGjkr4xBB4eHuadwUM/vJo1a0rDjinw9/eHu3fvgq0tzQ9Nzv186PvWPKlGgjF/8In5t1dHkI7sYnTj/M14WLnvPKw/cknq8GUYa8BWJRYGtK4PU/q3NMrnD95jcTTWsmXLxBXrpGHDhtCoUSNpqlZ4eLgUo7izt9feW/TevXuwY8cOmDdvHtkJZEWQ1OCVprz6OaX2nDZtmpSKpGL16tUwaNAgEclnxsoDMGfzcREx5grWi815ebjUQMMYn9TMXJi/7SQs3nUGsrl2j7FQMGPXvUkdeGpQGwgN9BZXjcexY8fgo48+gjVr1ogrlgk2cmIdW4sWLaB58+ZSvX9kZKQ06J8SzOq9++67MHv2bHGFFrPO4OGe2GyBCrqoiKaDqEePHlKrMRWJaVnQ/+0/DNLhxCiDk70d/PTCEGhSR7nOaHxgwSHSlFNarIG0rFz4c+sJ+H3rKSg00jxghlGCED9P+GhST4gKDRBXTAecZIFNiX/88Qdcv35dXDVP0HKtadOmUlYORRy+wsLCwM7OcA10R44cgcmTJ8O5c7T+ueQ1eKUzbWqU3BMzbmvXrpXWFOCbF7/BVHzwxzZYeSBaRIw5gXNc0Ui0XUQtcYUefH+jceiSJUtg+vTpMHXqVGnCCqM9WKf3/u/b4NwtmnINhjEm6K/5+pjO4FJOI5KpcerUKdiyZQvs3btXOnrMyckRv2I6VK1aVTpOxRfWyuH9HV+4ps7K6Ut2djb069cP9uzZI67Ix+wzeAg6N/ft21daU/DSSy/BV199JSL5XLuXAiM/WiCZUjLmA9a9fPJoL+jdsp64ogyvv/46fPHFFyICqF69utTsg5YErq6u4ipTGQWFRTB7w1H4deNR/lljzBJXZwd4e2wX6NuqvrhiXuDD6sWLF+Hw4cPSjNQrV65IL7ymVAcujhmtUaMGBAYGSl+Dg4OhVq1aUn0+ZudwbS6foyiOBwwYADt37hRX5FFG4OE3SG69XGmU3hO98FCJX7t2TYrlgtkTLCrFLhQqnp2xRhpIz5gPr43sKA3sVxIUdijwygM/lF5++WV45plnHpgvyGhm56lr8ObcLdyEwZgVwdXc4YdnB0Own/bJEHMiJTUVYu/dk2a/q195eXlS5gqFDa5LguUqmF3DF65dXFykez4mdtRffXx8LO60A/8tcK4s1ufJxSIyeAhm3F555RURyefLL7+Ubq5UHL0YA1O/XSkixtQZ16URvDams4iU4c8//4SJEyeKqGLUk1vQRb5du3biKqOJ6FsJ8PyP6yAhLVtcYRjTJay6N/zw3GCo5ukmrjDWzNKlS2HUqFEi0p8HBB5mxbDWTRcxVlm9nKH2xKcBTM1SpYHRxwYtUyifDsZ/shjO304UEWOq9G9ZDz56tBfYlHjPUYM1o/p0a2ND0RNPPCH5UqGtD1Mxd5PS4dEvl0M8izzGhMFmirmvjgDvqtxgxfwDapwOHTrAgQMHxBX9qKLaqEwGT51Bq0hYqcFY26NXQ+yJPj0LFy6UrlGAxo6URsqbjl6GN3h8mUnTqn4NmPnsYGngvlLs2rULunfvLnvMXteuXWHkyJEwZMgQqf6EKcudhDR49KvlkJhueoXfDIPemvNeGwFBvtonQBjrABtXevfuLSL9KFfglc6gaULbzJwh9jxx4oR046QiIiKCtG0Zx5cNff9PuJOYIa4wpkT9IB+Y8/IIcHNWrqYD36Nt2rQhH9jdqlUraXRft27dJP8mKrNuSwA7bCerRB4bjjOmhJ2NDfz2ynCIqm16NiiM8cFaPGwgKUeiaU25w+u0FWK6YIg90YwQX1ScP39eGthLhZ2tDUzt21JEjCkR4OUGM54eqKi4wyYgfAChFncI+ii99tprkjEnFiMPHDgQvv32W8mYFP31rJm61X3giyl9wRZdYxnGRHhuSFsWd0yF4Oc4JgPkoNx0YiOBZoGUfP7552JFw4A2DSDUn9PxpgROqZj57CDw86oqrtCD42k6deqkdQORHPLz82HdunXw4osvQsuWLaUONPR/wkYNFH1o5I3WBaW71iyZ1g2C4Yn+rUTEMMalner9+FDPpiJimPLBe4YcNNbglQZ/a8msGca61suVhnpPzFbg0WpKSoq4Ih80cmzcuLGI5LP2YDS88ztdZpDRH0d7W/j5haGKTqlIVr0X26qexFBUmRpoM4CGn+gf5e3t/a/9AL5w5mL79u3F7zR/ilWfLS/MWgt7zrFdEWM8HO1sYem7Y6Gmn3b3OcZ6+fDDD+G9994Tke6Um8ErrfnUcekjUV2OXQ21J3rmaGM9oQuUpsdI/9bhEBrAWTxjg0bGnz7aW1Fxh3UU/fv1M0lxh2D3+aFDh2D58uXw66+/Sr58aLL81FNPwcaNG8XvsgywK/rdh7qDp6ujuMIwhueRXs2MKu5SMnIgM4frUc0BubXUWtXg6SK6KsKQe+LYJ8rxI9hNe+fOHRHJx8amCkzpw7V4xua1UZ2gW9M6IqIHj0qxwxVd3c0NzOw9//zzIrIcfD1d4YVhlpOVZMwLtEJ5uHdzERkGzINcjkmCuRuPwcOf/wU9X58Lk/63TJqwxJg2cmfsW1wNHuLn5wfDhg0TkXwwMzhjxgwR0YCjaGoHcIreWDzWtwWM7tpIRPSgBcpDDz0k1buZGzhkG5uLLHV6xuB2EdC6fpCIGMZwTOjeBFwc7UWkHDi271D0bfh04U7o+9ZvMGr6Ivh+9UE4fSMeilT3s6uxKTD2k8Xw6/oj0u9lTBNs9JSDTjV4pcE/KrcGrzRUe0ZHR0v1Q+X85+mFvb09JCYmko4v23jkEkybu0VEjKEY2Lo+fPhILyBIIpcLvufQjPiXX34RV8wLNGHGeYhKgpZBu05fhyPRdyAzNw+83JwhMtQf2keGgIer8sO/L95JhHGqGxzPrGUMBZYGrP/4EXB1Uq5TP/p2Iqzadw42Hr0MGbn54qpmwmr4wPsTukNECBunmxo4skzOCFatfPDwt1QU6+tZZ4g90QSW0ubks88+q3BuqD4Uq+4uIz5cANfjUsUVRmk6RNSEb58aKFnWKAUWxWJxrDmCNXivvvqqiJRh79mb8MVfu8v1g0RvsI6RtWBYxwhoHxEilTMoxZuzN8GGY6ZZG8lYHhO6N4aXR8rriqyIs9fjYObqg3D4Uoy4ohtYj9y9SW2Y3K8l1A/mudemQFxcnGwD+yopKSl/lxZJ2mbQEMyiaRJriLH23LFjB6nxMQ5/xwHAVavS2WnwdAvDER7kC7NfHq6o193s2bNh6tSpIjIv0Cj5r7/+euDnjBLM2n2zbB8s2HlaXNEM2gk9N7QddG2iTJ3kncQ0GPreAiiUOVGEYbRh2bvjJE9GSu7nF8JXS/fA0r3yjvJK0jkqBKb0bckefZWAXflpWfcVGzGHZWHPPfeciPTD9o033nhfrCXww12XBgW0JSl9QygvNsaeoaGh0nETijIK0KDW3d1dmhFHRe1Ab9h+4iqkZNHM0GXKJ7iaO/z60jDwdFPu+G/9+vUwduxYEZkX4eHh0t/f0VGZDtPcvAJ49ZcNsO7wJXGlctKy78PmY1cgJiEN2kWEkGdd8Sj4ZmwKXOFic0ZhGoX4wWRik/uE1EyY8s1K2Ets+3NL9fO2cv8FOHLxDuQXFEF1H3dwNkDdoClTpHoIvK76rDhw/jasPXgB5m46Bgt3nIIujUNVnyPKCDxsFsUsnhyqpKamljmi1faIFCl9TFoRxtpz0aJFMG7cOBHJR4ksHgq8l3+xLEsKUwKfsH5/dQQE+2n/HtQVtBpB4S+368kYoKjDkXxY76EEeJN4ftYaOHhRv+MjpFGovzQj2N2FVoCeuhYLj/xvmYgYRhleGtYeJvaim7KUlpUrdcLeiNeutl0OWDbRrmEw9G5RDzo3rq3oCYgpkJiWpRJzqXD1bpIk6q6ovl66mwx5qs8xNQ2CfWHG04OkrnwlWLNmDQwePFhE+iNb4GnbPGGsPQsLC6Ub161bdE85H3/8seQVRsmjXy6DE1dpMo3MfzjZ28GvLw5V9LgBi2BxRF5GhnnOGMbMXb9+/UREC9aZvvLzethx+oa4oj+NVSLvx+eHgAtxkfrYjxdB9J0kETEMPSveGy+d1lDwt+qOjQ9MxjDsRpPmyBA/aFq3OjRRvRqFBoC7AZqiqMHO4XvJGXA7IQ1uq0QyfpXE3L1kSKtkZnWf5nXh3Yk9FOuGRs3SoEEDuHr1qriiPyQ1eKXRp16uJNR74ngmHNtEBWY8MHWqi2itDM4k0IOzR79+vJ/01KkU+D5o3ry5NIrMHMFmkHfeeUdE9Hz51x6Yv0O7mjtt6N2sDnw2tZ/qs0BcIGDZnrMwfeEuETEMLcG+7rB2+sMiko8puS9gD1Sd6j7QrE4g1AuqBkHVPFQvdwjwrqr6/DWeCxvWxyWnZUNsapYk5GJVr7iUTNU6E24npkFMUgYU6dhCj/eT54e0gwk9m5F+/pSGso7b4jN4SGZmJgQHB0N6erq4Ip/p06fDW2+9JSIaXvoRMx3XRcTI5a2xXWBk5ygR0YPvK7TiOXv2rLhiXqAJ84oVK7Qqh9CHpbvPwMeLdouIjtdHdYSx3ZqISD5JqhtB72m/Sf5gDEPNiA4R8PZD3UQkD2xUGvren3BHJVBMGXtbG6juUxVqVvOEYJXoQ8HnVdVZqnvFV1UXR3BysAVHe3uwt7MFVyf7MoIwv7BIaiLBbFteQYHqazHk3C+QbJVwEkeG6oVf07NzITkjF1KyciAhNVv1FeMcnQWcJrzcnOCzyX2kmdZKkpWVBSEhIdKEIQrIa/BKZ9rUGHtPzOBhJo8KHOCOtXiUvng341NhxAcLuauPgCcHtILHB7QWET04paJv375Sp7Y5EhkZCQcPHgQ3NzdxhZaDF27DszPXKvJexmN3nOUZrLp5UPHo/5bBiWtcIsHQ855K3A1ViTwK2HXB8GD94QcTe0A1T2U+K0uC5vgLFiwQkXxk51BLC6/yhJiuKLHn448/Dg4OdLU7ubm58P3334uIhhB/LxjRkeaDwJoZ3CYcHuuvnLjDB45HH33UbMUdljbgnFmlxN3Ve8nwyq8bFXtQuV9QKNmtUKKUFQvDRIbS1f+u2k9nh8JoxtHeFl4f1QlmPTvEIOLu559/JhV3SBmBhzcvakxhz4CAANJuWgSPaTHbSMlTg9pI6WBGP1qGVYe3VE/MBM8EFfLGG2+Q/yAaChsbG0ncBQUpM6orOT0bnp+1FrK1dNHXF2zaOHNdnoVASVqG8+gyhh7MNtcO1L7+XBPYOXv08l0RMUqCXbKL3hwDY7s1VvReoubEiROSLQo1ZQQeRbasNKay50svvUSaxcNjOuoZtdiR9KSCR4uWTB3VB+lXT/QHBztbcYWen376SZr2YK7Mnz8fWrdW5v2F9TIv/rQe7iZniivKMm/zcbGSDxrQ4s2YYSip5e9B1mxwKPoOaV0ZUxbM2j0/pC38+cZosq7nykhKSoJBgwYpkgh74J2nz/9B6T9TWawNSu2JjRZ4xk0JWqZQZ/GGd4qEejVoHc8tHV93Z5jxzEBFW/aXLVumyFOWoZg1a5ZiRsz4I/nevK1w5ka8uKI8u8/egNgUmmJzNFGOqMUjmhhaQgi9N09fM89OfXOhVb0a8NfbY2FSnxaKjrIsCVpr9ezZE+7eVSYzW+4sWnUXK/5SyUxZebG2ViWmsuedO3cgLCwM8vI0e93oAs6nxTm1lBy7fBemfL1CRIwmJK+7l4ZCFGGtS2n27t0LXbp0gWIzbYCZOXMmPP300yKiZ86GozBjzSERGY6Xh3eACT2bikge87edhC+Ja/sY62Zy7+bw7NB2IpLHxM+WwJmbCSJiqEAj/FdGdIC+rcJVukFcNADZ2dnQo0cPySRfCXBMa7kyFQURUlIkIZXFmjCVPTGLN3nyZBHR8L///U8SjpS0UD1N9GsRJiKmInBI9qeTeykq7s6fPy89ZZmjuLO1tYXly5crKu4OnL8FP6w9LCLDsuv0NbGST+sGNcWKYWjAMV8U4K3uaiztSZG1g6U8j6geDld9MAH6tTasuMMEE9pUKSXuUPNg0qlcgaeLyNIWU9pz2rRppDM38cb/9ttvi4iOl0d1Ag9XZWaDWgovDW+vaAckGhjjUxZlxtdQ4HzZU6dOwbBhw8QVevCI9K3fthjNQw6PhNEviwL07WIYStD7jQJsXsrJKxARI5fezerCyvfHwwvDO5CPP6wMdOAYMWIEbNu2TVyhZ+TIkdCiRYvyBZ6lgx2EU6ZMERENf/zxB5w8eVJENPi4u8Azg9qKiCnNqI6RML4HzfFceaAxdq9evWQPfDY0+PDyzTffwJkzZyS/O6XIVd1wXvhhHaRm3RdXDE9BUTEkpWeJSB5KjR5irBc09aXgXophGpcsHRx3+MdrI+Hzx/pCDV86D1ttwXp9PDpdt26duEKPvb295PCB6CTw1EeiakrH+mCsPTGL5+REW5BPOQ5NDTZc4BgY5kE6RdWC18d2FhE92CE9dOhQ6XjWXEDzbcwkY8HuCy+8IP2gKwX+SE2fvwMuxdA4rsshM4cms4EnAjhrk2Go8HSjyeClZuaIFaMP4UG+8JVK1M17bRQ0UnAuuSYwUdCxY0fJYF5JcMwZ9hkgGmvw1Kjj0keiuhyRmtqeNWrUIJv3pmb37t2weTOty7iN6u8+bWwXafQL8w8RNavBZ1P6ktkPlAaP3MePHw87d+4UV0wbzNKhXU98fDx89NFH4OOjfAf2gu0nYf3RyyIyLvfz6Y6ueIoMQ4mbM81DFo7lYnSnUYgfzHxmICx6ayx0b1ZXpQXELxiY6Oj/t3ce8FFUTxwf0iCEJJAECCGh9w7SEaQI0ruASBcbNhQLIAoqCCrYQAEVLNhQAbFQVBBQFFRAqjRBkSItSJfq/+bl7X8vl8vd7r65u727+X4+Z968y/08Lre7s/PmzfwGtWrV8nnAAIvXO/cWd3uFVHG6csOOmliwljqKh8nsly7R5kqUd9x9DG1XV1rhTbGkeHhpWCefLqdhJBZLotiZokWLwr333isKZGIv3Lvvvhvi4/2TQ7Z6y5/wwvzV0go8FOcSDa4zxlASFUkTET5znh08M9QpVwxeubszvDOyN1xbrZTjHCGfCACLFi2C2rVrixtwX4OlsLCpg0ZYh4XS0tJECzNKfv/9d1GSgpohbeuK6trhTJzDqXv5rk6QUjBOztAzZcoU8hZ0VOCmiUcffRR++eUX0Qf5pZdeEicOf7LnUCaMnLXEVo5QdBTNaYxdO4YaqpWXy1c4suwNLFLctVFlUctu9oM9oUm1kvKZwIArilgUv0OHDn7ZpIcrkgMGDJBWFh7r4HkDX2q2Zp03/K2JF8qyZcuKnS1UYO7Tvn37snnSFOw6cBxunjiXbNdgMIHlUF64swM0q1FaztCD5URwd5NdSEhIgI4dO4qNHlimBW9IAknm6fMw8JmP4K9jNMWFqfhy/ACShGk8T9S+k/7mjAlfVr94O8TlU++e9OaSX+ClT32buxWsVC9ZBDo3rgLtG1Qk+awpwA16/fv3h88//1zO+BZc/sXcPtcVSbe3F64+X262maURu2oWK1YMhg0bJi0acInWF2VTyhdPhlvDdKn2/h5NfOrcYT2iXr16SSswYO5c7969RQQYd8DiDQz2vB04cGDAnTu8qXho5pe2c+4iHId2SiJNRJeXZxlqIvALSsBV/m7+H/xIcTcsFjlfPGEgzBnVG268rrptnLtt27ZBnTp1/ObcJSYmwscff+w23SxPZmbmf84OEDpFRiNoCF6E8DWuGsGkiVuXcakLvW5KcCntmmuukRYNV65ehaGT58EGwkbrdqfntVVhTL+W0qJnz5494g7o9Gn/liKoWrUqNGnSRDxwd1Xp0r5zYFXBNmQL12yXln2oXSYV3nz4RmmpceHSZWhwz3RpMYw6P750B8QS5AvP/24LPPlecGz68gWxMVFQt3xxaFy1BLSoXRZSC9mvZiX6E3hzjhUM/FUUH/2Xt99+W6z0uPNtIpwnEVfbCN407K6JjuIDDzwgxpRg5OXy5cvSogF3jk66tS0UDJMCyPXKp8EjfXxXDiXT4dzj8qevnbuUlBRRdgW7nqxatQrOnDkDW7ZsgZkzZ4q8CTs7d9M/W2NL5w7p06KmHKlz+TLnOTHEmL9MuaUEYU/bYCAyIo+4ebu9fT2YPaI7rHz+Nph6T2e4qWUtWzp3mOqFqTS48c2fHY8efPBB6NSpU66+TZ4TJ07kiP0WLGj8y4TRLyPOlt01MQkSKz/v379fztCAifD4R6dm2frdMOK1xdIKTUoUToR3HrmRrJaUK7iUjgflihUr5Awd5cqVg5YtW0KzZs1EdK5EieBsgzV78S/w8kJ75v7UclwAZj/UU5QSoiDz1Dlo+fAsaTGMOj9NHQYx0eo7aU+fuwD3TPsMfg3RlZvkhFioXqooVCuVClUdP7H1ZIFYeyy5emP+/PniJh17y/qTQYMGwezZs8XqZG6+jbKDh+JGCAbNuXPnwh133CEtGnDDxd69e0XdPWqefOcbmP/Db9IKLTBCic5diSLGl+HNgCFsTILFHDcKqlevLiKB6NDhkitG7IKdOV+vhynz7FMOxZk4x8n/w1G9IYMwsnHg2EnoMOYdaTGMOj+/MgyiiUqlID/v2A8LvtsCyzfuhX8v0a4O+QssdVW2WCEol5YMVUo6nLrSRSAt2f9dJVQ5fvy4KKk1Z84cOeM/cDPghx9+KHqNe/JtSHLwXNHWfzWCRfPKlSui7yj276QEl+bQy6cGc4ZumTwPtvx5RM6EBlha4NV7u0C9iulyhp7HH39cFAVWoWLFitC3b1+46aab/l85PBRwHBbwxqKf4JXP18oZ+zFxSBtoV7+itGjYeygTuj1B4/AzDLL+1bvJNlo4g20CN+45BBt2HYR1uw7A5r2H4YKNqitgndLiKQlQPDkeyqQmQanUQlDW4dDhT7tshrAK+g3o1GHNW0y18Tdt27aFhQsXQkxM1ufoybfhCJ4L69atE04eNZ999plYK6fm4PGT0HfiR/BPAPuBUjOuf0vo2qSqtOjBpFQMb1sBl1txpys67YHe2eoLLl66AmPf/hoW/7JLztiPm5pXh0f6NJcWHTv3H4Ne4z+QFsOokRAbA6teoK2zmhu4y33fkX/gL8dj32HHw/HzT8fjyD9nHdeG83Dq/EX5m2rki46CQvGxkOx4JDkehQrEin67qUnxUCw5wfGIh9RCBXyWVhNodu/eLfrYY9eqQIArRIsXL4b8+fPLGc++DXkOnmtUTCOYNLt37w4LFiyQMzQkJSXBLseXI8lE1NEoP2/fD3e8/GlIlHkY1Lo2DO9xrbTowQ0OzZs3F39/o+D3BHMsRowYIZZiQ5VDx0/BqFlLbZ3ng3l3r93fnSSvyZVtfx5x3CzNlRbDqFEmtRDMH9dPWoEFqy+cPHsBTp/7V/y8cFFf3sWl3otOy72Y/hCZJwIK5M8rSpLE53fYEREORy4W8sVEyd8KL7A3ORYtHjt2rF83UTjTqFEjWLJkiaiP6own34YjeC6gJhYprly5Mpw7R9vguV+/fj5br3976Tp4YcEP0gpOWtQoDVPu6OCTJQ1Eq09ktKo4hsDvHDYMHnrwQZ/kUNoJ3LTz1HvL4R/Hyd+uFC0YB++O7AWFCxaQM7Rscji2A579WFoMo0b9isXFzQgT3GABfKyygX5BoMD8bkzzwl6zrnjybXIUOjYT2TBKsGnijkdflE159913xVKtLxh4wzVwY1PfLWv6mkrpKTBhSBufOXfYBxCX3o04dxGOu9Vx48ZBZmYmvPjCCyHt3B0/dQ7GzF4qdmTb2bnDnJ6pd3f2mXOHXArDDjGM7yic4LuWiozvwXQtTMnBDQ2BdO4GDx4s+tm6c+68kcPBc7dsqUowao4cORLS0+mT/DH367jDcfAFI29qDk2rBrb/nhWKFIyDl+7qCPl9lHyLbeiwHyDWKvIGlk3BfsIYio+LC90TNDozc77eAF3HzoEvftopZ+0J1sTCTRUVHDcBvoT7fTKUJCfoeVJM8HDgwAHRox7Lpn3//fdyNjCMHj0aZs2aBVFR1pbGszl4VqJirq/xZhvBDpp4ccc1d2pwvXzYnXdKixbMk3jm1rZQuURhOWN/4mNj4JW7O0NRHxWvxL8rFpzGuzFPoHM/efJkkeNQqlQpORt6XHV8Hrgc22v8+zBl3vdwmij52ldgQHdsv5ZwXc0ycsZ3sIPHUJLEDl5Qgas8mGeNK3ivvfaanA0MuIr08ssvw4QJE7wGszz5MnkcRvZnHWhruviUs7g722ipkmDURLp06QLfffedGFOCOzkxcd8XnDh9Hm57cQHsOnBcztgTLIcyzeHcNaicIWfowUjck08+KS33YK7dV199Bddd57uOGYEGd9ktXrsD3vpqHew9nHvOht3AfpP9W9eWlm9ZuXEP3Df9S2kxjBpPDbweOjWqLC3Grhw7dgymTJkiugxhqbRAg71lZ8yYIcqhqPo2OZZoEc25cRZCvNmeCEZNfOAfPm9e+rZgQ4YMgZ07fbM0htvYZ97XVRSTtCsYmXliQCufOneffPKJV+cOdyStXbs2ZJ27wydOwxuLfoZOY96GsXOWBZVzd1enBn5z7hCO4DGUFPFhviijztGjR2HUqFFQtGhRmDRpki2cuypVqsBPP/0EN9xwg7BVfRu3Dp63F1khWDWxgC02D6YGv0xYTw23X/sCXB6Yfm8X0e7LbkQ6PuPHbm4J7RtUkjP0rFmzRny+nsAw+DfffAO1atWSM6EB1rL7et0uuHvqQmg/+m2Y9tkaOPyPf9voqHJvl0Zwa4f60vIP7OAxlGBuMWM/MLBy9913Q2pqqnDsAlX2xJUePXqI61aFChXIfBu3Dh6THWxHgr1FqcGOGWPGjJEWPUUKxcObD/W0VU4eJsyPG9AKul3rux2/uOOpXbt2Xg/ct956C+rVqyet4ObchUsitw53xLZ6+A146PUl8P3WfXBFRqSDiQe6N4Eh7epKy39cYgePIcSXO74Zc2BA5csvv4RWrVqJDkSvvPKKbRw7bDc2ceJE+PjjjyE+njYX3WMOniv4q86eJdpmc9tcCRZNrFyN3QtQixpsO9K5c2dp0YONqkfM+BJ+2nlAzgSGqIgImDC4NdxQr4Kcoef06dPQoEED+O03zz16u3btSl7M2t8cyjwFa3/7C1Zt2gurt+2DC5eCu8wH5mQ+3q9lwPKWPl29FcbNWS4thrEOFgte7acuFkzu/P333/DOO+/ACy+8IMZ2o1ixYuL9uXbPovJt3Dp4Rrs+IEaLDYeC5p133ika/FKDSf6bN28WoVlfgct2E95bDgvXbJcz/gXb9kwa2hYa+7CMC96ldezUCZYsXixn3IN/TwzT+yIq60uw/+SWvYdh7fZ9wrHbHEI9iOPyRsNzt7Xz6ffDG5+s2gzj318hLYaxDuY/zxtrjy4W4QbuhsWiwHPnzg1YSzEjYMAId+umpOQs/0Tl25iK4LnDqOMUCpr4HLYL8cWdQJkyZWD9+vViB40vWfD9Vpj44Uqxq9JflCySCC8O6wSlU3276WP4/ffDSy++KK3cwfyLqVOnSsu+4G7oTXsOwfpdB+HX3w/C1j+PwmWbLCtQgnmiz9/ZAcqlJcuZwPDhtxth0txV0mIY6zSukgGv3ttVWoyvOXjw4P+dukDXrvMGLsO+6LhO4UbL3KDybdjBc8Gb5tKlS6FPnz7SogU9emyLkpunTgW2ZBrz5lew7+hJOeM7mtcoBU8ObA0JcfnkjG+YOXMm3HHHHdLyDO6arV/fvwn83sCj8M8jJ2Dr3sPCqVvncOr2/J0JIdBe2CNYmBs7mPj6+2EELPyMtQEZRpXujSvD4wOyL7sxdODmRDyPL1u2THR5+Pnnn+Uz9gYDRNiutGzZsnLGPbZw8PClqrltrgSD5rBhw+CDDz6QFi1Y1uOxxx6Tlu/ApPxXPv0BPlixySdOBBYwfujGptC5cRU54zvwIMdefW6+yjlIS0uD/fv3+9yJ9gZG57b+eRi2/nEYNu/9Wzjdp2xedJgS3GxzW/t6cGv7+j5rT2eWN5f8Ai99+qO0GMY6tzu+23d2bigtRhU8t2MaE1Y9wJql+NMOZU2MgmlYDz74IDzxxBOGulJQ+TaWcvCcbaORsVDSPHXqlPDEjbS+sgJ6+P36+Sd/Y7PDsXhh/vewfjfNvwWv1a1rl4X7Hc5dqo+6UzizY8cOqFmzpqEes8gtt9wCb7zxhrT8x19H/4FfHZ/xhl0HYMPvh4KqHh01GSkJMGHIDVCjTKqcsQevf/kTvPL5WmkxjHUe69sCejSrJi3GLHgdxqgc1oTD0iGrVq0SG+iCEfQVcEkWc+z97dvkyczM/M/1hUajXQh6mp7+50goamJYGPub+gJ8T8uXL4fmzZvLGd+zYuMeEcHYuPewnDHPtVVLwLDOjaBKySJyxrdgoUrsF2imETS2fsH+fr7m6IkzsGLTXli3cz+s230Qjp48J58JX9D573FtVRje41qI81HfYRWmf7YGZi4KjqUext5MvasjNK1eWlrWwevW9u3bxXnOaj9Su4PODFY92LBhg1h2Xb16NezZs0c+G7ygL4HtTjGooPkZ/vZt8jg+3BwRPKNeJoLiRghFTfzDzZ49W1q0YPcM/MJXruzfkhG/7TsKn36/BVZu+QP+zjwjZ3OneHI8tK1bHro0qQIlihj/Uqpy5swZaNasmfiMzPD+++/DTTfdJC1aDhw7Ccs3/A7LHI9Ne/8O+fw5M5ROLQiP39wKapdPkzP245WFP8Lri3+RFsNYZ+6jfaBihnr90R9++AGaNGkiaqXhDX/Lli1F1x2s34nLfsFEJjpy27bBNsdjy5Yt4rFx40Y4ftzeLTWt0LFjR9FurHjx4nImC3/7NsoOnmsoMTdCUROXaLFworeaa1bBStsYos7I8F07L0/8fjATdu4/CnsPZcLJs//CvxcvQ1RkBKQmxUN64USoWTYV0pL93ynj0qVL0KlTJ7HhxSyffvqp6C9MxVWHF7dy0x54b9mv8Muug3KW0cB6YLe2rQt9W9aCmOhIOWtPpn36A7yxZJ20GMY6y58bCknxsdKyzkcffeS2Iw924cGNYtjaCpf+sOMS/sTST/ny+X/DEhYNxp6umN/8559/isfevXvFA6Nxu3fvNpxGE8zg5z9t2rT/txpzxd++DUfwXDCric4dOnnnz5+Xs7RgIUTMQShRooScCW8w9IyR0zfffFPOmGPWrFket6eb5arj/cz/bgtMW/gj/HM29E9gRsGixd2bVIHbOzYQbfOCgakLfoBZS9nBY9SIiYqEtVOHOS66ckIBLND7wAMPSMsYGBjAoEDhwoUhOTk5xwNXhwoUyN5lw3lJEHPMcQMDXt/QccOfaOM85sFhnbkjR46IFBn8iXaw5sdRkZSUJDZH4gZMT5FVf/s2JDl4rrhbDw5lTVymHTFihBj7AqyRh6F6bIoc7uBBNH78eGmZ55lnnoGHH35YWnTgrlhs6v+Jw9m74Mcag3YDHbsujSrDLe3qQrHkBDkbHExdsNrh4K2XFsNYAzcRfT5+oLTUwJ2XU6ZMkRZjN9CZu+uuu0TLUXTyvOFv3ybCWRhxta0QbpoYEfLVhgsEQ9yYd4Eh8HAGt5irOHfIunW+idAUio+Fh3o3gy/GD4D+rWqKpclwAjuVDG5TBz57qj+M6dcy6Jw7xHFOZBhliiXRVQ8ws4GM8S+4DPvjjz/C888/b8i5yw1f+jYR4r8KoKfojKtthWDUxM4IpUqVkhY9WA4Et1v/9ddfcia8GDt2LIwbN05a1lm8eLFPm0xjg/ERNzaDrycOhkdvag6VS6gnWtuZqo5/H/47lzj+vfd1b+K4uAWfY6ehfkZgGFoHL1zP93YGr8N4HcG2pbi6ZgZ/+zbKDp4vvU+NYNDEkCrWr4uNVU+szQ1MVK1du7Yo+Bgu4JcVl7+xADQFmCuCG1d8Tf58MXDjddXhg9F9YMG4fnBnx/rCGbJJTV8l8AI28Ppa8PGYm+A9x78P/5347w12cMMMw6iCm9CowE0KjD3A3cwLFy4UJdIaNrRWxNrfvk0OB4/Co3QlXDSrVasGL7/8srR8A24pxy8X1gsKdTDShn1jMQROCRad9CfYgxc3G6Az9PWkITBxSBu4qXl1qFA8GSIJDnBfg05ptZJF4LZ2deG9kb1g0YRBcH/PplA+PWeTbH+Cid/33HOPtChgB49Rh8rBu3z5stjAwASWpk2bwhdffCEeWJrLGbv7NryL1gUKzUcffRReffVVafkGrIuEjZV79OghZ0ILjLTdfPPN8Pnnn8sZWjCvsXRp9UKkqpw+dwG2/3UUtu87Ar/9eQS2On7uP3oKrvjgxGGU2Jgo4dBVK50K1R2PWmWL2W4n7NmzZ0VPaLybpmpZ9PzH38E7y36VFsNYY/q9XaBRFfWqB5h/V7JkSWkx/gbz3h955BGxJOsJO/s22Rw89BwxvGdG3LUGi6ahEY6aeOfVrVs3+P573zcuv+2220TdnejoaDkT/OCyRPv27UUFd19x7bXXwsqVK0U9Kbtx4dJl2Hf4H/jj8An44+8TDofvJBw8fgr+PnFGPC5dockhxI0RGYUTIT0lAdJSEqFEkYJQtVRRKJuWBJE2/Fw0Dhw4AJ07d4b169eLvx+Vgzfl41UwZ9lGaTGMNTAlA6P2quD1A6NHjP/A6ygGTe677z6oWLGi33wGDWpNt71oNY8wt/+5BtpGt/OGmybueG3cuDHs2rVLzvgOPAl88sknUKSIf1qE+RI8qeGOZKy55Gt8VTLFl2DdvcyT5+DEmfNw+vwFEQE8c/6iGF+85N7Ric0bDQUczlyB2Lz//1m0YBwkxPm/IKoq2JMSC1VrxylGsvGGioLJH62Cd5ezg8eo8cOLt5PkpL733nt+60ke7qSkpMDAgQNh6NChoo5gIHwGZ6g03Tp4rh6hJ4x6muGoiZsiMLzrj/Im+KX84IMP/Nq/lhKMwmCuHYbE3XwlfQL+nXHDBfZ5ZOzP66+/Drfffnu27wf258TOJhQ8N3cVvPctO3iMdQoWyAcrJt8qLTUmTpzol77Z4QreHGLrN2xdiStGWADamVDwQ9yuwxgVNkM4amLbEtx148udtRp///03tGjRQlwAg62qOC7JomOK0TR/OXcI/r969erFicw2B092N954o0hHcP1+UB6v/vzuMaFJccIdtNjui6EHN0M+/vjjohoFtoLDdCpX584MdvZD7JtoEyLgMu306dP9luv12muvQeXKlWHFihVyxr7gLtmXXnpJOML+yFd0BzqXGGXFvC7GfmAh0erVq4sUBHeQOni8i5ZRhLIG3h9//CFHjAp47cUSJ5MnT4YNGzbAd999B/fff79oAxrqmPI6XO9wKe54w0ETc4aeeuopafkedFYwmtezZ0+/5ABaAVuvofM7fPhwnxYeNgI6eVh6hqvG2wdsTD5y5EjxHfGX801wmmDCHMoaeOzgWQdbiLVt2xZmzpwJBw8eFAEErKeaWzMCu/kMuWFW062Dl5uI692ymbvncNfEJsR4wfIn8+bNgwoVKohlW1zCtQO//fabWG7DOyo71fLbv3+/yMVbvXq1nGECBd5hV6lSRWyC8YaZ49Abrsc+w5iFixwHDuwqMXjwYHj//ffhyJEjotsEpnU493D31fXdGTtpGsrBM/PGcoM1QWwgwNCwv8Fl24yMDLj33nt9WnrEE5jvgDvC8MKd23JboDl69Kgon4LJzYGOKoYjuHMMT8hYTBTrFBrBjmVumPCFysHDvNOLFy9Ki3FH2bJlYcCAATBjxgyx+vL777/D7NmzxaaJxMRE+VvZCTafQcOqJp8d/Qwmd951113S8h9YSgL75WJ+HrY7e/fdd8l2H+YGljrB/0+rVq2gRo0aYtt/MIA719q0acNLtn4Cv5t4ki5RooTYKWsGSgfP5aaZYUxD5eDxuSc7uFu+atWqIkKH5whcCfrll19EDnfv3r1FAIPJidLZ0TWMSEE4aGI+HtbbCRS//vor9O/fX9zl4MHxzjvviJA2BdgcG5061E9KShI/ly9fLp8NHpYtWyY6XWAPXMwHY3wDfs41a9aEO++809Lub4q7ZQ2sMcgwKhQrVECO1AhnBy9//vwiJ3rIkCGirSRePzCFBvPosJQW5pZjWTAN9kNyx1AdPPyV3GyrdV3CXRMZM2aMz1uamQGjbPXq1YNKlSqJB0b7sFUO3j25kun4Nx1wHHR4IkKnDnc7fvPNNyKhNdTA3A7sMYwFmBkasIvIY489JvLtVIiPjycriv3UnGUwb/U2aTGMOWKiImHN1Dshwulcb5VXXnlF9OEOZbB8GFZQwKXW8uXLQ61atcTqEuaNY4069hnUNfNkZmb+5/pCo9WWEcyb8fQ/R1gzd01MJB81apT4PTuDS2FarSDMDaFqDxVM1KlTR0RfsSgmY41vv/1WpClQlcVJSEiAkydPSksNdvAYFUoWSYSFTw6QlhqYr/3ss89KK3hJTk4WQQJ05DRnDjc94OpIWlqa/C17XItdCQXNbL1oNYx6mQiKG4E1c+fNN98UyeVULZcY34KOHhZlxgKZuB2f8QzeEGBB0eeeew42bdokZ2nAYwvvdil48p1vYP4Pv0mLYczRsFI6zBjeTVpqYOoMHjNWwYoAxYsXF6k3x48fFz+NXq/cgRE1jJZj1A1v9DG9B5dS0VnDFpmYA4cOG45x+RQfOHZ3fmSfwTtUmsoOnmsoMTdY0zOfffYZ9OnTB86fPy9nGLuDOYb33HOPcM6d70aZLHD5Hm9eMBEajxVfgHe6mZmZ0lLjCYeDt4AdPMYi3RtXhscHXC8tNRo0aCDaKFpl2rRpcPPNN0srC4zqYLTbeYcp5r06Bxbw+vPvv/+K4wodObw5Q8fOXZqOM3x9N4a/NZW3oBl5s2YJR83OnTuLHDbnmj2MvUHH4oknnhB3ytjTEJ0Zo3dooQpeIObOnQutW7cWSzPjxo0TJyBfwbtoGbtAWQMPS36okJ6eLkc6eL1CxwGdN+2BO9cxx1h74E7Va665RozxvIa/4825Mwv7DLR40oxAr94ZV9sKrKljRhOr9mPyOd69McbBL3jfvn19cvAYBXPLcNcXRvVuuOEGcQetepIOFs6dOyeKamMEGnPi8CferPgDyr85xfHPhC9UDh5GzXBZVQXNwbPbNS43WFOHUjPC9QRJccJkTR2zmhjBw+XaQJZRCSYKFCggCidjjT1M3g80eGB99dVXYukWk4qxNQ46fm+99Rbs3LlT/lbwg84r7vRr1769cOqwdAFG7vydR0pxzGpQnFiZ8IXKwVNtzYfHhObgqV6P3MGaOnbXVF7f8KX3qRFumpiYignp2IECk1oZ9+BJbMWKFdC9e3dh43LgpEmTxNgu/Pnnn2LpFgt0VqxYUThD2CMRndGFCxeK+k52B5ddsXcw1qTC6BzmG6LzimUclixeHJY7qhnGldQke9TAw80NmD9n52ucM6yphidN8hw8u3u0GsGgiT1bcakLC8Ey2cF2NBs3bhT5Is5geQFsNWZXMKl56dKlotxK165dxe4zTGJu2rSp6BmMThRGANEx9Hc0DE8MGD3A2nTolGLHFaxLFRcXJ3oHY5s9jNIdOnRIviLwULaUozh+mfClSEGaCB4e+ypg7hwSDNc4hDXV8KSZYxctnuQxsdIoRpLKWVNNE1uK4YV/8uTJYd+fsHDhwjB9+nTo0aOHnHEPVjx/8MEHxecfzKSkpIjaUbhhAROiMXqGidKuj0THI7dTBXbiwN1z+MCiwPgdwwdufvjjjz/EcuuuXbtEc/Ng+7zw3061iYPLpDBWSU6IhWXP0qTVjB8/XhQBt0qnTp1EdyJ3hNN105Vw1OQ6eC7YWRP772FUZcOGDXImvMDNC1hyA5c6jTBz5kwYNmwYaZSHsReYg2mlxZk7xr+7HD75fqu0GMY4NUoVgXdG9paWGrfeeiu88cYb0jIPnvMmTJggrZzwtdgYoaCZbYkWPUezuL7Gm20E1tRxtrF12JIlS0QzfCwyGS7gztRZs2bBBx98YKqMDC55opOHS4xMaEKZ/xcZob5cwoQnxQhLpGBUXQXMwUN8fT1CWNMc/tZ024tW8wjxKef1XHe20VAia9JqYjQPNxTg7tFQTXLHDSYYsRw5cqRoeaNh9vPcsWOHqAyPOXtMaIEbknAJmoJnP1wJ76+g7bTBhAcDr68F9/dsKi01cAOTSokl7JuNu/hzg6/F4aPpdpMFvghxFkK82Z5gTVpNbAWDy5WrV6+Gdu3aydnQIDo6WnSHwLww3E3s7NwhZj9PXNJds2YN3HHHHcJmQgfKm5sIjuAxFqEscqwawfNWeYGvxeGj6dbBM/NGjMKatGia6Ly8//77sHjxYmjUqJGYC1awKwGW4di6datYWtV2g7li5fPMly+f2JyBu0CdW/UwwQ1lfiUv0TJWoXLwsMCx6k0Lnus8wddNWuysqVwmhbEHDRs2hEWLFolOGAMHDgyqHD3MkcO+ievXrxd5duXLl5fP0NOrVy/Yvn079O/f3ycHJuNftDtdCijbnjHhRWpSghypoVoiBeHaqYyGqTOa68mU4uTKmjoUmtWrVxclVdCJeeGFF8TGDLtSq1Yt8R7xvU6dOlW53p/RzxOXt7GMADrD+HkxDBLBDj9jkaKF7FHkGLHq4PniesSaOoHQ9JiDp6HZrhEPMxEQ1tTxhyYWzx00aJDI0Vu+fDnce++9Po2MGQXr2GEHhLVr14r+rfgesdRFID5PLC6MUcMpU6aY2pbO2AvX74NVeImWsULe6EgoVIAmakbh4HlboqU6fzrDmjp20jSUg2fmjeUGa+r4UxPnW7RoITZkYC9U3J2F+W3YJQMdK1+Djmbz5s1h7NixwqHDaB12cahQoYL8DfNQfp5RUVHwwAMPwJYtW8R7ZEcv+KDq+MGbLBgrpCXHO85B0lDEHxE8yvOnBmvq2EmTk07CjDJlyogdqh999BEcPnxY9HLFzQf33XcftGrVSrTOsvJlioyMFF0WMBcQ24hNmzZNOE2YU7JgwQIYPny4WJK1a54T5gHie8RSKliWhTdiBA9UO2kjOQePsYCdauAh3iJ4TPjgsQ6eN/ClZuu6eIM1A6+JzeUx2vf333+LMXLmzBkRKUE9bHmFDhDucsUHttAqVqyYiIa5EqyfJ3ZHwA0fWFEey7UwvgNbsWFz9G3btskZc+B3k6KY9axFP8PUz9ZIi2GM0fPaqjCmX0tpqVG3bl1Yt26dtKyBx5Gn3OtgPSfnBmvmrmkqB09Ds81EelhTx+6aGOLHDQ9t2rQRDfHx0a9fP7E7d/DgwSLShY3ncUcqNqHHqJ875w7x5fvU8IUmLl9jpBNzBefPny9qDWKUkqEBP8vWrVuLQt14M4HL+FahWqKNjOQIHmMeyhp4e/bskSPrGK2Dp+GL8ydr6gRSM09mZuZ/zr+ELzTqZSLoaeJrXDVYMwvWDB3NAwcOwCeffCIie+j4MebBm4G+ffuKotOlSpUSc/g3evTRR+HVV18Vtlkc5zBT34ncmPP1epgyb7W0GMYYE4e0gXb1jfXH9gR2ZKFYXt29e/f/i8Pb6fypwZr+04xwnkRcbSN402BNc7Cmjp00cTkacxWxH/BPP/0EDz30EFStWlU+y+RGenq62MW9atUqkZOJLfY0505DpW4jVQ4el0lhrJCWTFMD76+//pIjNZw3z9np/OkMa+r4UlN5TQI9RWpYkxbWpAU1seTM6NGj4fvvvxedN7D2YMeOHf2yMzkYwF3SuDsZy/TgzkDcxY1ladydvPDzVCnOStXNggsdM1YoTuTg7d27V46sg20eMZ+VinA/z1Pjb03lM5oVb9MbrEkLa9Liqom7hzE/cc6cOeIkvWzZMnj66aehR48eoqhyOICObdu2bWHy5MmwYcMG2LFjh6gv2LhxY69/A3xe5aJEloPHZVIYk2ANvKREmq5BFA4e9Q1msJ6TKQgFzQhX74/Cw2RNHdZUI9g0cbNJnTp1RI4Z5usdOnRIJE5jWZpHHnkErr/+elP5FXYE/43VqlUTRaqxAwlG6XDpFXMTb7nlFihZsqT8TeOo5B6RLdGyg8eYJD0lgWxp3xcOXrCdPzVYUw1NgyQHzxXW1GFNNUJBs3Tp0qKwNOaeff3112JTABac/uKLL+DZZ58VTlG9evVsWWQZl04xz7Bnz57w3HPPwZdffimcue+++060mcPd1VWqVMm2vGnl81SJ4HEdPCZQFHc4eFTgOUEVVwfP3+c6q7CmDqVmnhMnTuRwF81caByvz/aG0HN09wZZ0xisGd6aR44cEcnWuGP34MGDYow/0cbC1KdOnRK7pijASFxCQgIkJSWJDSRYBBudUeefrkvMvvq3z5s3D2699VY5Yw7cNYi19FRZuHobjJ2zTFoM452+zWvAw32uk5YaGPnH9AYV8Ebxq6++EmM+J7OmsoNn9GLDmsZgTe+wZtbv4wOLTuPPS5cuiXkstXDu3DkxPnv2rPiJYMs4LE6NDp320Hau2uHf/vnnn8OAAQPkjDkw30+l9Z3G5z/+Bo+9/Y20GMY7D/a8FvpdX1taamD0zfmYtULLli3FzZIngu1cZwTWdE+ONQn0/qhhTVpYk5Zg1MQTAJYawYLU1113ncjtw0eHDh3EcjA+tCLV+MA2dFglHx0hjMppzp1d/u12WKKN4kLHjEmolmixc46qc4d422QRjOc6KsJRM8cZzV24UBXWpIU1aWFNWqxo2sHB4zp4jFmoauBR9KBFvDl4fF6ixe6a2Rw8K56j62u82UZgTR3W1GFNcwSTpsouWqoyKbyLljFLMRvVwEOcHTyqY9MZ1tQJBs08DiOHorami085e5PubKMlH1iTNVkzC9bMqYkN1nEJ2QrYVQSTy1VZsXEPDJ/+pbQYxjOJcXlh5ZTbpKUGFgLHHt+qYMu/8ePHS8s9fF4KH023SSf4IsRZCPFme4I1WdMZ1tRhTbUlWtxYQkHeqCg5YhjvpBNF7xCKEikI7oj3Bp+XwkfTrYNn5o0YhTVpYU1aWJMWs5oqS7Tnz5+XIzVioiPliGG8g0WOqcBi6BQYcfD4vESLnTV52xjDMAFHxcH7999/5UgNdvAYM6SlJMqROljLkQIjDh4TPphy8LSwoYarbQXW1GFNNVhTJ9g07eDg5Y3mJVrGOFQ7aBF/LtHmhj+PdxVYU8ebpsccPA3Ndg0bmgkjsqYOa7KmM6xpFwePI3iMcdKJInjYvYZqJ7iZHDyNQBzvRmBNHauahnLwzLyx3GBNHdZUgzV1QkUTe95ahZdomUCQlhIvR2pQlUhBjOzStMPxbgTW1LGqyTl4DMMEnMjISNEb1wpkDh7vomUMgiUTixayn4OXnJwsRwyj6OC5hhEpYE1aWJMW1qTFWdPqMi2dg8cRPMYYKYlxkC+G5oaAsshxTEyMtNTh8xItgdA0lYOnodlmwoasqcOaOqzJmhqBdvB4kwVjlIwgLZGCWDk2vcGaOnbSzJOZmfmf8y/hC41WW0aw4jK+xlWDNbNgTdY0Amv+B9WqVYODBw/KWeOMHj0aJkyYIC3rON4CXDNsKlzNfi5lmBx0aVgJnhjUWlpqtGzZEr799ltpWad69eqwcuXKoDneWTMLX2pGOE8irrYRvGmwpjlYU4c1dUJdM9ARPHzb0bxMyxggjTCCt3PnTjlSAyN4vjo2nWFNHbtrKm+yQE+RGtakhTVpYU1aNE2r7cqoOlkgsUR5VUxoQ1UD78qVK5ai1u4oXLiwHNHB5yVa/K2p7OBZ8Ta9wZq0sCYtrEmLphnoCB4Sw3l4jAGKE0Xw9u/fT3bRL1q0qBzRweclWvytGeH65aL4srGmDmuqwZo6oa5p1cGjjOBxsWPGCFRLtJQlUtxF8Ox8vDvDmjqUmiQ5eK6wpg5rqsGaOqGuiWUerEAZwcvLtfAYL0RHRkCRRGvfVVeodtAi7iJ4dj7enWFNHUpN8hw8u3u0GqypBmvqsKYamoZVB48jeIw/SUuOhwisdEwAZQSvSJEicpSF3Y93DdZUw5MmeQ6e3T1aDdZUgzV1WFMNTcMWETzOwWO8QJV/h1BG8FwdPLsf7xqsqYYnzRwOHoVH6Qpr0sKatLAmLVY17RDB4360jDfSkxPlSJ3du3fLkTquDp47+LxEi901czh4FB6lK6xJC2vSwpq0WNWMi4uTI3OcO3dOjtThCB7jDcoaeLt27ZIjNbCXs5E+tHxeosXumtkcPCueo+trvNlGYE0d1tRhTXMEm6YdInj5OILHeIFqiRa/tydOnJCWGikpKRARkT1eQ3lsarCmTjBo5nEYORSx9QWCTzl7k+5soy01WJM1WTML1nSvOX36dBg2bJgYmyEtLQ0OHDggLTUee/Mr+HztDmkxTE7eH9UbqpT0vhzqjd9++w2qVKkiLTWwzd/mzZul5Rk+L4WPpttNFvgixFkI8WZ7gjVZ0xnW1GHNLOLj4+XIHKQ5eNyqjPFCsSRr31NXKHfQpqeny5F3+LwUPppuHTwzb8QorEkLa9LCmrRY0bTq4J09e1aO1MkXEy1HDJOTuLzRUCg+VlpqBMrB4/MSLXbWdOvgMQzD+BurDt6lS5fkSJ38+djBY3KHskQKpYNXvHhxOWIYHVMOnhY21HC1rcCaOqypBmvqBKOm1U0WqHHx4kVpqRHLETzGA+kpdCVSfv/9dzlSx0wELzf8fbxbhTV1vGl6zMHT0GzXsKGZMCJr6rAmazrDmllYjeAhp8+ckSM1OILHeCKdMIJHWQMvIyNDjrxjl+PdG6ypY1XTUA6emTeWG6ypw5pqsKZOKGmqOHhnTp+WIzXi8sXIEcPkpDhhBG/nzp1ypI5KDl6gjndvsKaOVU3OwWMYxhYoOXhEEbzYvBzBY3InowiNg5d54gRZWkFUVBQULVpUWgyjo+TguYYRKWBNWliTFtakxVkTc/Cs3qmeporg5eUIHpM7GYVpHLw/CDdYFCtWTHSyoIbPS7QEQtNUDp6GZps5GbOmDmvqsCZrauBFKjbWWgkKsgge5+AxuRAZkQdSiWrgUebf4fIsn0OMEW6aeTIzM/9z/iV8odFqywhWXMbXuGqwZhasyZpGYM0sjUqVKsHhw4flM8aZP38+dOvWTVrW2bn/GPQa/4G0GEanZJFEWPjkAGmpMWHCBBgzZoy01Lj55pvh3Xff5XMIa8oZXTPCeRJxtY3gTYM1zcGaOqypEw6a+fPnFz/NQhXBy58vSo4YJjslCheUI3V27dolR+qUK1dOjnx7bGqwpo7dNZU3WaCnSA1r0sKatLAmLc6aVmvhUeXgxcZwDh7jnhJF6By8HTvo+h2XL19e/ORzCC2hoKns4FnxNr3BmrSwJi2sSYuzplUHjyqCVyCWHTzGPVQ7aJHt27fLkTqag8fnEFpCQTPC1fuj8DBZU4c11WBNnXDQTEiwVkj25MmTcqRG3ugoyBtFvyORCX4yiJZoMdqMeVNUlC1bVo5yYvfjXYM1dSg1SXLwXGFNHdZUgzV1wkHTTHKxMydOnJAjdeLj8soRw+hkFKHpYkG5gxaPl+TkZGnlxO7HuwZr6lBqkufg2d2j1WBNNVhThzXVcNZISkqSI3NQOniJ+dnBY7KDJVKKJdnPwatQoYIcBefxjrCmGp40yXPw7O7RarCmGqypw5pqOGvYIYKXEMsOHpOd4skJEE20dB+oHbRWYE2dYNTM4eBReJSusCYtrEkLa9Kiomk1gpeZmSlH6sRzBI9xoQThBgtfOXhG4PMSLXbXzOHgUXiUrrAmLaxJC2vSoqJpNYJH6eAlsIPHuFDS5iVSjMLnJVrsrpnNwbPiObq+xpttBNbUYU0d1jRHMGpyBI+xI+mERY4pS6RUq1ZNjnx/bCKsqRMMmnkcRg5FbQs3PuXsTbqzjd5xsyZrsmYWrJm75oYNG6BOnTrSMg5qXr16VVpqvLrwR3ht8S/SYhiAaXd3gmurlZKWdbBeY3w8TT/bqKgo2L9/P+TNm9cvx6YnWNOemm43WeCLEGchxJvtCdZkTWdYU4c1dTyVfPAE/v/+/fdfaanBETzGlYzCNDl4lDtosf4dOneIP45NT7CmPTXdOnhm3ohRWJMW1qSFNWmxqmnVwUO0u15VEvLnkyOGAYiKiIBiyfYrkVK5cmU5Mgefl2ixs6ZbB49hGCYQxMXFQb581hwsqlIpheJj5YhhsgocxxCVSLGDg8eED6YcPC1sqOFqW4E1dVhTDdbUCWbNokWLypE5jh07JkdqFCzADh6jU7qotY0/7qAskeLs4AXz8W4W1tTxpukxB09Ds13DhmbCiKypw5qs6QxrZqdYsWJyZI6jR4/KkRqFCvASLaNTppixxHgjbN26VY7UqVKlihwF9/GeG6ypY1XTUA6emTeWG6ypw5pqsKZOKGqmpqbKkTmoIniJHMFjnCiVShfB27JlixypERsbC6VKWdvVa7fjPTdYU8eqJufgMQxjKwIdwYuPzQvRkXxqZLIonUoTwTty5AicPXtWWmpUqlQJIiNp8gKZ0EXpLOYaRqSANWlhTVpYkxZ3mlYjeEeJInh4s5zIy7SMpARRFwvKAse1a9eWoyz4HEJLqGiaysHT0GwzYUPW1GFNHdZkTVcsR/COHJEjdZJ4mZZxUKRgHFldREoHr2bNmuKnv4/N3GBNHTtp5snMzPzP+ZfwhUarLSNYewpf46rBmlmwJmsagTV1jaVLl0KfPn3E2AytWrWCb775Rlpq3P7CAli7Y7+0mHClYaV0mDG8m7TUuP/+++HFF1+UlhobN26EGjVqSCsLPoewpoZmRzhPIq62EbxpsKY5WFOHNXXCRbNIkSJyZA7McaIiJSG/HDHhDFX+HbJt2zY5UgPrROZWA8/XxybCmjp211TOJEZPkRrWpIU1aWFNWlw1rebg/f3333KkTkpinBwx4Uwpwhp4mzdvliM1sFdzdHS0tHT4HEJLKGgqO3hWvE1vsCYtrEkLa9LiqpmSkmJphyCWSbl69aq01ChckB08BqA0UQ28c+fOwaFDh6SlxjXXXCNH2eFzCC2hoBnh6v1ReJisqcOaarCmTrhoYnTCShQP/7/Hjx+XlhqFOYLHOChVlGYH7Y4dO+RInXr16smRd4LheEdYU4dSkyQHzxXW1GFNNVhTJ5w0S5YsKUfmOHjwoBypwRE8JiE2xvE9iJeWGpQ7aOvWrStH3gmW4501dSg1yXPw7O7RarCmGqypw5pquNMsUaKEtMxx4MABOVKDHTymUonCjgulNBShcvCSkpKgYsWK0sqOv45NVVhTx9ea5Dl4dvdoNVhTDdbUYU013GkGOoKXksAOXrhTpYS13dzuoOpB26xZM4iIcH/Z9texqQpr6vhaM8c3hcKjdIU1aWFNWliTFgpNqxE8KgcvNm+0WKJjwpeKGYXlSB2qHrRNmzaVI2vweYkWu2vmcPAoPEpXWJMW1qSFNWmh0LQawaNaokWKFiogR0w4Uokogoc7aKk2WWAETwU+L9Fid81sDp4Vz9H1Nd5sI7CmDmvqsKY5glkz0Dl4SPGUBDliwo3YmCgoSdSDdtOmTXKkRnx8PNSqVUtaOfHXsekMa5rD35p5HEYORWx9geBTzt6kO9toSw3WZE3WzII1vWteuXIFYmNj4dKlS3LGGNWrVye7oD43dxW89+1GaTHhRJ2yxWD2Qz2lpcb06dNh2LBh0rLO9ddfDx9//LEYB/LYdAdr2lPTbbYmvghxFkK82Z5gTdZ0hjV1WDMnWOg4IyNDWsbZuXOnHKnDEbzwpVqponKkzvr16+VIjcaNG8tRYI9Nd7CmPTXdOnhm3ohRWJMW1qSFNWmh0CxfvrwcGefChQv/v/tVJY0dvLCldvnicqTO2rVr5UgNZwdPBT4v0WJnTbcOHsMwTKCpVq2aHJnjjz/+kCM1iiezgxeORDiurTXLFpOWGhcvXiTZQZuQkCB60DKMGUw5eFrYUMPVtgJr6rCmGqypEwqaVatWlSNz7N27V47U4CXa8KRsWjIkxcdKSw107iiOm+bNm4sWfhqBPjaNwpo6gdD0mIOnodmuYUMzYUTW1GFN1nSGNd1j1cHbs2ePHKmRP18M2YWeCR6uKZcmR+r8/PPPcqRGy5Ytxc9QPt5dYU0dq5qGcvDMvLHcYE0d1lSDNXVCWRMdvNyq9nuCKoKHlE01tuuNCR3qEObfffvtt3KkRqtWrcTPUD7eXWFNHauanIPHMIwtiYuLg9KlS0vLOLt375YjdcoVT5YjJhzA/Ls6hBG8ZcuWyZF1KlWqBOnp6dJiGOMoOXiuYUQKWJMW1qSFNWnxpmllmZaqawBSphg7eOEE9p9NKUjThxhTBY4dOyYt62D9O2/wOYSWUNE0lYOnodlmwoasqcOaOqzJmp6wspMWd9GeP39eWmqUTUuSIyYcaF6zjByps3LlSjlSQ1ueRex0bDrDmjp20syTmZn5n/Mv4QuNVltGsOYUvsZVgzWzYE3WNAJrutecN28eDB06VM4aZ8OGDR7bOhnlnzPnofmDb0iLCXU+GnMTVEhPkZYagwcPhrfeekta1sDyKEeOHIG8efPKmdzhcwhramh2hPMk4mobwZsGa5qDNXVYUyccNa3upN26dascqVGwQCwUTswvLSaUKZYUD+WL0zh3yDfffCNH1unYsaMh507Dn8emBmuaw5+aypss0FOkhjVpYU1aWJMWT5oVK1Y0dTerQeXgIbXK0BS9ZexNixqlHRdGaSiyb98+2L9/v7Ss07On8X64fA6hJRQ0lR08K96mN1iTFtakhTVp8aSJz9WtW1daxtm0aZMcqVODHbywoEWtsnKkzueffy5H1sFd5G3btpWWd/gcQksoaEa4en8UHiZr6rCmGqypE66aDRo0kCPj/Prrr3KkTo0yqXLEhCqpSQXgmgp09e8WLFggR9Zp06YNxMaqFdoOxuMdYU01NA2SHDxXWFOHNdVgTZ1w1axfv74cGefAgQNw/PhxaalRuUQRiImKlBYTinRrXAUisAgeAadOnYLly5dLyzqdO3eWI+sE4/GOsKYamgZ5Dp7dPVoN1lSDNXVYUw1vmtdcc022PpxGWbNmjRypERMdCdeU42XaUAX9ug4NK0pLnaVLlyofFxi5wwieGQJxbFqBNXV8rUmeg2d3j1aDNdVgTR3WVMObZv78+S3Vw/vxxx/lSJ2Wtenysxh7gb1n01MKSkudhQsXypF10LnD770ZAnFsWoE1dXytmcPBo/AoXWFNWliTFtakxReaVvLwvvvuOzlSBwvgEq3gMTajSxNrpXjccfnyZZL8u5tuuonPIcSEo2YOB4/Co3SFNWlhTVpYkxZfaFpx8FavXg2XLl2SlhqFCxaAhpUzpMWECkULxkGbuuWlpc6KFSvg3Llz0rJG0aJFRfcKPofQEo6a2Rw8K56j62u82UZgTR3W1GFNc4SSZqNGjUyf+K5cuUJaLqVP85pyxIQK/a+vTbqBRrVzBdK7d2+IjDT/nowcR2ZhTZ1g1MzjMHIoYusLBJ9yPqm6s40WIWVN1mTNLFjTmmbNmjVNO2xPPvkkPPbYY9JS4+rV/6DL2Hfgr6On5AwTzCTExsCipwdDAcdPCk6ePAnJycnixkKFbdu2QeXKlcWYzyGsqaLpdpMFvghxFkK82Z5gTdZ0hjV1WNMYrVu3liPjfPjhh3KkDpbRuLFpdWkxwU7fljXJnDvko48+UnbuGjZs+H/nDuFzCGs6Y1bTrYNn5o0YhTVpYU1aWJMWX2iaLRuBYDRk9+7d0lKnc+PKkDeaa+IFOxi960285P7666/LkXUGDRokR1nwOYSWcNN06+AxDMPYDayHl5SUJC3jzJs3T47UKVggFjrWp6uZxgSG2zvUh0Lxal0inNm1axf8/PPP0rJGfHw89OnTR1oMo44pB08LG2q42lZgTR3WVIM1dUJRExPPO3bsKC3jzJ07V45ouLF5DTligpHSqQWhF/HfcNasWXJknSFDhkBiYqK0PGO3YzM3WFMnEJoec/A0NNs1bGgmjMiaOqzJms6wpjFQo1u3btIyzoYNG2Dz5s3SUqdSRmGoX5GubynjXx7s2QyiCXfOnj17FqZNmyYta0RERMDdd98tLZ1gOjadYU17aBrKwTPzxnKDNXVYUw3W1Ak3zaZNm0KRIkXkjHFUL8Cu3NrOfH9cJvA0q14SmlQrKS0aZsyYIZw8FTp06ADlypWTlk4wHZvOsKYaVJqcg8cwTNCAy7RWmrDjElrmiRPSUqdepXSoU5b70wYTiXF54dG+LaRFw4ULF2DSpEnSss7w4cPliGHoUHLwXMOIFLAmLaxJC2vSYkXTyjItlq94m6AIrTOD29aVIyYYGNe/FRQtFC8tGt599104duyYtKxRvXp1aNmypbSswecQWkJF01QOnoZmmwkbsqYOa+qwJmsaRXsN1grDdk5mmTx5snKdMmeaVi8FdcunSYuxMz2vrQotapWVFg1Xr16FCRMmSMs6nqJ3vjyONFhTJ9Q082RmZv7n/Ev4QqPVlhGsuIyvcdVgzSxYkzWNwJrmNO+55x5LeXVffvkltG/fXlrqbN7zNwx87mO4mv38y9iIssUKwZyRvSF/3mg5QwOW3+nZs6e0rJGRkQG//PILxMTEBOQ48gZrBrdmhPMk4mobwZsGa5qDNXVYU4c1dXr16iVH5njppZfkiIbqZVKhdW3ayBBDR1J8LLw4rCO5c3fp0iV4+OGHpWWdBx54QDh3SCCOIyOwpk6waSpvskBPkRrWpIU1aWFNWqxoNmnSBNLSzC+PfvXVV6IoLSV3d20MeQnLbjA05IuOgql3dYKMwgXlDB2vvPIK7NmzR1rWwOhd3759paUOn0NoCQVNZQfPirfpDdakhTVpYU1arGhi3bAePXpIyxzPPPOMHNGQUaQgDG3HGy7sRKTjOzXxlhugainzuZrewE0VI0eOlJZ1nKN3FPA5hJZQ0Ixw9f4oPEzW1GFNNVhThzWzY3WZdvbs2fDXX39Ji4aBN1wDZVKN580wviMyIg+MG9AKWtQqI2doGTNmjCiPooK76F2gjiOzsKaO3TVJcvBcYU0d1lSDNXVYMzuNGzeG9PR0aRkHT37PPvustGiIiYqEx/q1dJxQ5QQTEPDv8OzQttCpUWU5Q8umTZtg5syZ0rLOiBEjckTvAnUcmYU1deyuSZ6DR+l9arCmGqypw5pq2EkTl2lvvPFGaZnj1VdfhcOHD0uLhtrl0qDPddynNlDgRoqX7+oIrerk7AhBAX4v3bUTM0vVqlW9Ru+sYPU48gRr6gSjJnkOnt09Wg3WVIM1dVhTDRVNq8u0WMNsIkEHAleG97gWKmekSIvxF0ULxsHM4V2hYeUScoYe3IH93XffScs6U6ZMgejo7Lt6Q/HYzA3W1PG1Zg4Hj8KjdIU1aWFNWliTFn9qNmjQAEqXLi0tc7zsuGD//vvv0qIhJjoSnr2tHcTF0iXPM56pX6E4vD+qN1QvnSpn6Nm2bZtYVlWlU6dOcMMNN0jLM3y80xKOmjkcPAqP0hXWpIU1aWFNWvypifMDBgyQljnwRDp69Ghp0YFlOUb3vk5ajK/AfMdb29WFGcO7QXJinJyl5/z589C9e3cR9VUBc+6wm4pR+HinJRw1szl4VjxH19d4s43AmjqsqcOa5ggXzUGDBlk+KX700UeikwA1HRpWEs4H4xtSkwrAtLs7w11dGkGEj3e2PPLII7Bjxw5pWQe7r1SoUEGMVb/z7mBNHdbMIo/DyKGIrS8QfMr5xOnONtpSgzVZkzWzYE16TVz6Wr16tZwxR7NmzWDlypXSosPxtuDxt76Cz9eqOwdMFlgC5abmNWBY54aQP5/vl8GXLFkC7dq1k5Z1ihQpAj/99BMkJiaSfeeD5dhkzSwCoel2kwW+CHEWQrzZnmBN1nSGNXVY0xieNPv06SMt86xatQo++OADadGBb3PsgOuhceUMOcOoUCk9Bd5++EZ4sFczvzh32KnC6iYeV5577jnh3CFU33lnWNMY4abp1sEz80aMwpq0sCYtrEmLvzW7du0KBQoUkJZ57rjjDsg8cUJadERFRsBzt7cXGwEYa+By7Nh+LeG90b2hmg86U7gDu1W0aNECTp8+LWes06VLF+jcubO0zMHHOy3hpunWwWMYhgkm0LlTieKdOnUKHiFoHu+OuHwxMO3eLtC6dlk5wxghKT4WHujeBBY+0R+6XVsVIiP8c7n6999/oWPHjrBv3z45Y52kpCTyotoMYxRTR4wWNtRwta3AmjqsqQZr6oSjJkbhsPixVd544w2SOmfuwA4LE4e2hQ71spLsmdxJSYiF+7o2gi/GD4QBbepA3ugo+YzvwZ2yN998M6xdu1bOqDFp0iQoXLiwtLKw+3GkwZpq2EHT7dkwNxHXsKGZMCJr6rAmazrDmsbwplm2bFlo3ry5GFtl8ODBoiyGL8Dl2qeGtIGhba/hlmZuqFGqCDw9uDUsenowDG5bV3Sm8De4Y3b+/PnSUgPr3WGnlWA7jjRY0xh21nTr4Km8sdxgTR3WVIM1dVgzO7fddpscWQMLH993333SoifC8Z7v7toYJt/WHhK4GLKIbHZqUBHeHdkL3hnZG9o3qCTm/A1eQEeNGmWqTp0ncNcsdr5QJVDHkVlYU8dOmv5JamAYhvEDbdq0gXLl1NSCSVMAAA18SURBVHqRvv7666I+ni9pWbssfPR437DcfIHRy7rl02BM3+awdOJgeGpwG79tnnAHLssOGzZMLKdSgGkCM2fOhKJFA/dvYhhEycFzDSNSwJq0sCYtrEkLtSbe6apG8RDMw9q1a5e0fENqoXiYeX93mDikDRQqkE/Ohi7liyfDXZ0awOdPDYA3RvSAns2qQ6H4WPlsYLhy5QrccsstMGPGDDmjDkYCPaUK8PFOC2vmjqkcPA3NNhM2ZE0d1tRhTdY0ilHNgQMHQqlSpcTYKpcvXxa7ci9evChnfAP+89vVrwjzxvaDm5pXh+jI0FlUwX9Lg4rpMKJHE/j0iX7w8WN94dYO9aF4SlY9uECDu2WxvM5bb70lZ9TBotn333+/GPvzO8+axgg3zTyZmZn/Of8SvtBotWUEKy7ja1w1WDML1mRNI7AmreYLL7wADzzwgLSsgztzp0+fLi3f89fRf+CtJetE94uLl6/I2eChaME4aFqtFDSpVhLqV8oQJWLsCNa5w/6ylLumU1NTYcOGDeKnN/h4Z00NX2pGOE8irrYRvGmwpjlYU4c1dVjTOLjEWrJkSWlZB5fu/FnHLKNwQXisfytYNH4g3Nmxvijya2fQoWtftzyM7nMdfPJ4X1gycQiM6dcSWtQqa1vnbs2aNVClShVS5y42NhYWLFhgyLnToP7OI6ypw5oEmyzQU6SGNWlhTVpYkxZfaEZHR8OIESOkpQaWzpg7d660/EOKw3G6vWMDh6M3CGbe1xV6Na0m6sMFmjKphaDntVVhwqDW8OX4AbB00hB4emhb6NW8BpRLS3ZcWOQv2pSpU6dC48aN4ejRo3JGHbyYvvzyy9CwYUM54x0+3mlhTffkOXHiRI5nCxYsKEfewfCgEVjTGKzpHdY0RrhrYgJ9o0aNSDZL4EV8xYoVIscqUFy9+h9s/+sorNu5H352PLb8cQQyT/umZl++6CgonVoQKhRPgYoZhcWjfHoKJOTPK38juMCWY0OHDvXJ7uixY8fC8OHD+dg0CGt6h0qTJAfPFdRgzSxYkzWNwJrZodLEorW4S5ICXIZbt24dVK5cWc4EnqP/nIHdBzJh35F/4FDmKTh0/DScOHMe/jn7L5w6dwH+vXhJ/ibAJYeDGB2RBwrki4G8MVGQEJsXCsXnh8KJ+SElMU48ShQpCBmFE6BwwXjH5y9fGOTg36x3796ixiE1AwYMEPXuQv04coY1g0eTI3gusKYxWNM7rGkMX2viTsmVK1dKSw18DxjJq1mzppxh7Mq5c+fgqaeeIqtv50qLFi3E0j2mAyB8bBqDNb1DpUmeg+dqW4E1dVhTDdbUCVfNKVOmQL58NHXm8GTaoEED+OGHH+QMY0cWLVokCl77yrnD78CcOXP+79yZJRiPI4Q11fC3prKD5xxaRFxtK7CmDmuqwZo64aqJPWop249duHBB5OJ99dVXcoaxC4cPHxZ1EDt06ACHDh2Ss7TUq1cPPvnkE4iLi5Mz5gnG4whhTTX8rZnDwaPwKF1hTVpYkxbWpMWOmlh8tkKFCtJSBzdwtG3bVpTGYALPmTNn4Omnn4YSJUrAO++8I2fpQedu3rx5UKBA9vI1fGzSwpo05HDwKDxKV1iTFtakhTVpsaNm3rx54fnnnyd9b3gixmK5WHqDCQzYjeLFF1+EtLQ0ePTRR33aeaRGjRpiF258fLyc0eFjkxbWpCGbg2fFc3R9jTfbCKypw5o6rGkO1tRBu0mTJnDjjTfKGTruvfdeUVgZk/oZ/3Dp0iV49913RZ4dRmexDIovwe/OZ599JpLfffX9dIY1zcGaOs52HoeRQ1HblYFPOXuT7myj23lZkzVZMwvWDJwmOgK4zLZjxw45Q0f16tVFbhblUjCTHVyKfe+998Ry7L59++Ssb+nWrZv4f2KZHE/wscmadtN0u8kCX4Q4CyHebE+wJms6w5o6rGkMCk1cXsNltvz588sZOjZv3ixq5OGSrfZeGRr27NkDo0aNgqJFi4r+wP5y7m6//XbhtHtz7hA+NlnTGTtounXwzLwRo7AmLaxJC2vSYmdNzKWaOXOmtGi5evWqWLJt36GD35yQUAUvckuXLoV27duLndBY8sRfy+D4XcMWdfj/jIhwe5nMAR+btLCmOsa+uQzDMCFEv379yDpcuGPJ4sVQpkwZmDx5Mly+fFnOMkbYu3cvTJgwQTh1uFMZP0t/glFe3Ik7cuRIOcMwwYkpB08LG2q42lZgTR3WVIM1dVjTO9OmTYNatWpJix4spfLQQw9BtWrV4IsvvpCzjDuwfh0ubdevX184xmPGjBGOnr8pX748fP3119CxY0dhh9p33hOsqRMqmh5z8DQ02zVsaCaMyJo6rMmazrCmMag1sbvF22+/DUlJSXLGN+CGjk6dOomdmD/++KOcZTJPnBCf//XXXw+pqaliafvnn3+Wz/qfHj16iDZ0FStWlDOh951HWFMn1DUN5eCZeWO5wZo6rKkGa+qwphpYGPe1116z3HLKDNjerHHjxuLx5Zdf5jiJhwO//fYbPPvss9CqVStISU6GQYMGwbJly+SzgQFrJD7zzDPwxhtvKG2+CZbvPGvqhLom5+AxDBPWoLMxffp0w8n0qmAUD5cAq1atCjNmzICTJ0/KZ0IP/Ldh5wfMd0x2OHRVqlQRmxeWL19uCwcX3w8uyd52221yhmFCB6Uzmi8OUNakhTVpYU1a7KKJy3MYWfInGM268847xRLxgAEDhNODeXvBzPHjx0VB4AcffFDUG8TCwD179oTZs2dDZmam/K3AExUVBcOHD4dvv/1W1C/MDT6OaGFNWrxpmsrB09BsM2FD1tRhTR3WZE2j+FoTo0yjR4+Wlv/A0ipz5swRkcTExEQYMmSI2JQRDJ0x/vzzT9FRAuvFYYHnlJQU6NKlC0yZMgV++eUX+Vv2AmsVYvmVsWPHQkxMjJij/i4hrKnDmoHRzOO4q/rP+ZfwhUarLSNYcRlf46rBmlmwJmsagTXto4m7azHhH58PJPheGzZsKDYhNG/eHOrWrQsJCQnyWf+CnwUWG96wYYN4rFu3Dn766Sc4ceKE/A37g8WK8e+KkTvc1GEUPo5YUyPYNPM4DtAcZzEMqxsFxY3AmsZgTe+wpjFY0zu5aWIh5GHDhonomp1IT08Xjl7t2rVFSY9SpUqJBzoszid4K5w9exYOHjwoSpbs3r0bdu3aBTt37oTt27eL5eRgXj6+4YYb4LnnnoOMjAxh83feGKzpHTtrKjt4eAdn5MTCmsZgTdb0BGsag0ITl02HDh0KFy9elDP2Bf+t6OThRgZ8YF4fPiIjI+Vv6KAjd/78eXFhwN6u6NDt378/6PP/3IHLsbhDtmnTpnImC/7OG4M1g1uTI3gusKYxWNM7rGkMO2uuXr0aunfvDkeOHJEzTDCAkc4RI0ZA//793Tq5/J03Bmt6x86aEbhW64yrbQXW1GFNNVhThzXVsKKpFSfGkiaM/SlcuLDYPIEbPLDGHjp3dvkueYM1dVhTDU0jwjW0ZyR86A3W1GFNNVhThzXVsKqJrbOwSHGHDh3kDGM3MA/xpZdegk2bNolNFFi8WMNO3yVPsKYOa6qhaShX9gw2j1aDNdVgTR3WVCMYNHH3KubkYUFklW4HDC242QTbneGGENwh6+zYIeHy/URYU4c1s1B28ILNo9VgTTVYU4c11QgmzT59+ngtjsv4FixS3K1bN/F3WL9+vSgSjXNIMH2XnGFNNVhTx9nO4eBReJSusCYtrEkLa9IS6ppY0BfbW2G3BteIEeM7SpYsCU899ZQorjx//nxRG9AK/J2nhTVpodTM4eBReJSusCYtrEkLa9ISDpro2D366KPw/fffW3Y0GO9gcWKMmi5atEgUWh4zZgykpaXJZ63B33laWJMWSs1sDp4Vz9H1Nd5sI7CmDmvqsKY5WFPHV5rlypWDBQsWwKxZs6BYsWLyGUYFXG5t3bo1zJgxQ+TWffDBB9CuXTuIiPCeUeSvv7szrGkO1tTxtWYeh5FDUaurgk85e5PubKMtNViTNVkzC9YMTU0sHowdMCZOnMh180ySL18+4dR17doVOnfuLHraavD3kzVZMwuzmm5vifBFiLMQ4s32BGuypjOsqcOaxrC7Ji4nYokOTPwfN26c6CjB5A4utQ4cOBA++eQTOHbsGHz22WcwZMiQbM4dwt9P1nSGNXW8abp18My8EaOwJi2sSQtr0hLOmnFxcXDffffBxo0bYcqUKaJdFpP1uWBP2EmTJsGaNWvgwIED8NZbb0GPHj3Ec7nB309aWJMWO2t6T2pgGIZhTINOC0aksEgylvTo3bs3REdHy2dDH+wiUatWLRHVxDxF3CTx4Ycfwu233w4VK1aUv8UwjK8w5eBpYUMNV9sKrKnDmmqwpg5rqkGtiY4OFkneunUrPP/889CsWTO3PVKDmcTERGjVqhWMGjVKOHR//PGHcGyxddh1110HMTEx8jfD5++OsKYOa6phVtNjDp6GZruGDc2EEVlThzVZ0xnWNEYoaGKv1MGDB8PChQth+/btYlMGLlt6WqK0K7iDGIsM425XbBGWmZkJH3/8MTz88MOidEyBAgWC8m/kDGsagzV17KMJ8D+gRFQ7GesM9AAAAABJRU5ErkJggg==;" vertex="1" parent="1">
          <mxGeometry x="1840" y="1650.0000000000002" width="44.5" height="46.19" as="geometry" />
        </mxCell>
        <mxCell id="0VNToS_IOA-vj3WojO3x-13" value="PostgreSQL" style="text;html=1;align=center;verticalAlign=middle;resizable=0;points=[];autosize=1;strokeColor=none;fillColor=none;" vertex="1" parent="1">
          <mxGeometry x="1750" y="1658.09" width="90" height="30" as="geometry" />
        </mxCell>
        <mxCell id="0VNToS_IOA-vj3WojO3x-15" value="" style="image;aspect=fixed;html=1;points=[];align=center;fontSize=12;image=img/lib/azure2/integration/SendGrid_Accounts.svg;" vertex="1" parent="1">
          <mxGeometry x="1550" y="1330.5" width="44.21" height="45" as="geometry" />
        </mxCell>
        <mxCell id="0VNToS_IOA-vj3WojO3x-16" value="SendGrid" style="text;html=1;align=center;verticalAlign=middle;resizable=0;points=[];autosize=1;strokeColor=none;fillColor=none;" vertex="1" parent="1">
          <mxGeometry x="1537.1" y="1375.5" width="70" height="30" as="geometry" />
        </mxCell>
        <mxCell id="0VNToS_IOA-vj3WojO3x-17" value="" style="shape=image;verticalLabelPosition=bottom;labelBackgroundColor=default;verticalAlign=top;aspect=fixed;imageAspect=0;image=data:image/png,iVBORw0KGgoAAAANSUhEUgAAAWkAAAFJCAYAAABZ19x4AAAAAXNSR0IArs4c6QAAAARnQU1BAACxjwv8YQUAAAAJcEhZcwAADsMAAA7DAcdvqGQAACppSURBVHhe7d0HeFbV/QfwX0L2DtkhEJJACCHsJUtEBRUFB+IA997aWmvVv20d1WodtVq3uBUVRBQFFRFR2bKSMBJISAKB7L1J8r/n7Y9HShEyzn3fc8/9fnis53uhfZ5C+Obe+57h1m4gAABQkjv/GwAAFISSBgBQGEoaAEBhKGkAAIWhpAEAFIaSBgBQGEoaAEBhKGkAAIWhpAEAFIaSBgBQGEoaAEBhKGkAAIWhpAEAFIaSBgBQGEoaAEBhKGkAAIWhpAEAFIaSBgBQGEoaAEBhKGkAAIWhpAEAFIaSBgBQGEoaAEBhKGkAAIWhpAEAFIaSBgBQGEoaAEBhKGkAAIWhpAEAFIaSBgBQGEoaAEBhKGkAAIWhpAEAFIaSBgBQGEoaAEBhKGkAAIWhpAEAFIaSBgBQGEoaAEBhKGkAAIWhpAEAFIaSBgBQGEoaAEBhKGkAAIWhpAEAFIaSBgBQGEoaAEBhKGkAAIWhpAEAFIaSBgBQGEoaAEBhKGkAAIWhpAEAFIaSBgBQGEoaAEBhKGkAAIWhpAEAFIaSBgBQGEoaAEBhKGkAAIWhpAEAFIaSBgBQGEoaAEBhKGkAAIW5tRt4DDbR1t5K2WVbKb8qi/aUbaGKxhIqqy+k5kON1E5t/KvACtzdPMjXM5B6+kZTuF8MJYUNofjgAdQ3NJV/BVgdStpGdpX+Qr8Ufk/bi9dSlVHMoK/owARKixxPw2MmU5+QAXwVrAglrbnm1kZau28Zrc5bQvurs/kq2En/sBE0se95NMIobLAelLTGfsxbTN9kv0eVjcV8BeysT0gqnZV8hXGHPY6vgBWgpDW0s3QjfbHzDcqv3M5XAH41yCjpmSk3UGxQIl8BlaGkNdLS1kyf73yNVuZ8zFcAjs3drQedk3I9TU26lK+AqlDSmthfvYfe2vwoHazJ4SsAJybuqi8fdh/5ewXzFVANSloDmw78QG9vesgxtQ6gs4J9Iui6kQ9j2p6iUNIWtyL3E1qU+QIngK5xI3e6aezfKTViLF8BVaCkLeyrrLdpadY8TgDdd/PYJ1HUisGycIv6Ye8iFDRI99K6P9Ke8m2cQAUoaQsSU+wWZPyTE4Bc/153D5XVH+QEroaStpja5ip6df39nADka2ltpJc3/IkTuBpK2mLe2fwYtbQ1cQIwx8GaXPp85+ucwJVQ0haytegn2lGylhOAub7d/S6V1h3gBK6CkraIduPHx+nPcgJwjo8ynuYRuApK2iK+zn6PqhtLOQE4x86SDbSzdAMncAWUtAXUNFXSV5huBy4yfxue4FwJJW0BCzKfp/Z2nJgCrlFWv5++z13ACZwNJa24/MpdtKlwOScA1/hix6tU31LLCZwJJa24D7Y9xSMA1xHTPj/b8RIncCaUtMI27F9O+6uzOAG41pr8JXSgJpcTOAtKWlFi29EFGf/iBKCG9/Fk53QoaUV9sWse1bdUcQJQQ15FBqUXreYEzoCSVlBFQzEt3/0eJwC1zE9/2rG4CpwDJa2gj7CyEBQmFlUty8ZNhLOgpBWzu3wrZRbjcRLUtizrTapuquAEZkJJK2b+tmd4BKAufLDtPChphfyYt5iKavdyAlDb5gMrHIutwFwoaUU0HWqgxTte5gRgDR9s+wePwCwoaUUs3vmKUdT1nACsYX91Nq3fj20LzISSVkBxbQH9uHcRJwBrWZDxHLW0NXMC2VDSCvgYh8qChTW0VNOXu97kBLKhpF0ss3gd7SrdyAnAmr7b8wFVNpRwAplQ0i42H3shgCbESkSQDyXtQityP6HKxmJOANaWWbyGssu2cAJZUNIuUt9SQ5/veIUTgB6w/7l8KGkXWZj5ArW2tXAC0ENpXQH9mPc5J5ABJe0C+6t30/p9yzgB6GXxjpeoubWRE3QXStoFPtiGD1icIdw/jpJ6DqWBEWOpT0gqBfmE88+AmcSirEXbcdSWLG7tBh6DE2w+uIrmbXyQE8gminlM3Bk0yCjmuOD+5O72632IWHq/r2Y3bS5cSavzl1AL7vZM9ecp71OE8ecB3YOSdqK29jb6v+UXUk1TGV8Bmc5KvprO7H+5Ucw9+MpvK6svNB7LX3NsEgTmSOo5jO4a/xwn6Cq87nCipdnvoKBN4GZ8Gd8y9imannxVhwpaCPOLpWtG/oXOT72Nr4Bse8q30PaSdZygq1DSTlLVWEpfZ73NCWS6Y/w/aWDEaE6dc2ribDp/EIraLB9uw1Fb3YWSdpIFmc8bX6ptnECWC9Puon49h3LqmlMTZtPg6JM5gUyVDUW0fM98TtAVKGkn2FuxnbYcWMkJZIkJTKLJfc/n1D1zh9xDnu7enECmrxwn39dwgs5CSTsBVmGZ46zkK3nUff5eQTS291mcQKZDbc3Gk+QLnKCzUNImW1PwFR2o2cMJZPHzDKLBUeM5yTE27gwegWwb9i1zLOKCzkNJm0hshP5p5r85gUyJPdPIw92TkxxiXnWAVygnkA2LuLoGJW2iJbveoMZDtZxApsiAPjySR5Q+Fl+YJ79yO/1S+D0n6CiUtEnK6g/SCnyqbRpfz0AeyRXgjTtpMy3M/JdjURd0HEraJB+lP8sjMINZC2XdjB9gnpqmclqW/Q4n6AiUtAmyyjbTjpK1nMAc5pQ0Fl6Yb1n220ZZV3CCE0FJm+CDrf/gEQAcrb29zXjSxOHLHYWSluzHvMVUVr+fk/5CfKNoSPQkmpJ4keOfIdGTKdQ3hn8WjiZ+b07qfTadPeA6mjXoDjon5QYa32emY/c+O9l6cKVjkRecGHbBk6ihpZYeWD7LFltgijKe1HcmJYeN+K/tQAXxwVBW2S+0Ou8r03aZmz7gWjqr/xWc5Hl144OUfnAVJ3niggfQtP6X0dCoif/z+3XY9pL1tCzrHcqtSOcreosKSKD/O+UtTvBbcCct0Wc7XtG+oL16+NDlwx+k60c9TCnho45ZOOJaSvhoxy5zV474C3ka/x07m5J4Md076VUaHn3ybxa0kBoxhn4/4QXHlqt2UFSbS2sKlnKC34KSlqSoNo9W5+t9tpu4G7x30us0ptfpfOXERsWeSn+Y8JJR7r58xV7E64wLUm/h1DFiy9Wbxz5Jvp5BfEVfi7a/6Fj0Bb8NJS2J7vtzjOo1je6Z+DJFBvTmKx0XG5RolM4TnOxDvBI6o99cTp2TGjGW7jv5DcexXzpraKmmz3e+xgmOBSUtQUbRasop38ZJP2clX0NXDn/guI/qJyK2Ex3X5xxO+hOveC4bei+nrgn1jTSeQl6k4bGn8RU9rcz5mMrrizjB0VDS3STm1c7XeOHK3GH3GY/fcnabOyf5WqPoO3ZyitVNjJ9Jvp7+nLrOzc2NrhnxZ8d7bZ19mI5pq78FJd1N3+z+gKoaiznpQxxJdePox+mkuDP5SvcF+fSk5PCRnPQ2ImYKj+QQ77XFtD1d7SzZQLtKf+EER0JJd0NdcxUtzXqTkz7c3Tzorgn/ojTJW4EK/cOG8Uhffp7BFBOYwEkecciuOIlGVzo/kXYHSrobPsl8nlrbWjjpwc3Nne4c/09KDB3MV+QK9+/FI30F+4STt4c5s1nESTQXDb6bk15K6wro+9wFnOAwlHQXFVRl0S/7v+WkB3EHfee450wraKGHuwePoKsmxc/Utqi/2PkaNR6q5wQCSrqL3t/6JI/0cdtJT1NSzyGczFHdWMYjfdU2V1BzaxMnc4iinpFyAyd9iMVgn27HQRlHQkl3wYbC72h/dTYnPVw76m9OeV9cWJ3DI32J7TiLa/M5mWdav7l0auKlnPSxJn8JHajJ5QQo6U5qbTtECzP+xUkPFwy6nYZFT+RkLjGn3A62HvyJR+Y6P/UmGhp9Cid9YJe8X6GkO+nLrDeprrmSk/VN6nsBTUm4kJO51u9fTpUaTlc8FrEborNOILlu1EPUKyiZkx72lG+hLQd/5GRvKOlOqGwspW93v8fJ+hJCB9NFaXdyMpfYbPHzHa9w0l9dcwUtzHyBk/luP+kp044Uc5VPMnA3LaCkO+GjdH1OOxab99w85u+czDdv00NaLvo5nlV7F9IG4+nBGfy9gunG0Y9x0kO1cVP0ze73OdkXSrqD9pRv0+p96k1jHjOKOoCTud7b+gRtOWDPU6Lf2fwIrcxdyMlcYmbOzIE3c9LDl7vecCwaszOUdAfptMudWF5s5lzow8SJ6U//dAutK/iKr9iTOCH73S1/d3zobLapSZdotfS+rb2VPsp4jpM9oaQ74Of8JVRcm8fJ2sR7aLG82GyZxevo8VVX097KTL5ib+v3LaV//HQTldYd4CvmuW7kw1odtLC58DvH4jG7QkmfQNOhBlq842VO1iZWFF4z4i+czCMe719e/0fj9w4rx44k5tY/+dP1jldnZhKvsa4c8SAnPei4eKyjUNInIDYkb2ip4WRtF6bdSSG+EZzMsWTXPMfjPRyb+Fr65+rbTZ9eJs5SFIcO6EJ8gxOLyOwIJX0cpXX7HZ/Q66BvyCDHUmIzzU9/hr7OfpsTHM8bG/+P1u//hpM55g79I3m6e3OyPrGI7JBmG5p1BEr6OD7UaMrdZcO6d0rIiby75XH6OW8xJ+iIdzf/jTYWmnOauuDnGUDnD7qNk/WJRWTiSc1uUNK/YUfJBsrSZBNysaowKiCek3wLMp+n9fuWcYLOeHvTQ7S1yLwl5OLpKSYwiZP1fbfnA8eiMjtBSf8G8eiuAx8P425q4E2c5Pty15v0A/YA7pbXNzxAORXpnOSbM+QPPNLDxzY7HAAlfQzfOQ7GLORkbeekXEeePcx5L7mm4Ctalv0WJ+iOF9b+gcpM+prrG5pKgyLln7LjKunGk8fu8q2c9IeSPkpDSy0t0eSI+UDvMMdJHmbIKc+gD7Y+wQm6S+yj/Pzae0xb8HKhRu+mhfnb9HjS7QiU9FEWbv83HWpr5mRt56XewiO56pqr6cX193ACWcrq99G8TX/lJJc4tmxUr2mcrK+odi/9lP8FJ72hpI9wsGavNkuYg30iaUyv0znJ9frGB7FQxSTbDv5Iq/Z+xkmucwZczSM9fLb9ReMJxNwTcFSAkj7Cuxo9vp+ZfAWP5FqW/S7tLt/CCczwScazxg2D/G0IwvxiaXjsaZysT9woLNJkNfDxoKSZWAGWX7mdk7X5eQbT+N7TOclTVJtHX+56nROY6fVf/swjuc7oN4dHevhx76dUXFfASU8oaYPYkF6naT2TE2aRu1sPTvK8/ov5+37Af4h3rmbspdwrqJ9jky2d6P4hIkrasDT7bapp0ucU60nx5/JInu9zFxiP4Dgc1Jm+2PkqVTaUcJLn1KRLeKSH7LJNtL1kHSf92L6kq5sq6OvsdzhZ37CYUyjQO4STHGI2hy47AVrNfBO2JhCHDgf5hHPSw4fb9NnC4Wi2L+mP0//p2FhcFxPiZ/BInsU7X6FWG25so4LM4jWmbG06rvfZPNJDZUORYxGajmxd0nkVO2jrwZWcrE9Mu0sJH8VJjqLafFqTv4QTuMInGfK3fh1t0vRMVxKvh+o12Vb4SLYu6Q812Z/jsFEm/MVbsusNHoGriL2Ud5Vu4iRHVEAfx/a1OhFPe59uf5GTPmxb0mv3LTO++PU6kmd0L7lzYEvq9tGWA/o8aVjZZyZ8JjBS8teLCsRitP3VezjpwZYl3dLWTIsy9fqOG+4f55heJdPyPR/xCFxtX9Uu6ZsKDYmexCO9zNfsQ0RblvSSnfOovkWvY+LTouTuciY2mlq3byknUMF3e+bzSI6evpHGN/ZkTvoQhx9vOvADJ+uzXUmLeacrcj7kpI/BUeN4JMfafV9jRodiMopWS9/wfnD0BB7pZUHGc9TW3sbJ2mxX0mbMO3U1X89ASghN4yTHz3n22GHMalbnf8kjOVLCR/BIL2Jx2jJN1j/YqqSzyjY75p3qJtEoaE93L07dl1+5i4pqsbpQReuNJxyZ+oSkOPZ60dHSrDcdi9WszlYlreuqpH5hw3gkx4bC5TwC1ZTV76eCKnmzksQ398Seek3FO9ICE+aYO5ttSlrs0Vuq6W5ZfUMH8kgO8e4T1LX5wCoeyaHbhktH2nxghWPRmpXZoqSbDjXQ4h0vcdKLt4cfxQX159R9B2pyjW9m+ziBisQZfzL1CdFvhseR3tv2JI+syRYlvcgo6ObWRk56EXOjfYyilmVH6UYegarEboQy91DuFdiPerh7ctLPwZocx+I1q9K+pMXeEz/nLeakn9jARB7JsbsUp65YwZ7yDB51n9g1McI/jpOePs18gQ5ZdEqp9iWt2+qjo8UEJvCo+8RJ1XmV1n5/Zxe7y+R+M40NTOKRnhpaauiLndbch0brks4oXqP9eXxRAb151H0Ha/dStUaHH+gsX+IMD0Hm15GqxCK2svqDnKxD65L+OP05HukrzDeaR923vyaHR6C64tp8qmqU9w21p5+8ryOVfWTBnS+1LenlOR9RRcMBTnoSixBCfaM4dd8BE06oBnO0tR8ynnzk/XmF+8XwSG87StbRnop0TtagZUmLmRxLd73JSV/BPuHUw92DU/eJD1nBOmT+eYX6yPtmr7rPMq01HVfLkl5TsNQo6gZO+gr1jeCRHOX1ej956Ka0vpBH3efnGejYA8YOxC55ueWZnNSnZUn/lPc5j/QW4CXvwNnm1iaqbirnBFZQ0VDEo+4Tc+0DvEI56e/nAuscCaddSR+s2euYvG4Hvp4BPOo+sX90bbP1N6OxE5kfHLq5uUk/ZV5l2w7+RC3GjYkVaFfS22y074S/xDvpuuYqatdk/127qGup5pEcXj18eKS/BuP3Ltsi03O1K+nsss080p/M5eANh2p5BFZR11wtdRWdzK8nK8gulXscmVm0KunGQ/VSt3FUXTvJu/PV8Sh83bW1t0o9fcROd9KCVVbXalXS4n10XXMlJ/3J/KCnFa86LEfMYKo37qZl0eW4qY4Sp4qLrRBUp1VJF0uckmQFHhJ3LhMfHFmJm5s5X7o9TPrfNUNbWysdamvmBJ0lDqMus8CCN61KurzBeuvyoWvaTLoDajxUxyOwg4qGYh6pS6uSrrHZPN8miYUi7sqspLKxhEdylVvgL+1hHj28yMtmH/bJVmWBDcW0Kun6Znt9+FXfIm9GhreHL4+sIa9yJ4/kEfOOyyz0ykycT+grsaTdLfSqRxaxiEt1Wv2piD1j7UTme2Q/D3kLY5yhsHo3lUg+5mt7yXpqtdDG8OIzCXe3Hpy6r+FQPY/sQyziUp1WJW3Wh0mqamiW9wVmxTmy3+cu5JEcq/Yu4pE1iMVMMjfYkvn6zCpkPo2aRatWE/NG7UTmAhR/r2DLnXMnjkWrbCzl1D0bC1fQvqpdnKzB3yuIR3I0HtJ/U7KjWeHmRKuS9vbw55E91DZX8aj7xF/4YB+5u+qZTXxTfm3jg5y6rrqpgj7Y+gQn6xBb1coi5kiLFYx24+upfmdoVdIBxt2gndQ2yVu4I95tBnuHcbKO/MrtNG/Tw5w6T6y0fH7t76nFgqfJyzzwoelQvfFN3367IHq6e/NIXVqVtHhkt5OqJjmP+oeFWfR0js2F39GL6+513BF3hthT+IlV11t210SZp6nUNlc6itpugn168khdWpV0T4l3FlYg9hNukvgeMTqwL4+sZ0fJWnrsh6tpRe4nJ3xsF7NCFm1/mZ5ZfQuVW/iItejAeB51X0WjdeaHyxTsLe+VkVm0KulI/148sgdx5yNz4/fYwAQeWVNdcwUtynyBHll5Ob256WFatfczSi9aTVllmx0fDIpzL8Ud96Mrr3ScHG1l4jE92l9eSZfa8FQebw8/ozPiOKlLq5KODoi3zRFAh5VJXArfOzjZcjM8jkVssrWp8Dv6JONZenXDffT8mrvo7U0P0eLtLzruuMUhrlYXZTz1yJzdUVJnr31vhJiABPLsgXfSTiXeSccGJnGyh+K6/TzqvhCfcIqwwJ0FEMWHpPBIDjseQtxH8u+hWbQqaSEpbCiP7KGweg+P5EgMHcwjUFm/sGE8kkNs82s3SWFDeKQ27Uo6LWIsj+yhsCaXR3IMiBjFI1CVWFnbv6e8m5HKhhIqrZe7xF514rVeSrg1vta1K+mEnoMoxEazPMT0MXE+oSwDwoZL3Q8C5OsdnELBPvLmtBfW5tjufMtU42bOT+JBzmbSrqSF8X1m8Eh/za2NVFAt78gw8WGU7EdpkGtw1HgeybG3Qv6OgqqbEG+djtCypCcaJe3uJm/jGdXllGfySI5hMZN5BCoaLvnPJ6c8nUf20NMvlgZFnsRJfVqWdKB3CE1OuICT/mT/JRsafTJeeSgqLngARQX04dR9YjHU3kq53+RVd86Aa3lkDVqWtHB28jWOyep2kFOR4TgpXZYg71DjkXoSJ1DJuN7TeSTHnopttloOHhvUj0b3Op2TNWhb0uKkkXMH3sxJb2JzoN1lWzjJManvTB6BKsQqw9G9pnKSY2fJLzyyhzmD/8Aj69C2pIVJ8TMpMkDe0lmVZRav45EcA8JHUpgfFraoZKRxByh7a83MorU80t+I2NMoPnQgJ+vQuqSFSwb/nkd6Sy/6mUfynJZ0MY9ABVP7XcojOQ7U5FJxXR4nvYm55RcOup2TtWhf0v3DhtGgSLlTllRU1VhCORVyP0Cc0Ods8vcK5QSuNDBiLEX69+Ykx1YTvrGr6sz+V1GgtzW/lrUvacEud9PrCr7hkRxihsdZyVdyAleakXIdj+TZsE/u14uqgrzD6Kz+V3CyHluUdIhvhPHoPoeTvrYc+IFa2+Tu8DYp/lzcTbvY4OiTHTsUylRQlUXFtfZ41TF78O9I5sn6zmaLkhZmDLiW/DzlHtypmvqWKkovXsNJDnc3dzo/1R6zZFR1wcCbeCTP6vwveaS3hNDBNCza2tNJbVPS4uj7WWl3ctLXqtxPeSTP2LgzHPNLwflOSbyIwiUfZtHS2kQb9tvjVcecIdabcnc025S0MKbX6dQrSO5jo2qyyzZRWb38DdznDLmHR+As4gCLc1Nu4CTP+v3f2mIBy0m9z7b0kXCH2aqkBR2+s57Idzkf80gescn8xPjzOIEzXD7sfvIw4aSc73M+4ZG+xMKfC1Jv4WRttivpPiEDaFjMFE56WpP/JTW01HGSZ3baHRTsE8kJzCQWXsje7U7IMp60imr13+B/xsAbjScRa2xFeiK2K2nhorS7HJPbdXWorZl+yFvESR4xJe+6kQ9xArP4e4XQ3KH3cpJr6a63eaSvnr4xNCVhFifrs2VJi13ypidfw0lPy3e/Ty1GWcvWNzSVzkq+mhOY4frRj5KXCQek5pRn0O5yuXu8qOjSoXq90rRlSQtn9L/MeHSP4KQf8cGQGe+mhenJVzlWwIF8M1JuoCSTzpn8fOerPNLXgPDRljkWq6NsW9Juxo8L0+7ipKdvs99z7BdsBnG3Z6djypxBfFYyrd9cTnLllmfSnvKtnPR10WD9ptnatqSFYdETHZPdddXc2kBLsuZxksvT3YvuPOlZx6fo0H19QlLp2pF/5STf/IxneKSvyQkXSt/fRAW2Lmnh0iF380hPK3M+poqGYk5yiUUWt570FCfoKvFEcttY834fNxauoMLq3Zz0JA74mGnCnHIV2L6kYwITHJPedTY//WkeyZfUcwhdO+pRTtBZYvOfu8f/W/o+0Ye1tbfSgox/cdLXeam3mPJhqwpsX9LCrEG3af3Yvr14Le0o2cBJPrE3wlUjzHtU15WfZzDdOe45xwZgZlm042Wqa67gpKeogL6Ow6d1hZI2+BiPSuekXM9JT+9uedy4q2rjJN/I2Cl0zciHOcGJiJlF90x8hSIDzHuHWlid43jdpTvdX1mipNmpibMpzE/uRjYqqWkqo4XbX+BkjuExk+n2cc9SDxOWMutEbFZ1z8SXKdw/hq+Y483N+n/THGI8xYlXbjpDSR/hkiF6Hw6wKnchZUs+sPZoyWEjHAUkVn3B/xKnBN094UXjTjqcr5jjq6y36GBNLid9XZT2Ox7pCyV9BDEJPiViNCc9vbnpIekHAxytl7hTnPSKY2EB/OqUhNl005jHTf+AK79yFy3NepOTvqb2EwvSwjjpCyV9lEsseOR7Z9Q0ldNbmx/hZJ4Ar2C67aSn6HTjL5Ldidc/c4b+yfEBtdkOtbXQqxsf4KQvsb/JOQP03trhMJT0UcL8ounkvvpsznIsWw6spB/zFnMy17kp19N1o/9GQSY/3qtKLJb606Q3aFzvs/iKud7Z/JjjUGLdXZh2p2PDLztASR/DuQNvcEyO19nH6c9QXuVOTuYaGjWR7j95Ho3sNZWv2MP0AdfR7ye8QNGB8XzFXN/nLqDNB1Zw0ldc8AAaFXsqJ/25tRt4DEdYU/AVfbD1CU56Eo+Mf57yHvl5BvIV82UWr6WFmf+mkrp8vqKftKjxNGPA9RQblMhXzCf2iX5+jf4fogn3TnrdKOr+nPSHkj6OR1Zeof2Jyr2DB9IfJ73MyTnEe9PvcxfSt7vfo4aWGr5qfdGBCTS13xwa02saX3EOsez/0ZWXU3NrI1/R14jY0+nqEQ9ysgeU9HGIncOeWa3HETzHMzz2NLpmxJ85OU91Yzkt2/0urc7/glqN4raqcP84Oi3pEpesehO7HD72w9VU3nCAr+jL3c2DHpv6qfEEGMxX7AElfQKvbniA0ot+4qSvKYkXu+xMOHFw7pqCZbQmfwlVN5XxVfVFBSTQhPgZdHL8uY7T6F3hqZ9vpbyKDE56m5FyI00znlTsBiV9AlWNpfTg8tnUTuYtqVbFmclX09nJV3FyvsZD9bRh/3LasO8byq1I56vqEavcRsed4dizxJVeXn8fZRav5qQ3cbbmo6frf4DusaCkO2DJrnn0dbb+Z8MJFwy6Q4nz4fIqdtDmg6soo2i1Egen9g8bQYOixtGQqPEU4R/HV13HLk94h90w+nFTDua1ApR0B4gVeg8sv1D73cQOm532Ozq573mcXG9vxXbaWbaJcsrSHaeLiMMMzCbu3PqGpFJK5CjqFzrEadPoOuKVDfc5vnnZRVLPYXTX+Oc42Q9KuoPExulvb7LPSdnisFlxlqFqapoqqKgun3KN4i6p20f5lVlU3VRKtc2V1N6FXf7EFrV+XsEUadwdiylz4i45KTTNsTudVw8f/lXqeHXjg5RuPGHYyQOT31Hqm6SzoaQ74ckfb6KCqh2c9OfKDxM7Q0zpq2gooqqmMqpqLKem1nrjqafasSKtoaWW6luqKdC7p+PILzc3d8dp8b4e/hToFUohvpEU7B1mXHfj/zU1if+PL6//E+0q3chX7GFi/Hl08WB7zP/+LSjpTthXlU1P/HgdJ3sY3esMumL4/ZzAFcRUxRfX/5H2V2fzFXsQTzmPT1tM3h6+fMWesCy8E8QqJ1FadrJh/9f03Oo7jbtRfRadWIn4AFXcGNitoIWZA2+0fUELKOlOmjXoVsekejvZXb6FHl91rdP2+oD/ENMRn/r5JkvNHZclzC+OTlFglpEKUNKdJFY7nW2TLRKPVNlQRE/9dKNjTxMw36LtL9M7TthSVlVzhup9JFZnoKS7YFq/uY4pWnYkNp36cNvTph8cYFdixsozP99GK3I+5Cv2kxp5kuOEH/gPfHDYRRnFa+iV9X/iZD9iSbS420kMHcxXoLvWFCylBRnPOWUeuMoePu0TCvW1503QseBOuovSIsdRUs+hnOynqDaXnjXu+L7KssdKTDNVNZbRvF8eMp5S/m77gp6SeBEK+ii4k+6G4roCeuR7HA/VK6g/nZ96Mw0IH8lXoKN+zPuclux8nepbqviKffl5BtHfpn5KHjht/r+gpLtJvJ9dnf85J3sTCw/O6HcZhfhG8BX4LeKw2C92vUY7SzbwFZg77D46Ke5MTnAYSrqbxM5tD3x7vi02XO8Irx6+dFbyVTQl4UKXbd+pMrFB/9Lstx3bssKvYgKT6P7J8zjBkVDSEohDXcWZgfArsRH+lITZxt31DNscGHo8tc1VtGrvIlqR8xE1Gd/Y4b/dPeEl6huaygmOhJKW5KHv51Jp3T5OcFikfzyd1u9iGhc3Xfn9Mcwg7px/Mu6afzIKWuwhAv9rWMwpdO1I+2xe1lkoaUl2l2+l51bfwQmOJlaQibvq0b2mUrBPGF/Vl9jnZXXBl7Qm/0s61NbMV+Fo4inrkdMXUpB3KF+Bo6GkJXpx3b20o2QtJzgWbw8/GhF7Go2Nm0ZJPYfwVT20GGWcUbSG1u9bZqv9nrvD1acBWQFKWiJxVt9fV1zKCU5EnFQ+LOZkGho9gaICrLtfcE5FOm05sIo2Fa6kqsZivgonIraPfdS4i3Z3w3KN40FJS7Z4x6u0fM/7nKCj+vUcRimRYyg1YrRR3sl8VU3NrU20tzLTcde8s+QXOlCzh38GOuOakQ/T8JjJnOC3oKQlE5uz3//tBdSAD4m6LDowkRJD06hf2FDqG5Li8jMF29pbqaAqmwqqs2lXyUajoHc4NpyCrusbMojunvgiJzgelLQJ1u37mt7b8hgn6A43cqeefjGO0o4I6G3cZfejaP8+FOAdSj4efvyr5KlpqjT+Kad9NTl0sGav4y45vyqLqhtL+VeADPdPfotiAhM4wfGgpE0i9l8urN7NCWQL9A5zlLc4+krMFgnxCSc/ryDHVrK+Hr7k4e7lOCLryC/vduNHfUut8Z+txr/rqNZRyBWOY7dEMVcaRVxSV4B5zCYbE3cmXT7sPk5wIihpk4gTrp/++WZOACD0cPekx6cuJl9Pf74CJ4KPVU0iVk8NjzmVEwAIM1JuQEF3EkraRLPTsLgF4LBQ3xg6LfEiTtBRKGkTBXqH0lnJV3MCsLdLh+BIrK5ASZtsevJVjg+5AOysf9gIGhgxmhN0BkraCS4a/HseAdgT7qK7DiXtBMOiJ1J8aBonAHuZ1PcCly9IsjKUtJNcirtpsCEfjwA6N+UGTtAVKGkn6RWURGN7T+cEYA/npt5E3h6+nKArUNJOdEHqreTp7s0JQG9RAX1pYp8ZnKCrUNJO5OcZQDMG4tEP7AEfFsqBknYycUBriG8UJwA9DYocr92hDq6CknaBS4f8gUcAeroEH5RLg5J2gdSIMZQcPpITgF5O73eZ8bQYwQm6CyXtIhcP/h2PAPTh6xlE52ArBKlQ0i4S6d+bJidcyAlAD7PT7qQe7h6cQAaUtAvNTLmBvHpgDinoITaoH43udTonkAUl7UJePbzp/EG3cgKwtsuH/olHIBNK2sXEZP/IgHhOANY0PPY0igvuzwlkQkkrYA6m5IGFubt50OxBt3MC2VDSChCT/tOiJnACsJbpA65xHHAB5kBJK+JiTP4HCwr2iaBp/eZwAjOgpBUR4hNO0/pfwQnAGsTKQjfjB5gHJa2Qs5OvJn+vEE4AaksIHUxpUeM5gVlQ0gpxd3OnWfgABiwC+3M4B0paMWIxQFzwAE4AahrXZwbFBiVyAjOhpBV06WDswwvq8urhQ+cPvIkTmA0lraA+IQNoVK9pnADUMmPgjeTrGcAJzIaSVtSsQbc5FgkAqCTMrxed0vcCTuAMKGlFBXgFOxYJAKjkkiH4sNDZUNIKO6PfXMdiAQAVpESMppTwUZzAWVDSips9+C4eAbgWpty5BkpacUOjJlIiDvQEFzsl8SIK84vlBM6EkraAOUPu4RGA8/l4BNC5KTdwAmdDSVtAVEAfx+IBAFeYlXY7ebh7cgJnQ0lbxKzUW8nT3ZsTgHNEBybSSXFncgJXQElbhLeHL80ceCMnAOeYi1dtLoeStpBTEmZRVEACJwBzjYg9nfqGpnICV0FJW8x1Ix/iEYB5/DyDaO5Q3EWrACVtMdGB8TQ77XecAMxx45jHHBspgeuhpC3o5L7nGf/M4gQg15yh91Ji6GBO4GooaYuanXYHjetzDicAOWak3EDjek/nBCpwazfwGCzo/a1P0tqCLzkBdN25qbfQ6YkXcwJVoKQ18GXWW7Qs601OAJ13xfAHHacCgXpQ0prYWLiCPtz6BDW3NvIVgBOL9I83Cvp+ig9J4SugGpS0Rkrq9tEH256i3WWb+QrAbxvbezpdlHYXefXASlaVoaQ19MPeRfTFzlep6VA9XwH4VWRAPJ038CYaHDWer4DKUNKaqmospeV75tOqvZ9SW3srXwU78/cKpckJs2hq0iXYMMlCUNKaK6rNd9xZr9+3DHfWNhXqG0MT42ca/8wgP89AvgpWgZK2iZqmStp04HvaUriSdpdv4augK7FjYnL4SBoVN5WGR59MPdxxqLFVoaRtqLA6h/ZUpFN26RYqrMk17rZz+WfAqsTJ8nHByY69xwdGjqGkkDTq6RfFPwtWhpK2ufKGYqOk86i6qZwqGkuotbWF3NywENUK2tvbyLOHl1HGMRTkHUKxgUmOU+ZBLyhpAACF4ZYJAEBhKGkAAIWhpAEAFIaSBgBQGEoaAEBhKGkAAIWhpAEAFIaSBgBQGEoaAEBhKGkAAIWhpAEAFIaSBgBQGEoaAEBhKGkAAIWhpAEAFIaSBgBQGEoaAEBhKGkAAIWhpAEAFIaSBgBQGEoaAEBZRP8PyGgVC+vXi3gAAAAASUVORK5CYII=;" vertex="1" parent="1">
          <mxGeometry x="1276.5" y="1710.78" width="54" height="49.22" as="geometry" />
        </mxCell>
        <mxCell id="0VNToS_IOA-vj3WojO3x-19" value="SpringBoot&lt;br&gt;" style="text;html=1;align=center;verticalAlign=middle;resizable=0;points=[];autosize=1;strokeColor=none;fillColor=none;" vertex="1" parent="1">
          <mxGeometry x="1270" y="1760" width="80" height="30" as="geometry" />
        </mxCell>
      </root>
    </mxGraphModel>
  </diagram>
</mxfile>
